<?xml version="1.0" encoding="UTF-8" standalone="no"?>
<svg
   viewBox="774 216 393.5 397.5"
   style="height: 397.5px; width: 393.5px; position: absolute; overflow: visible;"
   version="1.1"
   id="svg1"
   sodipodi:docname="arrow_right.svg"
   inkscape:version="1.4 (86a8ad7, 2024-10-11)"
   xmlns:inkscape="http://www.inkscape.org/namespaces/inkscape"
   xmlns:sodipodi="http://sodipodi.sourceforge.net/DTD/sodipodi-0.dtd"
   xmlns="http://www.w3.org/2000/svg"
   xmlns:svg="http://www.w3.org/2000/svg">
  <defs
     id="defs1" />
  <sodipodi:namedview
     id="namedview1"
     pagecolor="#ffffff"
     bordercolor="#000000"
     borderopacity="0.25"
     inkscape:showpageshadow="2"
     inkscape:pageopacity="0.0"
     inkscape:pagecheckerboard="0"
     inkscape:deskcolor="#d1d1d1"
     inkscape:zoom="1.0150943"
     inkscape:cx="348.24349"
     inkscape:cy="351.19888"
     inkscape:window-width="1920"
     inkscape:window-height="1009"
     inkscape:window-x="1912"
     inkscape:window-y="-8"
     inkscape:window-maximized="1"
     inkscape:current-layer="svg1" />
  <g
     id="g1"
     transform="matrix(2.5340999,0,0,2.3923417,-2730.7517,-1047.8476)">
    <path
       d="m 1391.6283,603.29882 q 5.75,-0.24 9.98,-0.52 4.23,-0.28 8.25,-0.54 4.02,-0.26 9.68,0.06 5.66,0.32 9.9,0.01 4.24,-0.31 8.25,-0.48 4.01,-0.17 8.08,-0.28 4.07,-0.11 8.1,-0.26 4.03,-0.15 9,-0.21 4.97,-0.06 9.3,0.29 4.33,0.35 10.07,1.05 5.74,0.7 9.95,0.34 4.21,-0.36 8.4,-0.4 4.19,-0.04 8.25,-0.1 4.06,-0.06 10.1,0.85 6.04,0.91 6.41,0.44 0.37,-0.47 2.1,-0.15 1.73,0.32 3.28,1.13 1.55,0.81 2.74,2.12 1.19,1.31 1.92,2.89 0.73,1.58 0.91,3.35 0.18,1.77 -0.22,3.46 -0.4,1.69 -1.31,3.21 -0.91,1.52 -2.27,2.63 -1.36,1.11 -2.98,1.76 -1.62,0.65 -3.4,0.72 -1.78,0.07 -3.44,-0.4 -1.66,-0.47 -3.14,-1.49 -1.48,-1.02 -2.5,-2.4 -1.02,-1.38 -1.6,-3.08 -0.58,-1.7 -0.53,-3.43 0.05,-1.73 0.59,-3.42 0.54,-1.69 1.65,-3.05 1.11,-1.36 2.54,-2.36 1.43,-1 3.16,-1.43 1.73,-0.43 3.45,-0.35 1.72,0.08 3.38,0.77 1.66,0.69 2.96,1.82 1.3,1.13 2.22,2.66 0.92,1.53 1.26,3.23 0.34,1.7 0.16,3.47 -0.18,1.77 -0.96,3.33 -0.78,1.56 -1.97,2.86 -1.19,1.3 -2.78,2.07 -1.59,0.77 -3.29,1.08 -1.7,0.31 -1.74,0.27 -0.04,-0.04 -2.38,-0.07 -2.34,-0.03 -6.83,-0.56 -4.49,-0.53 -8.55,-0.54 -4.06,-0.01 -8.6,-0.11 -4.54,-0.1 -8.95,-0.16 -4.41,-0.06 -9.95,-0.67 -5.54,-0.61 -9.94,-1.15 -4.4,-0.54 -8.95,-0.71 -4.55,-0.17 -8.55,-0.25 -4,-0.08 -8.23,-0.27 -4.23,-0.19 -8.2,-0.3 -3.97,-0.11 -8.67,-0.48 -4.7,-0.37 -9.24,-0.97 -4.54,-0.6 -8.64,-0.9 -4.1,-0.3 -8.25,-0.54 -4.15,-0.24 -7.1,-0.4 -2.95,-0.16 -3.68,-0.22 -0.73,-0.06 -1.54,-0.38 -0.81,-0.32 -1.41,-0.74 -0.6,-0.42 -1.2,-1.06 -0.6,-0.64 -0.9,-1.31 -0.3,-0.67 -0.57,-1.49 -0.27,-0.82 -0.19,-1.58 0.08,-0.76 0.19,-1.58 0.11,-0.82 0.57,-1.49 0.46,-0.67 0.9,-1.31 0.44,-0.64 1.2,-1.06 0.76,-0.42 1.41,-0.74 0.65,-0.32 1.54,-0.38 z"
       fill="var(--ifm-text-color-inverse)"
       stroke="none"
       id="path1"
       style="overflow:visible" />
    <path
       d="m 1464.3483,531.76882 q 6.4,5.67 10.43,9.28 4.03,3.61 8.05,7.61 4.02,4 6.86,7.61 2.84,3.61 7.36,7.81 4.52,4.2 7.83,7.37 3.31,3.17 6.01,6.13 2.7,2.96 6.68,7.4 3.98,4.44 6.97,7.22 2.99,2.78 5.57,6.66 2.58,3.88 2.92,8.61 0.34,4.73 -1.76,8.96 -2.1,4.23 -4.58,7.85 -2.48,3.62 -5.39,7.04 -2.91,3.42 -6.18,7.65 -3.27,4.23 -6.1,7.81 -2.83,3.58 -5.27,7.47 -2.44,3.89 -4.64,8.03 -2.2,4.14 -5.37,8.35 -3.17,4.21 -5.82,7.62 -2.65,3.41 -6.32,6.64 -3.67,3.23 -4.91,4.41 -1.24,1.18 -2.76,2.03 -1.52,0.85 -3.27,1.2 -1.75,0.35 -3.48,0.1 -1.73,-0.25 -3.33,-1.03 -1.6,-0.78 -2.83,-2.03 -1.23,-1.25 -2.03,-2.83 -0.8,-1.58 -1.03,-3.33 -0.23,-1.75 0.1,-3.48 0.33,-1.73 1.2,-3.27 0.87,-1.54 2.18,-2.71 1.31,-1.17 2.94,-1.88 1.63,-0.71 3.38,-0.84 1.75,-0.13 3.47,0.28 1.72,0.41 3.2,1.38 1.48,0.97 2.59,2.33 1.11,1.36 1.71,3.03 0.6,1.67 0.66,3.42 0.06,1.75 -0.47,3.45 -0.53,1.7 -1.55,3.12 -1.02,1.42 -2.46,2.46 -1.44,1.04 -3.12,1.55 -1.68,0.51 -3.45,0.47 -1.77,-0.04 -3.43,-0.66 -1.66,-0.62 -3.03,-1.71 -1.37,-1.09 -2.32,-2.6 -0.95,-1.51 -1.38,-3.2 -0.43,-1.69 -0.28,-3.47 0.15,-1.78 0.84,-3.38 0.69,-1.6 1.88,-2.93 1.19,-1.33 1.18,-1.31 -0.01,0.02 0.41,0.1 0.42,0.08 4.56,-4.08 4.14,-4.16 7.05,-6.96 2.91,-2.8 4.97,-6.35 2.06,-3.55 4.19,-7.23 2.13,-3.68 4.45,-7.38 2.32,-3.7 4.85,-7.15 2.53,-3.45 5.33,-6.83 2.8,-3.38 6.33,-7.41 3.53,-4.03 7.51,-6.24 3.98,-2.21 1.48,-5.73 -2.5,-3.52 -5.71,-6.94 -3.21,-3.42 -6.16,-7.07 -2.95,-3.65 -6.16,-7.01 -3.21,-3.36 -6.47,-7 -3.26,-3.64 -5.93,-6.62 -2.67,-2.98 -5.56,-7.24 -2.89,-4.26 -5.68,-7.57 -2.79,-3.31 -6.45,-7.04 -3.66,-3.73 -6.77,-6.64 -3.11,-2.91 -3.68,-3.56 -0.57,-0.65 -0.94,-1.39 -0.37,-0.74 -0.58,-1.58 -0.21,-0.84 -0.18,-1.67 0.03,-0.83 0.23,-1.66 0.2,-0.83 0.61,-1.57 0.41,-0.74 0.98,-1.37 0.57,-0.63 1.27,-1.09 0.7,-0.46 1.49,-0.77 0.79,-0.31 1.64,-0.38 0.85,-0.07 1.68,0.03 0.83,0.1 1.62,0.42 0.79,0.32 1.48,0.8 z"
       fill="var(--ifm-text-color-inverse)"
       stroke="none"
       id="path2"
       style="overflow:visible" />
  </g>
</svg>
