<?xml version="1.0" encoding="UTF-8" standalone="no"?>
<!-- Created with Inkscape (http://www.inkscape.org/) -->

<svg
   width="48"
   height="48"
   viewBox="0 0 48 48"
   version="1.1"
   id="svg1"
   inkscape:version="1.4 (86a8ad7, 2024-10-11)"
   sodipodi:docname="cable.svg"
   xmlns:inkscape="http://www.inkscape.org/namespaces/inkscape"
   xmlns:sodipodi="http://sodipodi.sourceforge.net/DTD/sodipodi-0.dtd"
   xmlns="http://www.w3.org/2000/svg"
   xmlns:svg="http://www.w3.org/2000/svg">
  <sodipodi:namedview
     id="namedview1"
     pagecolor="#ffffff"
     bordercolor="#000000"
     borderopacity="0.25"
     inkscape:showpageshadow="2"
     inkscape:pageopacity="0.0"
     inkscape:pagecheckerboard="0"
     inkscape:deskcolor="#d1d1d1"
     inkscape:document-units="px"
     inkscape:zoom="6.916644"
     inkscape:cx="10.265094"
     inkscape:cy="50.530286"
     inkscape:window-width="1920"
     inkscape:window-height="1111"
     inkscape:window-x="-9"
     inkscape:window-y="-9"
     inkscape:window-maximized="1"
     inkscape:current-layer="layer1" />
  <defs
     id="defs1" />
  <g
     inkscape:label="Layer 1"
     inkscape:groupmode="layer"
     id="layer1">
    <g
       id="g1"
       transform="matrix(0.20788267,0,0,0.22226335,15.347824,18.757274)">
      <path
         d="m -55.62049,-50.15388 q -0.24,-4.52 -1.53,-8.37 -1.29,-3.85 -1.57,-9.24 -0.28,-5.39 -0.07,-6.66 0.21,-1.27 0.81,-2.4 0.6,-1.13 1.54,-2.01 0.94,-0.88 2.09,-1.43 1.15,-0.55 2.44,-0.67 1.29,-0.12 2.53,0.13 1.24,0.25 2.36,0.94 1.12,0.69 1.93,1.64 0.81,0.95 1.3,2.17 0.49,1.22 0.55,2.48 0.06,1.26 -0.28,2.52 -0.34,1.26 -1.06,2.29 -0.72,1.03 -1.74,1.84 -1.02,0.81 -2.24,1.19 -1.22,0.38 -2.5,0.41 -1.28,0.03 -2.5,-0.41 -1.22,-0.44 -2.24,-1.19 -1.02,-0.75 -1.74,-1.84 -0.72,-1.09 -1.06,-2.3 -0.34,-1.21 -0.28,-2.52 0.06,-1.31 0.55,-2.47 0.49,-1.16 1.3,-2.17 0.81,-1.01 1.94,-1.64 1.13,-0.63 2.35,-0.94 1.22,-0.31 2.53,-0.13 1.31,0.18 2.44,0.68 1.13,0.5 2.1,1.42 0.97,0.92 1.53,2.01 0.56,1.09 0.81,2.41 0.25,1.32 0.2,1.26 -0.05,-0.06 -0.6,5.17 -0.55,5.23 0.43,9.16 0.98,3.93 0.92,6.33 -0.06,2.4 -0.22,3.12 -0.16,0.72 -0.37,1.53 -0.21,0.81 -0.73,1.39 -0.52,0.58 -1.04,1.17 -0.52,0.59 -1.29,0.9 -0.77,0.31 -1.47,0.55 -0.7,0.24 -1.56,0.19 -0.86,-0.05 -1.56,-0.19 -0.7,-0.14 -1.47,-0.55 -0.77,-0.41 -1.29,-0.9 -0.52,-0.49 -1.04,-1.17 -0.52,-0.68 -0.73,-1.39 -0.21,-0.71 -0.37,-1.53 z"
         fill="#000000"
         stroke="none"
         id="path1"
         style="overflow:visible" />
      <path
         d="m -18.70049,-47.15388 q -0.23,-4.02 -0.51,-8.14 -0.28,-4.12 -1.04,-9.96 -0.76,-5.84 -0.57,-7.11 0.19,-1.27 0.79,-2.41 0.6,-1.14 1.52,-2.04 0.92,-0.9 2.09,-1.44 1.17,-0.54 2.45,-0.7 1.28,-0.16 2.54,0.11 1.26,0.27 2.37,0.93 1.11,0.66 1.95,1.63 0.84,0.97 1.33,2.16 0.49,1.19 0.56,2.48 0.07,1.29 -0.25,2.53 -0.32,1.24 -1.05,2.32 -0.73,1.08 -1.74,1.86 -1.01,0.78 -2.23,1.21 -1.22,0.43 -2.51,0.43 -1.29,0 -2.51,-0.39 -1.22,-0.39 -2.26,-1.18 -1.04,-0.79 -1.76,-1.83 -0.72,-1.04 -1.08,-2.3 -0.36,-1.26 -0.3,-2.52 0.06,-1.26 0.53,-2.49 0.47,-1.23 1.29,-2.19 0.82,-0.96 1.93,-1.66 1.11,-0.7 2.35,-0.96 1.24,-0.26 2.54,-0.16 1.3,0.1 2.45,0.66 1.15,0.56 2.12,1.41 0.97,0.85 1.55,2.02 0.58,1.17 0.83,2.4 0.25,1.23 0.22,1.27 -0.03,0.04 0.23,5.9 0.26,5.86 -0.04,10.02 -0.3,4.16 -0.39,6.13 -0.09,1.97 -0.22,2.8 -0.13,0.83 -0.38,1.55 -0.25,0.72 -0.74,1.4 -0.49,0.68 -1.05,1.19 -0.56,0.51 -1.31,0.91 -0.75,0.4 -1.48,0.56 -0.73,0.16 -1.58,0.19 -0.85,0.03 -1.58,-0.19 -0.73,-0.22 -1.48,-0.56 -0.75,-0.34 -1.31,-0.91 -0.56,-0.57 -1.05,-1.19 -0.49,-0.62 -0.74,-1.4 -0.25,-0.78 -0.38,-1.55 z"
         fill="#000000"
         stroke="none"
         id="path2"
         style="overflow:visible" />
      <path
         d="m -61.89049,-53.79388 q 4.56,-0.81 9.04,-1.79 4.48,-0.98 9.34,-1.3 4.86,-0.32 10.12,0.52 5.26,0.84 9.86,1.04 4.6,0.2 9.68,1.17 5.08,0.97 9.82,3.41 4.74,2.44 9.35,5.68 4.61,3.24 6,7.14 1.39,3.9 1.55,8.03 0.16,4.13 0.26,8.54 0.1,4.41 -1.04,8.86 -1.14,4.45 -6.01,8.33 -4.87,3.88 -8.49,5.7 -3.62,1.82 -6.83,4.24 -3.21,2.42 -7.53,2.63 -4.32,0.21 -8.41,0.21 -4.09,0 -9.03,-1.59 -4.94,-1.59 -9.32,-2.8 -4.38,-1.21 -8.88,-3.65 -4.5,-2.44 -7.94,-6.2 -3.44,-3.76 -6.17,-8.06 -2.73,-4.3 -3.57,-8.3 -0.84,-4 -1.42,-8.11 -0.58,-4.11 -0.26,-6.17 0.32,-2.06 -0.37,-3.65 -0.69,-1.59 -0.82,-3.44 -0.13,-1.85 0.31,-3.53 0.44,-1.68 1.43,-3.23 0.99,-1.55 2.38,-2.62 1.39,-1.07 3.1,-1.71 1.71,-0.64 3.48,-0.64 1.77,0 3.5,0.51 1.73,0.51 3.15,1.6 1.42,1.09 2.48,2.52 1.06,1.43 1.55,3.18 0.49,1.75 0.44,3.51 -0.05,1.76 -0.69,3.47 -0.64,1.71 -1.77,3.06 -1.13,1.35 -2.65,2.34 -1.52,0.99 -3.26,1.37 -1.74,0.38 -3.53,0.26 -1.79,-0.12 -3.42,-0.89 -1.63,-0.77 -2.97,-1.93 -1.34,-1.16 -2.19,-2.77 -0.85,-1.61 -1.19,-3.33 -0.34,-1.72 -0.07,-3.54 0.27,-1.82 1.07,-3.37 0.8,-1.55 2.09,-2.85 1.29,-1.3 2.89,-2.04 1.6,-0.74 3.39,-1.01 1.79,-0.27 3.53,0.12 1.74,0.39 3.31,1.25 1.57,0.86 2.74,2.24 1.17,1.38 1.18,1.34 0.01,-0.04 1.24,8.3 1.23,8.34 2.35,12.71 1.12,4.37 3.73,8.22 2.61,3.85 6.56,5.08 3.95,1.23 8.08,2.04 4.13,0.81 8.87,1.64 4.74,0.83 9.6,-1.2 4.86,-2.03 4.98,-6.84 0.12,-4.81 2.48,-7.98 2.36,-3.17 -2.02,-4.39 -4.38,-1.22 -9.66,-3.13 -5.28,-1.91 -9.74,-3.05 -4.46,-1.14 -8.46,-1.79 -4,-0.65 -8.47,-0.95 -4.47,-0.3 -8.47,0.13 -4,0.43 -6.3,0.57 -2.3,0.14 -3.13,0.17 -0.83,0.03 -1.59,-0.19 -0.76,-0.22 -1.49,-0.56 -0.73,-0.34 -1.33,-0.9 -0.6,-0.56 -1.06,-1.2 -0.46,-0.64 -0.75,-1.41 -0.29,-0.77 -0.39,-1.56 -0.1,-0.79 0,-1.6 0.1,-0.81 0.37,-1.55 0.27,-0.74 0.74,-1.42 0.47,-0.68 1.06,-1.2 0.59,-0.52 1.31,-0.92 0.72,-0.4 1.5,-0.57 z"
         fill="#000000"
         stroke="none"
         id="path3"
         style="overflow:visible" />
      <path
         d="m 133.49951,91.84612 q 0.25,5.75 0.57,10.09 0.32,4.34 1.09,8.75 0.77,4.41 1.33,6.04 0.56,1.63 0.58,2.96 0.02,1.33 -0.38,2.6 -0.4,1.27 -1.18,2.35 -0.78,1.08 -1.88,1.85 -1.1,0.77 -2.36,1.15 -1.26,0.38 -2.61,0.33 -1.35,-0.05 -2.58,-0.51 -1.23,-0.46 -2.28,-1.31 -1.05,-0.85 -1.74,-1.97 -0.69,-1.12 -1.02,-2.43 -0.33,-1.31 -0.2,-2.62 0.13,-1.31 0.66,-2.55 0.53,-1.24 1.43,-2.2 0.9,-0.96 2.06,-1.63 1.16,-0.67 2.48,-0.89 1.32,-0.22 2.63,-0.05 1.31,0.17 2.51,0.79 1.2,0.62 2.12,1.55 0.92,0.93 1.52,2.14 0.6,1.21 0.75,2.52 0.15,1.31 -0.09,2.63 -0.24,1.32 -0.93,2.46 -0.69,1.14 -1.66,2.04 -0.97,0.9 -2.23,1.4 -1.26,0.5 -2.55,0.62 -1.29,0.12 -2.62,-0.24 -1.33,-0.36 -2.41,-1.06 -1.08,-0.7 -1.94,-1.77 -0.86,-1.07 -1.28,-2.3 -0.42,-1.23 -0.45,-1.25 -0.03,-0.02 -0.43,-3.46 -0.4,-3.44 -0.67,-7.53 -0.27,-4.09 0.07,-8.41 0.34,-4.32 0.44,-7.21 0.1,-2.89 0.22,-3.67 0.12,-0.78 0.38,-1.52 0.26,-0.74 0.73,-1.39 0.47,-0.65 1.04,-1.18 0.57,-0.53 1.29,-0.89 0.72,-0.36 1.47,-0.55 0.75,-0.19 1.56,-0.19 0.81,0 1.56,0.19 0.75,0.19 1.47,0.55 0.72,0.36 1.29,0.89 0.57,0.53 1.04,1.18 0.47,0.65 0.73,1.39 0.26,0.74 0.38,1.53 z"
         fill="#000000"
         stroke="none"
         id="path4"
         style="overflow:visible" />
      <path
         d="m 101.74951,87.41612 q -0.37,6.91 -0.3,11.69 0.07,4.78 -0.06,10.16 -0.13,5.38 -0.1,9 0.03,3.62 -0.19,4.95 -0.22,1.33 -0.86,2.53 -0.64,1.2 -1.63,2.13 -0.99,0.93 -2.22,1.49 -1.23,0.56 -2.58,0.71 -1.35,0.15 -2.68,-0.15 -1.33,-0.3 -2.48,-1 -1.15,-0.7 -2.04,-1.74 -0.89,-1.04 -1.37,-2.3 -0.48,-1.26 -0.57,-2.62 -0.09,-1.36 0.3,-2.66 0.39,-1.3 1.13,-2.43 0.74,-1.13 1.85,-1.94 1.11,-0.81 2.37,-1.24 1.26,-0.43 2.65,-0.43 1.39,0 2.64,0.44 1.25,0.44 2.36,1.27 1.11,0.83 1.84,1.95 0.73,1.12 1.11,2.43 0.38,1.31 0.28,2.67 -0.1,1.36 -0.58,2.61 -0.48,1.25 -1.39,2.29 -0.91,1.04 -2.05,1.73 -1.14,0.69 -2.49,0.98 -1.35,0.29 -2.67,0.14 -1.32,-0.15 -2.58,-0.73 -1.26,-0.58 -2.21,-1.51 -0.95,-0.93 -1.62,-2.14 -0.67,-1.21 -0.84,-2.54 -0.17,-1.33 -0.22,-1.34 -0.05,-0.01 0.25,-4.2 0.3,-4.19 0.94,-9.09 0.64,-4.9 1.15,-10.12 0.51,-5.22 0.85,-8.69 0.34,-3.47 0.56,-4.24 0.22,-0.77 0.52,-1.55 0.3,-0.78 0.88,-1.38 0.58,-0.6 1.18,-1.13 0.6,-0.53 1.42,-0.82 0.82,-0.29 1.57,-0.45 0.75,-0.16 1.63,-0.06 0.88,0.1 1.61,0.33 0.73,0.23 1.47,0.71 0.74,0.48 1.26,1.03 0.52,0.55 0.98,1.31 0.46,0.76 0.64,1.51 0.18,0.75 0.26,1.62 z"
         fill="#000000"
         stroke="none"
         id="path5"
         style="overflow:visible" />
      <path
         d="m -17.75049,1.94612 q -1.49,5.25 -1.6,9.51 -0.11,4.26 0.14,8.36 0.25,4.1 0.47,8.62 0.22,4.52 0.41,9.46 0.19,4.94 0.78,9.09 0.59,4.15 0.79,8.4 0.2,4.25 0.31,8.83 0.11,4.58 0.62,9.25 0.51,4.67 1.99,9.32 1.48,4.65 3.71,8.08 2.23,3.43 7.12,5.94 4.89,2.51 10.3,3.49 5.41,0.98 9.68,1.31 4.27,0.33 8.05,-2.46 3.78,-2.79 5.3,-6.66 1.52,-3.87 1.62,-8.92 0.1,-5.05 0.08,-9.66 -0.02,-4.61 -0.03,-9.19 -0.01,-4.58 -0.04,-9.53 -0.03,-4.95 -0.38,-9.73 -0.35,-4.78 -0.46,-8.95 -0.11,-4.17 -1.61,-8.39 -1.5,-4.22 -1.61,-8.67 -0.11,-4.45 -0.11,-8.61 0,-4.16 -0.02,-8.17 -0.02,-4.01 -0.02,-8.02 0,-4.01 1.08,-8.67 1.08,-4.66 2.74,-10.08 1.66,-5.42 3.36,-9.99 1.7,-4.57 3.46,-9 1.76,-4.43 4.8,-7.86 3.04,-3.43 6.9,-6.35 3.86,-2.92 8.46,-5.22 4.6,-2.3 9.05,-3.07 4.45,-0.77 9.45,-1.76 5,-0.99 9.52,-1.45 4.52,-0.46 9.33,0.44 4.81,0.9 8.97,4.6 4.16,3.7 7.1,7.44 2.94,3.74 5.3,8.62 2.36,4.88 3.58,9.75 1.22,4.87 2,8.86 0.78,3.99 1.99,7.9 1.21,3.91 1.26,8.07 0.05,4.16 0.05,8.27 0,4.11 -0.03,8.82 -0.03,4.71 -0.47,9.68 -0.44,4.97 -0.52,9.65 -0.08,4.68 -1.57,9.94 -1.49,5.26 -3.02,12.81 -1.53,7.55 -5.2,9.36 -3.67,1.81 -8.31,1.73 -4.64,-0.08 -9.14,1.39 -4.5,1.47 -7.97,5.06 -3.47,3.59 -3.63,7.83 -0.16,4.24 4.4,5.15 4.56,0.91 10.29,1.23 5.73,0.32 9.9,0.57 4.17,0.25 8.17,1.05 4,0.8 8.42,0.49 4.42,-0.31 8.45,-0.68 4.03,-0.37 0.84,2.74 -3.19,3.11 -3.15,-1.22 0.04,-4.33 -0.75,-8.52 -0.79,-4.19 -3.96,-7.63 -3.17,-3.44 -10.1,-6.61 -6.93,-3.17 -9.17,-2.73 -2.24,0.44 -3.92,-0.18 -1.68,-0.62 -3.04,-1.89 -1.36,-1.27 -2.29,-2.76 -0.93,-1.49 -1.28,-3.35 -0.35,-1.86 -0.14,-3.58 0.21,-1.72 1,-3.44 0.79,-1.72 2.05,-2.94 1.26,-1.22 2.89,-2.13 1.63,-0.91 3.41,-1.09 1.78,-0.18 3.58,0.05 1.8,0.23 3.38,1.19 1.58,0.96 2.82,2.2 1.24,1.24 1.97,3 0.73,1.76 0.92,3.46 0.19,1.7 -0.25,3.58 -0.44,1.88 -1.37,3.31 -0.93,1.43 -2.36,2.7 -1.43,1.27 -3.09,1.8 -1.66,0.53 -3.51,0.73 -1.85,0.2 -3.56,-0.44 -1.71,-0.64 -3.23,-1.55 -1.52,-0.91 -2.57,-2.5 -1.05,-1.59 -1.63,-3.19 -0.58,-1.6 -0.53,-3.54 0.05,-1.94 0.62,-3.53 0.57,-1.59 1.73,-3.14 1.16,-1.55 2.63,-2.43 1.47,-0.88 3.27,-1.46 1.8,-0.58 3.57,-0.34 1.77,0.24 1.81,0.12 0.04,-0.12 2.81,0.43 2.77,0.55 7.99,3.11 5.22,2.56 9.3,4.42 4.08,1.86 8.34,4.53 4.26,2.67 7.7,7.15 3.44,4.48 5.05,9.64 1.61,5.16 2.06,9.28 0.45,4.12 0.49,8.44 0.04,4.32 -1.03,8.94 -1.07,4.62 -4.67,7.36 -3.6,2.74 -9.45,3.89 -5.85,1.15 -9.86,1.05 -4.01,-0.1 -8.11,-0.07 -4.1,0.03 -9.09,-0.57 -4.99,-0.6 -9.35,-1.5 -4.36,-0.9 -8.49,-1.01 -4.13,-0.11 -8.63,-0.48 -4.5,-0.37 -9.09,-1.35 -4.59,-0.98 -8.67,-4.8 -4.08,-3.82 -5.04,-10.28 -0.96,-6.46 -0.94,-10.63 0.02,-4.17 1.53,-8.65 1.51,-4.48 3.97,-7.78 2.46,-3.3 6.12,-7.23 3.66,-3.93 8,-7.09 4.34,-3.16 10.29,-4.62 5.95,-1.46 10.25,-0.8 4.3,0.66 0.57,3.21 -3.73,2.55 -3.55,-1.57 0.18,-4.12 1.03,-9.53 0.85,-5.41 1.31,-9.54 0.46,-4.13 0.45,-8.84 -0.01,-4.71 -0.04,-9.28 -0.03,-4.57 -0.02,-8.85 0.01,-4.28 -0.63,-8.57 -0.64,-4.29 -1.97,-8.35 -1.33,-4.06 -1.83,-8.64 -0.5,-4.58 -3.85,-8.42 -3.35,-3.84 -8.59,-3.58 -5.24,0.26 -10.39,0.92 -5.15,0.66 -8.94,2.47 -3.79,1.81 -6.63,5.42 -2.84,3.61 -4.61,9 -1.77,5.39 -3.11,9.55 -1.34,4.16 -2.21,8.21 -0.87,4.05 -0.84,8.01 0.03,3.96 -0.02,8.09 -0.05,4.13 -0.02,8.3 0.03,4.17 0.56,8.31 0.53,4.14 1.24,9.55 0.71,5.41 1.37,10.08 0.66,4.67 0.69,8.59 0.03,3.92 -0.03,8.7 -0.06,4.78 -0.03,8.72 0.03,3.94 -0.03,8.83 -0.06,4.89 -0.06,9.53 0,4.64 -0.9,9.13 -0.9,4.49 -2.71,8.13 -1.81,3.64 -5.79,7.6 -3.98,3.96 -6.96,6.56 -2.98,2.6 -9.6,4.7 -6.62,2.1 -10.92,1.93 -4.3,-0.17 -9.57,-1.66 -5.27,-1.49 -9.37,-2.4 -4.1,-0.91 -8.45,-2.82 -4.35,-1.91 -8.44,-5.52 -4.09,-3.61 -6.24,-6.93 -2.15,-3.32 -3.82,-7.1 -1.67,-3.78 -3.55,-9.21 -1.88,-5.43 -2.63,-10.13 -0.75,-4.7 -0.65,-8.96 0.1,-4.26 0.24,-8.8 0.14,-4.54 -0.19,-9 -0.33,-4.46 -0.19,-8.92 0.14,-4.46 0.35,-9.27 0.21,-4.81 0.44,-8.95 0.23,-4.14 0.55,-8.45 0.32,-4.31 1.3,-8.57 0.98,-4.26 1.95,-6.68 0.97,-2.42 1.32,-3.28 0.35,-0.86 0.85,-1.35 0.5,-0.49 1.15,-1.1 0.65,-0.61 1.38,-0.8 0.73,-0.19 1.53,-0.44 0.8,-0.25 1.59,-0.06 0.79,0.19 1.56,0.31 0.77,0.12 1.44,0.69 0.67,0.57 1.23,1 0.56,0.43 0.96,1.27 0.4,0.84 0.62,1.47 0.22,0.63 0.26,1.57 0.04,0.94 -0.13,1.59 z"
         fill="#000000"
         stroke="none"
         id="path6"
         style="overflow:visible" />
    </g>
  </g>
</svg>
