<?xml version="1.0" encoding="UTF-8" standalone="no"?>
<!-- Created with Inkscape (http://www.inkscape.org/) -->

<svg
   width="48"
   height="48"
   viewBox="0 0 48 48"
   version="1.1"
   id="svg1"
   inkscape:version="1.4 (86a8ad7, 2024-10-11)"
   sodipodi:docname="chevron_right.svg"
   xmlns:inkscape="http://www.inkscape.org/namespaces/inkscape"
   xmlns:sodipodi="http://sodipodi.sourceforge.net/DTD/sodipodi-0.dtd"
   xmlns="http://www.w3.org/2000/svg"
   xmlns:svg="http://www.w3.org/2000/svg">
  <sodipodi:namedview
     id="namedview1"
     pagecolor="#ffffff"
     bordercolor="#000000"
     borderopacity="0.25"
     inkscape:showpageshadow="2"
     inkscape:pageopacity="0.0"
     inkscape:pagecheckerboard="0"
     inkscape:deskcolor="#d1d1d1"
     inkscape:document-units="px"
     inkscape:zoom="4.8908059"
     inkscape:cx="8.3830765"
     inkscape:cy="47.947108"
     inkscape:window-width="1920"
     inkscape:window-height="1111"
     inkscape:window-x="-9"
     inkscape:window-y="-9"
     inkscape:window-maximized="1"
     inkscape:current-layer="layer1" />
  <defs
     id="defs1" />
  <g
     inkscape:label="Layer 1"
     inkscape:groupmode="layer"
     id="layer1">
    <path
       d="m 1.3173221,32.744368 q 1.0858409,-0.861956 2.2500429,-1.718316 1.164201,-0.856359 1.989776,-1.740704 0.8255761,-0.884345 1.6819351,-1.771489 0.8563588,-0.887144 1.5504018,-1.855446 0.694043,-0.968302 1.6483521,-1.931006 0.954308,-0.962704 1.687533,-1.967388 0.733222,-1.004684 1.684732,-2.115713 0.951511,-1.111028 1.833057,-1.861041 0.881547,-0.750014 1.995373,-1.72951 1.113828,-0.979496 1.768689,-1.894626 0.654864,-0.915128 1.805072,-1.743503 1.150209,-0.828374 2.717403,-0.993488 1.567193,-0.165116 2.501913,0.5793 0.934718,0.744418 1.813467,1.59518 0.878747,0.850764 1.872237,2.070935 0.993489,1.220173 1.88623,2.325604 0.892741,1.105432 1.914214,1.877834 1.021476,0.772402 2.188475,1.292933 1.167,0.520534 2.27523,1.511224 1.108229,0.990691 1.903021,1.964589 0.794791,0.9739 1.791078,1.572791 0.996288,0.598893 1.785482,1.508424 0.789194,0.909532 1.7491,1.830258 0.959906,0.920727 1.125022,1.390885 0.165111,0.470159 0.1875,0.990691 0.02239,0.520532 -0.137129,0.996288 -0.159518,0.475755 -0.450567,0.901136 -0.291051,0.425381 -0.713634,0.710834 -0.422583,0.285454 -0.903935,0.444971 -0.481351,0.15952 -0.999086,0.134331 -0.517734,-0.02518 -0.987891,-0.1931 -0.470159,-0.167914 -0.87595,-0.498143 -0.405791,-0.330231 -0.671655,-0.750015 -0.265862,-0.419784 -0.394597,-0.926324 -0.128735,-0.506539 -0.08115,-1.004683 0.04757,-0.498143 0.246274,-0.976697 0.198697,-0.478554 0.545718,-0.847965 0.347022,-0.36941 0.786396,-0.629674 0.439374,-0.260268 0.945913,-0.344224 0.506544,-0.08394 1.007482,-0.02518 0.500941,0.05877 0.962705,0.299446 0.461762,0.240677 0.817179,0.587697 0.355418,0.347022 0.584899,0.819979 0.229482,0.472956 0.293849,0.965503 0.06437,0.492546 -0.03079,1.007482 -0.09515,0.514935 -0.349821,0.943114 -0.254669,0.428176 -0.632475,0.783592 -0.377806,0.355418 -0.850762,0.540123 -0.472956,0.184704 -0.979497,0.240674 -0.506538,0.05597 -1.004683,-0.08396 -0.498144,-0.139928 -0.923524,-0.400195 -0.425381,-0.260266 -0.747217,-0.674452 -0.321833,-0.414188 -0.319035,-0.400195 0.0028,0.01399 -0.333028,-0.296648 -0.335829,-0.310641 -0.965504,-1.225769 -0.629676,-0.915129 -1.676338,-1.564395 -1.046662,-0.649266 -1.763092,-1.603576 -0.716432,-0.954308 -2.020561,-2.028955 -1.30413,-1.074649 -2.35079,-1.514022 -1.046662,-0.439374 -1.883432,-1.259352 -0.836769,-0.819979 -2.040151,-1.953394 -1.203381,-1.133417 -2.026156,-2.107316 -0.822778,-0.9739 -1.670741,-1.975786 -0.847965,-1.001882 -1.623165,-1.858242 -0.775203,-0.856361 0.573705,-0.263065 1.348905,0.593294 2.314409,-0.1931 0.965503,-0.786396 -0.184705,0.195899 -1.150209,0.982294 -1.933805,1.76589 -0.783596,0.783594 -1.698728,1.883428 -0.915127,1.099837 -1.939401,1.698728 -1.024273,0.598892 -1.78828,1.522417 -0.764006,0.923525 -1.779884,1.841453 -1.015877,0.917927 -1.819064,1.771489 -0.803186,0.853561 -1.533612,1.701524 -0.730424,0.847964 -1.553201,1.785482 -0.822776,0.937517 -1.7938763,1.620367 -0.9711001,0.682848 -1.9338051,1.452453 -0.962705,0.769604 -1.9785821,1.404875 -1.0158779,0.635275 -1.609172,1.021476 -0.593295,0.3862 -0.778,0.481353 -0.1847051,0.09515 -0.4113887,0.165115 -0.2266758,0.06996 -0.4365689,0.05877 -0.2098919,-0.01119 -0.442172,-0.04478 -0.232281,-0.03358 -0.414187,-0.151122 -0.1819069,-0.11754 -0.36941,-0.246273 -0.1875028,-0.128734 -0.2966479,-0.324632 -0.10914295,-0.1959 -0.2126899,-0.389 -0.10354718,-0.193103 -0.11194211,-0.42818 -0.0084,-0.235079 -0.0084,-0.442172 -1e-8,-0.207095 0.10074804,-0.428181 0.10074693,-0.221086 0.19869801,-0.397396 0.0979499,-0.176308 0.28825083,-0.33303 z"
       fill="var(--ifm-text-color)"
       stroke="none"
       id="path1"
       style="overflow:visible;stroke-width:0.279856" />
  </g>
</svg>
