<?xml version="1.0" encoding="UTF-8" standalone="no"?>
<!-- Created with Inkscape (http://www.inkscape.org/) -->

<svg
   width="48"
   height="48"
   viewBox="0 0 48 48"
   version="1.1"
   id="svg1"
   inkscape:version="1.4 (86a8ad7, 2024-10-11)"
   sodipodi:docname="close.svg"
   xmlns:inkscape="http://www.inkscape.org/namespaces/inkscape"
   xmlns:sodipodi="http://sodipodi.sourceforge.net/DTD/sodipodi-0.dtd"
   xmlns="http://www.w3.org/2000/svg"
   xmlns:svg="http://www.w3.org/2000/svg">
  <sodipodi:namedview
     id="namedview1"
     pagecolor="#ffffff"
     bordercolor="#000000"
     borderopacity="0.25"
     inkscape:showpageshadow="2"
     inkscape:pageopacity="0.0"
     inkscape:pagecheckerboard="0"
     inkscape:deskcolor="#d1d1d1"
     inkscape:document-units="px"
     inkscape:zoom="2.9720582"
     inkscape:cx="15.309256"
     inkscape:cy="39.198425"
     inkscape:window-width="1920"
     inkscape:window-height="1009"
     inkscape:window-x="1912"
     inkscape:window-y="-8"
     inkscape:window-maximized="1"
     inkscape:current-layer="layer1" />
  <defs
     id="defs1" />
  <g
     inkscape:label="Layer 1"
     inkscape:groupmode="layer"
     id="layer1">
    <g
       id="g1"
       transform="matrix(0.33046994,0,0,0.33046994,28.092695,-4.8685047)">
      <path
         d="m 51.77439,28.23714 q -3.26,3.62 -6.72,7.49 -3.46,3.87 -6.59,7.35 -3.13,3.48 -5.8,7.18 -2.67,3.7 -5.52,6.83 -2.85,3.13 -6.17,5.81 -3.32,2.68 -6.63,6.53 -3.31,3.85 -6.38,7.59 -3.07,3.74 -6.57,7.14 -3.5,3.4 -6.24,7.08 -2.74,3.68 -5.88,6.64 -3.14,2.96 -5.39,6.58 -2.25,3.62 -5.36,6.46 -3.11,2.84 -5.95,5.84 -2.84,3 -6.31,6.55 -3.47,3.55 -6.34,7 -2.87,3.45 -6.09,6.55 -3.22,3.1 -6.57,6.43 -3.35,3.33 -7.33,7.39 -3.98,4.06 -4.67,4.88 -0.69,0.82 -2.39,1.45 -1.7,0.63 -3.53,0.66 -1.83,0.03 -3.56,-0.51 -1.73,-0.54 -3.21,-1.61 -1.48,-1.07 -2.53,-2.56 -1.05,-1.49 -1.57,-3.22 -0.52,-1.73 -0.47,-3.57 0.05,-1.84 0.7,-3.52 0.65,-1.68 1.79,-3.12 1.14,-1.44 2.69,-2.38 1.55,-0.94 3.31,-1.4 1.76,-0.46 3.58,-0.27 1.82,0.19 3.48,0.89 1.66,0.7 3.01,1.95 1.35,1.25 2.24,2.81 0.89,1.56 1.22,3.38 0.33,1.82 0.07,3.6 -0.26,1.78 -1.07,3.42 -0.81,1.64 -2.12,2.91 -1.31,1.27 -2.93,2.08 -1.62,0.81 -3.44,1.03 -1.82,0.22 -3.59,-0.12 -1.77,-0.34 -3.36,-1.26 -1.59,-0.92 -2.79,-2.27 -1.2,-1.35 -1.92,-3.04 -0.72,-1.69 -0.84,-3.49 -0.12,-1.8 0.31,-3.58 0.43,-1.78 1.44,-3.29 1.01,-1.51 2.42,-2.66 1.41,-1.15 1.42,-1.13 0.01,0.02 0.83,-0.26 0.82,-0.28 4.03,-3.35 3.21,-3.07 6.46,-6.3 3.25,-3.23 6.09,-6.87 2.84,-3.64 6.07,-6.53 3.23,-2.89 7.29,-6.8 4.06,-3.91 7.07,-6.98 3.01,-3.07 5.63,-6.5 2.62,-3.43 5.61,-6.44 2.99,-3.01 6.63,-6.96 3.64,-3.95 7.29,-7.91 3.65,-3.96 8.01,-8.41 4.36,-4.45 8.44,-7.96 4.08,-3.51 7.37,-6.65 3.29,-3.14 6.45,-6.06 3.16,-2.92 6.19,-6.17 3.03,-3.25 6.43,-5.83 3.4,-2.58 6.34,-5.57 2.94,-2.99 4.76,-4.65 1.82,-1.66 2.44,-2.14 0.62,-0.48 1.36,-0.81 0.74,-0.33 1.51,-0.48 0.77,-0.15 1.58,-0.09 0.81,0.06 1.55,0.28 0.74,0.22 1.45,0.65 0.71,0.43 1.24,0.98 0.53,0.55 0.98,1.25 0.45,0.7 0.65,1.44 0.2,0.74 0.28,1.55 0.08,0.81 -0.1,1.58 -0.18,0.77 -0.47,1.51 -0.29,0.74 -0.81,1.36 z"
         fill="#000000"
         stroke="none"
         id="path1"
         style="overflow:visible" />
      <path
         d="m -73.09561,18.25714 q 4.42,1.11 7.88,3.75 3.46,2.64 6.3,6.25 2.84,3.61 6.07,6.47 3.23,2.86 7.32,6.52 4.09,3.66 7.09,7.05 3,3.39 6.39,6.47 3.39,3.08 6.89,5.75 3.5,2.67 7.39,6.49 3.89,3.82 7.48,7.3 3.59,3.48 6.75,7.45 3.16,3.97 6.14,6.93 2.98,2.96 6.17,6.37 3.19,3.41 6.03,6.35 2.84,2.94 7.25,6.65 4.41,3.71 7.82,6.9 3.41,3.19 7.23,7.24 3.82,4.05 6.89,7.13 3.07,3.08 5.29,5.21 2.22,2.13 3.62,3.22 1.4,1.09 2.46,2.64 1.06,1.55 1.48,3.28 0.42,1.73 0.37,3.58 -0.05,1.85 -0.8,3.51 -0.75,1.66 -1.88,3.07 -1.13,1.41 -2.77,2.31 -1.64,0.9 -3.35,1.31 -1.71,0.41 -3.6,0.16 -1.89,-0.25 -3.46,-0.99 -1.57,-0.74 -2.96,-2.04 -1.39,-1.3 -2.16,-2.88 -0.77,-1.58 -1.12,-3.42 -0.35,-1.84 0.02,-3.61 0.37,-1.77 1.18,-3.4 0.81,-1.63 2.2,-2.85 1.39,-1.22 3,-2 1.61,-0.78 3.47,-0.93 1.86,-0.15 3.6,0.22 1.74,0.37 3.33,1.36 1.59,0.99 2.73,2.35 1.14,1.36 1.83,3.1 0.69,1.74 0.75,3.52 0.06,1.78 -0.42,3.58 -0.48,1.8 -1.54,3.26 -1.06,1.46 -2.5,2.59 -1.44,1.13 -3.19,1.66 -1.75,0.53 -3.56,0.56 -1.81,0.03 -3.55,-0.61 -1.74,-0.64 -1.72,-0.6 0.02,0.04 -2.96,-2.91 -2.98,-2.95 -5.5,-6.05 -2.52,-3.1 -6.75,-6.81 -4.23,-3.71 -7.89,-7.51 -3.66,-3.8 -7.08,-7.2 -3.42,-3.4 -6.64,-6.79 -3.22,-3.39 -6.71,-6.2 -3.49,-2.81 -5.84,-6.43 -2.35,-3.62 -6.02,-7.14 -3.67,-3.52 -5.99,-7.16 -2.32,-3.64 -6.23,-7.77 -3.91,-4.13 -7.49,-7.37 -3.58,-3.24 -6.39,-6.36 -2.81,-3.12 -5.69,-6.71 -2.88,-3.59 -6.02,-6.89 -3.14,-3.3 -6.67,-6.87 -3.53,-3.57 -6.21,-6.93 -2.68,-3.36 -5.2,-7.33 -2.52,-3.97 -4.35,-4.58 -1.83,-0.61 -2.54,-0.91 -0.71,-0.3 -1.37,-0.78 -0.66,-0.48 -1.13,-1.08 -0.47,-0.6 -0.85,-1.33 -0.38,-0.73 -0.5,-1.48 -0.12,-0.75 -0.13,-1.57 -0.01,-0.82 0.24,-1.55 0.25,-0.73 0.61,-1.45 0.36,-0.72 0.94,-1.26 0.58,-0.54 1.22,-1 0.64,-0.46 1.41,-0.67 0.77,-0.21 1.54,-0.32 0.77,-0.11 1.57,0.05 z"
         fill="#000000"
         stroke="none"
         id="path2"
         style="overflow:visible" />
    </g>
  </g>
</svg>
