<?xml version="1.0" encoding="UTF-8" standalone="no"?>
<svg
   viewBox="774 216 393.5 397.5"
   style="height: 397.5px; width: 393.5px; position: absolute; overflow: visible;"
   version="1.1"
   id="svg1"
   sodipodi:docname="code.svg"
   inkscape:version="1.4 (86a8ad7, 2024-10-11)"
   xmlns:inkscape="http://www.inkscape.org/namespaces/inkscape"
   xmlns:sodipodi="http://sodipodi.sourceforge.net/DTD/sodipodi-0.dtd"
   xmlns="http://www.w3.org/2000/svg"
   xmlns:svg="http://www.w3.org/2000/svg">
  <defs
     id="defs1" />
  <sodipodi:namedview
     id="namedview1"
     pagecolor="#ffffff"
     bordercolor="#000000"
     borderopacity="0.25"
     inkscape:showpageshadow="2"
     inkscape:pageopacity="0.0"
     inkscape:pagecheckerboard="0"
     inkscape:deskcolor="#d1d1d1"
     inkscape:zoom="1.0150943"
     inkscape:cx="269.43309"
     inkscape:cy="351.19888"
     inkscape:window-width="1920"
     inkscape:window-height="1009"
     inkscape:window-x="1912"
     inkscape:window-y="-8"
     inkscape:window-maximized="1"
     inkscape:current-layer="svg1" />
  <g
     id="g2"
     transform="translate(-2.0557948,-9.9647197)"
     style="overflow:visible">
    <path
       d="m 879.01133,353.17327 q -4.96879,6.28582 -10.88046,11.76348 -5.91168,5.47765 -12.3771,10.98523 -6.46542,5.50758 -10.56617,9.96752 -4.10076,4.45994 -8.90493,8.9199 -4.80417,4.45994 -9.44371,9.36888 -4.63954,4.90892 -8.97975,9.5335 -4.34022,4.62457 -9.21921,11.0002 -4.87901,6.37562 -3.32251,0.58368 1.55649,-5.79194 7.81238,-3.44224 6.2559,2.3497 10.08726,7.1389 3.83136,4.78921 8.4709,9.20425 4.63954,4.41505 10.10223,9.12941 5.46268,4.71437 11.01515,9.35392 5.55249,4.63954 11.43423,9.00969 5.88174,4.37014 10.29679,6.97427 4.41504,2.60413 6.6899,3.74156 2.27488,1.13743 4.01097,2.97829 1.73608,1.84085 2.84358,4.10075 1.1075,2.25991 1.3769,4.80417 0.26939,2.54427 -0.20953,4.98376 -0.47891,2.4395 -1.79595,4.65451 -1.31703,2.215 -3.18781,3.84633 -1.87078,1.63132 -4.25042,2.60412 -2.37963,0.97281 -4.86403,1.13744 -2.4844,0.16463 -4.9688,-0.49388 -2.48439,-0.65852 -4.54974,-2.05038 -2.06534,-1.39186 -3.66674,-3.39734 -1.60139,-2.00548 -2.37963,-4.38512 -0.77824,-2.37963 -0.86804,-4.90893 -0.0898,-2.5293 0.76327,-4.93886 0.85308,-2.40958 2.28985,-4.43002 1.43675,-2.02044 3.59189,-3.47216 2.15515,-1.45173 4.50485,-2.14018 2.3497,-0.68845 4.95383,-0.59865 2.60412,0.0898 4.89397,1.03267 2.28984,0.94287 4.29531,2.5293 2.00548,1.58642 3.27761,3.75653 1.27213,2.17011 1.88576,4.62458 0.61361,2.45446 0.32925,4.98376 -0.28435,2.52929 -1.2871,4.81913 -1.00274,2.28984 -2.75379,4.16062 -1.75105,1.87078 -3.95109,3.06808 -2.20004,1.1973 -4.71437,1.63132 -2.51434,0.43402 -4.98377,0.0599 -2.46943,-0.37416 -2.49936,-0.38912 -0.0299,-0.015 -5.38785,-2.6191 -5.35792,-2.60412 -11.06007,-6.48038 -5.70214,-3.87627 -10.7757,-8.32124 -5.07356,-4.44499 -11.07503,-8.90493 -6.00147,-4.45994 -13.48459,-11.56891 -7.48314,-7.10897 -11.64376,-12.22743 -4.16062,-5.11846 -8.47089,-9.90767 -4.31029,-4.7892 -10.23692,-9.95256 -5.92664,-5.16335 -5.50759,-13.11043 0.41906,-7.94708 4.16062,-12.97574 3.74156,-5.02868 9.4886,-11.56893 5.74705,-6.54025 10.77571,-10.61108 5.02867,-4.07081 10.37162,-8.86001 5.34295,-4.78921 10.70088,-9.03963 5.35791,-4.25041 10.92535,-8.44097 5.56745,-4.19055 12.70636,-9.54846 7.1389,-5.35792 9.81787,-8.24641 2.67895,-2.88848 3.60686,-3.7266 0.92791,-0.83811 2.00548,-1.43676 1.07757,-0.59864 2.30481,-0.91294 1.22723,-0.31429 2.45446,-0.34423 1.22723,-0.0299 2.45446,0.25444 1.22724,0.28435 2.33475,0.83811 1.1075,0.55374 2.06534,1.37689 0.95783,0.82314 1.66125,1.82588 0.70341,1.00275 1.18234,2.17011 0.47892,1.16737 0.64354,2.3946 0.16463,1.22723 0.0299,2.4844 -0.13469,1.25716 -0.55374,2.40956 -0.41906,1.1524 -1.10751,2.20004 z"
       fill="var(--ifm-text-color)"
       stroke="none"
       id="path1"
       style="stroke-width:1.49662" />
    <path
       d="m 1032.4903,282.27812 q -1.4368,10.37161 -2.2,16.68737 -0.7633,6.31576 -2.3348,13.57439 -1.5714,7.25864 -2.23,14.48734 -0.6584,7.22871 -2.7537,14.65197 -2.0953,7.42326 -4.7443,15.40027 -2.6491,7.97702 -5.5525,15.49008 -2.9034,7.51306 -5.298,14.5472 -2.3947,7.03413 -5.792,13.02064 -3.3974,5.98651 -6.39063,12.90091 -2.99322,6.91442 -5.89674,12.31723 -2.9034,5.40282 -5.34297,12.66146 -2.43944,7.25864 -5.14835,13.1703 -2.70891,5.91167 -4.96882,12.94581 -2.25992,7.03415 -5.13338,14.56217 -2.87359,7.52803 -5.74705,13.58936 -2.87352,6.06134 -5.76201,12.66145 -2.88848,6.60012 -5.52255,12.69139 -2.63405,6.09126 -5.61234,12.24239 -2.97828,6.15114 -5.35793,11.67369 -2.37963,5.52254 -3.41229,11.47911 -1.03268,5.95657 -1.78099,9.00969 -0.74831,3.05311 -1.3769,5.55248 -0.62858,2.49936 -2.11024,4.59465 -1.48166,2.09526 -3.47218,3.68169 -1.9905,1.58642 -4.45994,2.37964 -2.46943,0.79321 -4.99872,0.83811 -2.5293,0.0449 -4.99873,-0.80818 -2.46943,-0.85308 -4.47491,-2.3497 -2.00549,-1.49663 -3.48714,-3.66674 -1.48167,-2.17011 -2.14018,-4.57967 -0.65851,-2.40957 -0.56872,-5.04363 0.0898,-2.63407 1.07758,-4.93886 0.98776,-2.3048 2.58916,-4.34022 1.60139,-2.03541 3.8613,-3.29258 2.2599,-1.25716 4.68443,-1.88574 2.42454,-0.62859 5.05859,-0.28437 2.63407,0.34424 4.87901,1.332 2.24493,0.98778 4.20552,2.82862 1.96057,1.84086 3.06807,4.02593 1.10751,2.18508 1.63132,4.78921 0.52383,2.60412 0.015,5.05858 -0.50884,2.45448 -1.60139,4.80418 -1.09253,2.34969 -3.05312,4.04088 -1.96057,1.69119 -4.19055,2.8436 -2.22996,1.1524 -4.86403,1.37689 -2.63406,0.2245 -5.05859,-0.26939 -2.42453,-0.49389 -4.69941,-1.85582 -2.27486,-1.36192 -3.87625,-3.26264 -1.6014,-1.90071 -2.6191,-4.32526 -1.01771,-2.42453 -1.09253,-4.95383 -0.0749,-2.52929 -0.14967,-2.54426 -0.0748,-0.015 1.332,-7.63278 1.40682,-7.61783 4.22049,-14.9064 2.81365,-7.28857 4.90892,-13.12541 2.09528,-5.83684 4.60961,-11.26959 2.51433,-5.43275 5.20825,-11.31449 2.69393,-5.88174 5.62732,-12.60159 2.93339,-6.71985 6.43549,-14.17304 3.5021,-7.45319 6.13616,-14.48733 2.63407,-7.03414 5.0137,-13.4397 2.37963,-6.40556 5.55248,-12.09273 3.17285,-5.68719 7.06408,-14.87647 3.89121,-9.18928 6.52525,-14.57713 2.63405,-5.38785 5.46272,-10.85053 2.82868,-5.46269 7.24372,-14.05331 4.41504,-8.59064 7.30348,-13.94856 2.88843,-5.35791 4.5348,-11.68864 1.64626,-6.33073 5.26812,-15.62478 3.62185,-9.29404 5.47758,-16.17852 1.8558,-6.88448 3.8164,-13.55943 1.9607,-6.67495 3.5021,-14.42746 1.5416,-7.75253 2.6041,-12.93086 1.0627,-5.17831 1.362,-6.33071 0.2994,-1.15241 0.9728,-2.25991 0.6736,-1.1075 1.4967,-1.97556 0.8231,-0.86803 1.9156,-1.55648 1.0926,-0.68845 2.23,-1.04764 1.1375,-0.35918 2.4246,-0.47892 1.287,-0.11976 2.4544,0.10479 1.1674,0.2245 2.3797,0.70341 1.2122,0.47892 2.1251,1.24221 0.913,0.76328 1.781,1.72111 0.8681,0.95784 1.3021,2.08031 0.434,1.12247 0.7782,2.34971 0.3443,1.22723 0.1796,2.45446 z"
       fill="var(--ifm-text-color)"
       stroke="none"
       id="path2"
       style="stroke-width:1.49662" />
    <path
       d="m 1075.653,346.33369 q 8.7404,4.93887 15.5799,10.38658 6.8397,5.44772 11.4342,9.74304 4.5947,4.29531 10.2519,9.72806 5.6573,5.43275 10.9703,9.05459 5.313,3.62183 12.2425,9.05458 6.9293,5.43275 12.1525,9.78794 5.2232,4.35517 11.9131,13.91862 6.69,9.56343 1.5117,17.85474 -5.1784,8.2913 -12.422,12.37709 -7.2437,4.08579 -12.6316,7.58789 -5.3878,3.50211 -10.2069,7.33347 -4.8192,3.83136 -8.5458,8.69539 -3.7266,4.86403 -7.9021,9.47364 -4.1757,4.6096 -7.5879,9.96753 -3.4123,5.35792 -4.46,6.45045 -1.0477,1.09253 -2.1402,3.29258 -1.0925,2.20004 -2.7687,4.01096 -1.6762,1.81091 -3.9062,2.93339 -2.23,1.12246 -4.6396,1.51158 -2.4095,0.38913 -4.879,-0.0299 -2.4694,-0.41905 -4.6096,-1.60139 -2.1401,-1.18233 -3.8612,-2.97828 -1.7211,-1.79596 -2.7089,-4.05587 -0.9878,-2.25989 -1.2572,-4.71436 -0.2694,-2.45446 0.2993,-4.86404 0.5688,-2.40956 1.8409,-4.51981 1.2721,-2.11024 3.1878,-3.69666 1.9156,-1.58642 4.1905,-2.4844 2.2749,-0.89797 4.7742,-1.00274 2.4995,-0.10479 4.8491,0.55376 2.3497,0.65852 4.415,2.09527 2.0655,1.43677 3.5171,3.38238 1.4518,1.94561 2.2449,4.32525 0.7932,2.37963 0.7484,4.81913 -0.045,2.43949 -0.8232,4.80417 -0.7782,2.36466 -2.3197,4.29531 -1.5416,1.93065 -3.562,3.32252 -2.0205,1.39185 -4.445,2.02044 -2.4245,0.62858 -4.849,0.49389 -2.4246,-0.1347 -4.7593,-1.09255 -2.3347,-0.95784 -4.1606,-2.54426 -1.8259,-1.58642 -3.128,-3.74156 -1.302,-2.15515 -1.781,-4.54974 -0.4789,-2.3946 -0.2244,-4.879 0.2544,-2.4844 0.2843,-2.45448 0.029,0.0299 3.3225,-5.4926 3.2926,-5.52255 8.3213,-11.34443 5.0286,-5.82187 9.1443,-10.98523 4.1158,-5.16336 9.4588,-11.38932 5.3428,-6.22596 11.0451,-10.641 5.7021,-4.41505 11.9579,-8.56071 6.2559,-4.14565 13.7241,-8.48587 7.4682,-4.3402 6.3457,2.6191 -1.1224,6.95931 -6.4654,1.49662 -5.343,-5.46268 -10.2669,-10.17705 -4.9239,-4.71437 -11.8233,-9.63826 -6.8995,-4.92391 -12.5567,-10.55122 -5.6572,-5.62731 -9.5934,-10.29679 -3.9361,-4.66946 -10.4016,-10.88045 -6.4653,-6.21101 -10.7007,-8.875 -4.2356,-2.66399 -5.2383,-3.48714 -1.0027,-0.82314 -1.796,-1.78098 -0.7932,-0.95785 -1.317,-2.17011 -0.5237,-1.21227 -0.7633,-2.40957 -0.2394,-1.1973 -0.1645,-2.5293 0.075,-1.33199 0.449,-2.49936 0.3741,-1.16737 1.0326,-2.3048 0.6585,-1.13744 1.5565,-2.00548 0.898,-0.86805 1.9905,-1.57146 1.0926,-0.70341 2.3048,-1.04763 1.2122,-0.34422 2.4843,-0.46396 1.2722,-0.11977 2.5294,0.14966 1.2572,0.2694 2.4245,0.74832 z"
       fill="var(--ifm-text-color)"
       stroke="none"
       id="path3"
       style="stroke-width:1.49662" />
  </g>
</svg>
