<?xml version="1.0" encoding="UTF-8" standalone="no"?>
<!-- Created with Inkscape (http://www.inkscape.org/) -->

<svg
   width="48"
   height="48"
   viewBox="0 0 48 48"
   version="1.1"
   id="svg1"
   inkscape:version="1.4 (86a8ad7, 2024-10-11)"
   sodipodi:docname="cross-device.svg"
   xmlns:inkscape="http://www.inkscape.org/namespaces/inkscape"
   xmlns:sodipodi="http://sodipodi.sourceforge.net/DTD/sodipodi-0.dtd"
   xmlns="http://www.w3.org/2000/svg"
   xmlns:svg="http://www.w3.org/2000/svg">
  <sodipodi:namedview
     id="namedview1"
     pagecolor="#ffffff"
     bordercolor="#000000"
     borderopacity="0.25"
     inkscape:showpageshadow="2"
     inkscape:pageopacity="0.0"
     inkscape:pagecheckerboard="0"
     inkscape:deskcolor="#d1d1d1"
     inkscape:document-units="px"
     inkscape:zoom="6.916644"
     inkscape:cx="-4.7711"
     inkscape:cy="36.650723"
     inkscape:window-width="1920"
     inkscape:window-height="1111"
     inkscape:window-x="-9"
     inkscape:window-y="-9"
     inkscape:window-maximized="1"
     inkscape:current-layer="layer1" />
  <defs
     id="defs1" />
  <g
     inkscape:label="Layer 1"
     inkscape:groupmode="layer"
     id="layer1">
    <g
       id="g1"
       transform="matrix(0.19873465,0,0,0.22907393,10.77351,17.798196)">
      <path
         d="m 70.58752,49.80125 q -5.17,0.24 -9.68,0.54 -4.51,0.3 -9.24,0.59 -4.73,0.29 -9.47,0.53 -4.74,0.24 -9.4,-0.07 -4.66,-0.31 -8.87,-0.16 -4.21,0.15 -8.62,0.27 -4.41,0.12 -8.71,0.26 -4.3,0.14 -9.07,0.23 -4.77,0.09 -8.93,0.22 -4.16,0.13 -10.3,-1.12 -6.14,-1.25 -9.64,-4.88 -3.5,-3.63 -5.92,-7.19 -2.42,-3.56 -4.32,-7.44 -1.9,-3.88 -3.5,-8.6 -1.6,-4.72 -2.67,-8.75 -1.07,-4.03 -1.21,-8.32 -0.14,-4.29 -0.74,-8.8 -0.6,-4.51 0.01,-10.14 0.61,-5.63 0.98,-9.78 0.37,-4.15 2.15,-9.57 1.78,-5.42 2.48,-10.82 0.7,-5.4 2.1,-9.19 1.4,-3.79 3.63,-7.49 2.23,-3.7 6.92,-6.31 4.69,-2.61 8.79,-3.14 4.1,-0.53 8.51,-1.58 4.41,-1.05 9.24,-1.55 4.83,-0.5 9.18,-0.53 4.35,-0.03 8.85,0.02 4.5,0.05 8.67,0.03 4.17,-0.02 9.16,-0.01 4.99,0.01 9.31,0 4.32,-0.01 9.26,0.49 4.94,0.5 8.93,0.93 3.99,0.43 7.95,1.07 3.96,0.64 8.18,1.12 4.22,0.48 8.57,0.53 4.35,0.05 8.79,0.01 4.44,-0.04 8.56,-0.04 4.12,0 8.2,0 4.08,0 10.53,3.19 6.45,3.19 10.06,6.87 3.61,3.68 5.75,7.5 2.14,3.82 2.9,7.98 0.76,4.16 0.82,9.33 0.06,5.17 -0.25,6.91 -0.31,1.74 -1.14,3.4 -0.83,1.66 -2.18,2.86 -1.35,1.2 -2.97,2.01 -1.62,0.81 -3.45,0.96 -1.83,0.15 -3.58,-0.19 -1.75,-0.34 -3.34,-1.33 -1.59,-0.99 -2.73,-2.32 -1.14,-1.33 -1.85,-3.08 -0.71,-1.75 -0.77,-3.5 -0.06,-1.75 0.39,-3.57 0.45,-1.82 1.5,-3.25 1.05,-1.43 2.47,-2.61 1.42,-1.18 3.17,-1.68 1.75,-0.5 3.54,-0.58 1.79,-0.08 3.54,0.58 1.75,0.66 3.17,1.69 1.42,1.03 2.47,2.6 1.05,1.57 1.5,3.26 0.45,1.69 0.39,3.56 -0.06,1.87 -0.77,3.51 -0.71,1.64 -1.85,3.07 -1.14,1.43 -2.74,2.32 -1.6,0.89 -3.33,1.33 -1.73,0.44 -3.58,0.19 -1.85,-0.25 -3.46,-0.96 -1.61,-0.71 -2.97,-2.01 -1.36,-1.3 -2.17,-2.86 -0.81,-1.56 -1.14,-3.4 -0.33,-1.84 -0.29,-1.79 0.04,0.05 0.04,-5.09 0,-5.14 -2.19,-9.02 -2.19,-3.88 -6.55,-3.9 -4.36,-0.02 -9.12,-0.01 -4.76,0.01 -9.33,-0.03 -4.57,-0.04 -8.69,0 -4.12,0.04 -8.95,-0.67 -4.83,-0.71 -11.1,-1.46 -6.27,-0.75 -11.09,-1.24 -4.82,-0.49 -9.1,-0.48 -4.28,0.01 -9.31,0 -5.03,-0.01 -9.16,-0.01 -4.13,0 -8.67,0.03 -4.54,0.03 -9.42,-0.48 -4.88,-0.51 -9.46,0.8 -4.58,1.31 -10.67,2.75 -6.09,1.44 -6.74,5.66 -0.65,4.22 -1.98,9.7 -1.33,5.48 -1.79,10.81 -0.46,5.33 -1.01,9.64 -0.55,4.31 -0.18,8.3 0.37,3.99 0.24,8.76 -0.13,4.77 1.43,9 1.56,4.23 2.06,8.58 0.5,4.35 4.64,6.79 4.14,2.44 8.34,2.51 4.2,0.07 8.93,0.22 4.73,0.15 9.07,0.23 4.34,0.08 8.72,0.26 4.38,0.18 8.69,0.29 4.31,0.11 9.01,0.83 4.7,0.72 9.32,0.92 4.62,0.2 9.33,0.53 4.71,0.33 9.24,0.59 4.53,0.26 7.09,0.42 2.56,0.16 3.39,0.22 0.83,0.06 1.54,0.38 0.71,0.32 1.41,0.74 0.7,0.42 1.19,1.06 0.49,0.64 0.9,1.3 0.41,0.66 0.57,1.49 0.16,0.83 0.19,1.58 0.03,0.75 -0.19,1.58 -0.22,0.83 -0.57,1.49 -0.35,0.66 -0.9,1.3 -0.55,0.64 -1.19,1.06 -0.64,0.42 -1.41,0.74 -0.77,0.32 -1.55,0.38 z"
         fill="#000000"
         stroke="none"
         id="path1"
         style="overflow:visible" />
      <path
         d="m 53.15752,42.84125 q 1.38,5.7 2.45,9.64 1.07,3.94 1.99,8.35 0.92,4.41 1.15,8.42 0.23,4.01 0.58,9.15 0.35,5.14 -2.85,8.67 -3.2,3.53 -7.42,4.36 -4.22,0.83 -8.47,1.43 -4.25,0.6 -8.28,0.8 -4.03,0.2 -8.42,0.31 -4.39,0.11 -6.18,0.46 -1.79,0.35 -2.96,0.19 -1.17,-0.16 -2.33,-0.57 -1.16,-0.41 -2.13,-1.12 -0.97,-0.71 -1.8,-1.59 -0.83,-0.88 -1.36,-1.98 -0.53,-1.1 -0.86,-2.25 -0.33,-1.15 -0.29,-2.39 0.04,-1.24 0.29,-2.38 0.25,-1.14 0.86,-2.25 0.61,-1.11 1.36,-1.98 0.75,-0.87 1.8,-1.59 1.05,-0.72 2.13,-1.12 1.08,-0.4 2.33,-0.57 1.25,-0.17 5.21,0.39 3.96,0.56 8.19,0.69 4.23,0.13 8.3,0.11 4.07,-0.02 9.17,-1.08 5.1,-1.06 9.09,-1.15 3.99,-0.09 8.18,0.32 4.19,0.41 8.63,2.63 4.44,2.22 4.8,0.95 0.36,-1.27 2.03,-0.97 1.67,0.3 3.23,1.11 1.56,0.81 2.72,2.08 1.16,1.27 1.91,2.84 0.75,1.57 0.9,3.3 0.15,1.73 -0.2,3.42 -0.35,1.69 -1.29,3.17 -0.94,1.48 -2.22,2.6 -1.28,1.12 -2.94,1.75 -1.66,0.63 -3.35,0.72 -1.69,0.09 -3.39,-0.39 -1.7,-0.48 -3.1,-1.45 -1.4,-0.97 -2.48,-2.36 -1.08,-1.39 -1.58,-3.03 -0.5,-1.64 -0.54,-3.38 -0.04,-1.74 0.57,-3.37 0.61,-1.63 1.61,-3.02 1,-1.39 2.5,-2.34 1.5,-0.95 3.11,-1.42 1.61,-0.47 3.4,-0.35 1.79,0.12 3.34,0.75 1.55,0.63 2.92,1.77 1.37,1.14 2.2,2.62 0.83,1.48 1.26,3.19 0.43,1.71 0.17,3.41 -0.26,1.7 -0.94,3.29 -0.68,1.59 -1.93,2.83 -1.25,1.24 -2.73,2.05 -1.48,0.81 -3.25,1.08 -1.77,0.27 -1.71,0.27 0.06,0 -2.48,-0.08 -2.54,-0.08 -7.06,-1.11 -4.52,-1.03 -9.12,-1.94 -4.6,-0.91 -9.45,0.35 -4.85,1.26 -9.06,1.2 -4.21,-0.06 -8.74,-0.2 -4.53,-0.14 -9.64,-0.73 -5.11,-0.59 -6.24,-0.73 -1.13,-0.14 -2.33,-0.57 -1.2,-0.43 -2.13,-1.12 -0.93,-0.69 -1.8,-1.59 -0.87,-0.9 -1.36,-1.98 -0.49,-1.08 -0.86,-2.25 -0.37,-1.17 -0.29,-2.38 0.08,-1.21 0.29,-2.39 0.21,-1.18 0.86,-2.25 0.65,-1.07 1.36,-1.98 0.71,-0.91 1.8,-1.59 1.09,-0.68 2.13,-1.12 1.04,-0.44 2.33,-0.57 1.29,-0.13 0.11,0.19 -1.18,0.32 4.18,-0.17 5.36,-0.49 9.3,-0.38 3.94,0.11 8.23,-0.23 4.29,-0.34 8.33,-0.6 4.04,-0.26 1.46,3.27 -2.58,3.53 -3.3,-2.48 -0.72,-6.01 -0.79,-10.43 -0.07,-4.42 -0.76,-8.58 -0.69,-4.16 -1.03,-7.06 -0.34,-2.9 -0.52,-3.7 -0.18,-0.8 0.07,-1.6 0.25,-0.8 0.45,-1.54 0.2,-0.74 0.81,-1.39 0.61,-0.65 1.11,-1.15 0.5,-0.5 1.36,-0.85 0.86,-0.35 1.53,-0.5 0.67,-0.15 1.59,-0.13 0.92,0.02 1.59,0.27 0.67,0.25 1.47,0.63 0.8,0.38 1.28,0.97 0.48,0.59 1.01,1.25 0.53,0.66 0.68,1.45 z"
         fill="#000000"
         stroke="none"
         id="path2"
         style="overflow:visible" />
      <path
         d="m 104.69752,24.20125 q 1.55,-3.6 4.51,-7.22 2.96,-3.62 6.34,-6.16 3.38,-2.54 8.13,-3.17 4.75,-0.63 9.36,-0.88 4.61,-0.25 9.24,0.34 4.63,0.59 8.85,0.63 4.22,0.04 8.59,0.92 4.37,0.88 8.15,3.14 3.78,2.26 6.08,5.86 2.3,3.6 3.41,8.09 1.11,4.49 1.62,9.09 0.51,4.6 0.69,8.64 0.18,4.04 0.71,8.1 0.53,4.06 0.63,8.35 0.1,4.29 0.14,8.75 0.04,4.46 0.55,8.57 0.51,4.11 0.55,8.18 0.04,4.07 0.64,8.51 0.6,4.44 -0.44,8.7 -1.04,4.26 -3.14,8.2 -2.1,3.94 -6.42,7.57 -4.32,3.63 -8.92,5.43 -4.6,1.8 -9,2.06 -4.4,0.26 -8.9,0.29 -4.5,0.03 -9.42,0.44 -4.92,0.41 -9.01,0.51 -4.09,0.1 -10.87,-1.62 -6.78,-1.72 -9.47,-5.1 -2.69,-3.38 -3.69,-7.32 -1,-3.94 -1.07,-7.97 -0.07,-4.03 -0.53,-9.08 -0.46,-5.05 -0.84,-9.49 -0.38,-4.44 -1.07,-8.78 -0.69,-4.34 -1.62,-9.47 -0.93,-5.13 -1,-9.43 -0.07,-4.3 -0.03,-8.85 0.04,-4.55 0.04,-8.65 0,-4.1 0,-8.19 0,-4.09 -0.02,-6.06 -0.02,-1.97 0.29,-3.75 0.31,-1.78 1.14,-3.37 0.83,-1.59 2.15,-2.82 1.32,-1.23 2.93,-2 1.61,-0.77 3.42,-0.95 1.81,-0.18 3.55,0.2 1.74,0.38 3.3,1.31 1.56,0.93 2.7,2.3 1.14,1.37 1.83,3.04 0.69,1.67 0.76,3.47 0.07,1.8 -0.38,3.53 -0.45,1.73 -1.49,3.22 -1.04,1.49 -2.44,2.57 -1.4,1.08 -3.14,1.67 -1.74,0.59 -3.5,0.57 -1.76,-0.02 -3.5,-0.57 -1.74,-0.55 -3.14,-1.67 -1.4,-1.12 -2.44,-2.58 -1.04,-1.46 -1.49,-3.22 -0.45,-1.76 -0.38,-3.53 0.07,-1.77 0.76,-3.46 0.69,-1.69 1.83,-3.04 1.14,-1.35 2.71,-2.3 1.57,-0.95 3.29,-1.31 1.72,-0.36 3.55,-0.2 1.83,0.16 3.42,0.95 1.59,0.79 2.94,2 1.35,1.21 2.14,2.82 0.79,1.61 1.14,3.37 0.35,1.76 0.29,1.77 -0.06,0.01 0,1.98 0.06,1.97 -0.02,6.06 -0.08,4.09 0,8.19 0.08,4.1 0.04,9.6 -0.04,5.5 0.14,10.24 0.18,4.74 0.76,9.62 0.58,4.88 1.64,10.91 1.06,6.03 1.71,10.48 0.65,4.45 0.76,8.67 0.11,4.22 4.11,4.22 4,0 8.4,-0.49 4.4,-0.49 8.77,-0.53 4.37,-0.04 8.97,-0.14 4.6,-0.1 5.9,-4.26 1.3,-4.16 1.25,-9.51 -0.05,-5.35 -1.15,-11.88 -1.1,-6.53 -0.94,-10.95 0.16,-4.42 0.13,-8.65 -0.03,-4.23 -0.4,-9.59 -0.37,-5.36 -0.88,-9.45 -0.51,-4.09 0.24,-8.09 0.75,-4 -3.92,-4.62 -4.67,-0.62 -8.92,-1.34 -4.25,-0.72 -8.5,-1.39 -4.25,-0.67 -8.37,-1.33 -4.12,-0.66 -7.64,1.62 -3.52,2.28 -4.36,3.93 -0.84,1.65 -1.38,2.31 -0.54,0.66 -1.03,1.2 -0.49,0.54 -1.28,0.92 -0.79,0.38 -1.46,0.59 -0.67,0.21 -1.56,0.22 -0.89,0.01 -1.57,-0.16 -0.68,-0.17 -1.49,-0.53 -0.81,-0.36 -1.31,-0.87 -0.5,-0.51 -1.07,-1.16 -0.57,-0.65 -0.76,-1.38 -0.19,-0.73 -0.41,-1.52 -0.22,-0.79 -0.03,-1.58 0.19,-0.79 0.35,-1.54 z"
         fill="#000000"
         stroke="none"
         id="path3"
         style="overflow:visible" />
    </g>
  </g>
</svg>
