<?xml version="1.0" encoding="UTF-8" standalone="no"?>
<!-- Created with Inkscape (http://www.inkscape.org/) -->

<svg
   width="48"
   height="48"
   viewBox="0 0 48 48"
   version="1.1"
   id="svg1"
   inkscape:version="1.4 (86a8ad7, 2024-10-11)"
   sodipodi:docname="github.svg"
   xmlns:inkscape="http://www.inkscape.org/namespaces/inkscape"
   xmlns:sodipodi="http://sodipodi.sourceforge.net/DTD/sodipodi-0.dtd"
   xmlns="http://www.w3.org/2000/svg"
   xmlns:svg="http://www.w3.org/2000/svg">
  <sodipodi:namedview
     id="namedview1"
     pagecolor="#ffffff"
     bordercolor="#000000"
     borderopacity="0.25"
     inkscape:showpageshadow="2"
     inkscape:pageopacity="0.0"
     inkscape:pagecheckerboard="0"
     inkscape:deskcolor="#d1d1d1"
     inkscape:document-units="px"
     inkscape:zoom="6.916644"
     inkscape:cx="-12.433776"
     inkscape:cy="34.048304"
     inkscape:window-width="1920"
     inkscape:window-height="1111"
     inkscape:window-x="-9"
     inkscape:window-y="-9"
     inkscape:window-maximized="1"
     inkscape:current-layer="layer1" />
  <defs
     id="defs1" />
  <g
     inkscape:label="Layer 1"
     inkscape:groupmode="layer"
     id="layer1">
    <g
       id="g1"
       transform="matrix(0.17167588,0,0,0.16735655,13.623747,13.900247)">
      <path
         d="m 25.97161,188.24273 q -0.81,-3.99 -1.33,-8.07 -0.52,-4.08 -0.79,-8.11 -0.27,-4.03 -0.52,-8.01 -0.25,-3.98 -0.46,-8 -0.21,-4.02 -0.39,-8 -0.18,-3.98 0.3,-9.02 0.48,-5.04 2.73,-9.1 2.25,-4.06 2.63,-8.71 0.38,-4.65 1.05,-9.56 0.67,-4.91 2.35,-9.08 1.68,-4.17 4.4,-7.59 2.72,-3.42 4.34,1.49 1.62,4.91 -2.81,6.16 -4.43,1.25 -8.47,-0.35 -4.04,-1.6 -8.92,-3.77 -4.88,-2.17 -8.81,-4.68 -3.93,-2.51 -7.61,-5.71 -3.68,-3.2 -8.37,-6.38 -4.69,-3.18 -7.85,-6.85 -3.16,-3.67 -5.36,-7.57 -2.2,-3.9 -4.12,-8.09 -1.92,-4.19 -4.27,-7.76 -2.35,-3.57 -4.09,-7.26 -1.74,-3.69 -3.07,-7.74 -1.33,-4.05 -2.34,-8.12 -1.01,-4.07 -1.53,-9.14 -0.52,-5.07 -0.42,-9.17 0.1,-4.1 1.53,-8.52 1.43,-4.42 4.13,-7.54 2.7,-3.12 5.45,-7.71 2.75,-4.59 0.2,-0.48 -2.55,4.11 -0.11,-0.27 2.44,-4.38 4.32,-7.89 1.88,-3.51 1.02,-7.56 -0.86,-4.05 -0.84,-8.05 0.02,-4 -0.01,-8.53 -0.03,-4.53 -0.01,-8.47 0.02,-3.94 -0.98,-8.24 -1,-4.3 2.13,-9.18 3.13,-4.88 8.53,-6.42 5.4,-1.54 10.67,0.31 5.27,1.85 8.68,3.92 3.41,2.07 6.47,5.05 3.06,2.98 6.54,5.94 3.48,2.96 8.06,6.36 4.58,3.4 -0.81,2.76 -5.39,-0.64 -1.35,-2.65 4.04,-2.01 8.71,-3.46 4.67,-1.45 8.86,-2.45 4.19,-1 8.41,-1.85 4.22,-0.85 8.18,-1.74 3.96,-0.89 8.22,-1.22 4.26,-0.33 9.09,-0.17 4.83,0.16 10.37,2.34 5.54,2.18 12.13,3 6.59,0.82 11.14,3.54 4.55,2.72 8.65,4.31 4.1,1.59 -0.17,0.53 -4.27,-1.06 -0.35,-4.23 3.92,-3.17 7.66,-5.86 3.74,-2.69 7.82,-5.16 4.08,-2.47 7.81,-4.45 3.73,-1.98 7.72,-3 3.99,-1.02 7.92,-2.11 3.93,-1.09 4.27,-1.22 0.34,-0.13 1.67,-0.45 1.33,-0.32 2.73,-0.2 1.4,0.12 2.71,0.45 1.31,0.33 2.52,1.09 1.21,0.76 2.18,1.67 0.97,0.91 1.72,2.13 0.75,1.22 1.16,2.49 0.41,1.27 0.54,2.69 0.13,1.42 -0.13,2.74 -0.26,1.32 -0.78,2.63 -0.52,1.31 -1.39,2.37 -0.87,1.06 -1.91,1.97 -1.04,0.91 -2.33,1.45 -1.29,0.54 2.59,-6.01 3.88,-6.55 4.07,-2.03 0.19,4.52 0.23,9.04 0.04,4.52 0,8.67 -0.04,4.15 -0.97,10.12 -0.93,5.97 -4.1,10.62 -3.17,4.65 -5.44,8.52 -2.27,3.87 -1.21,2.34 1.06,-1.53 0.76,-0.15 -0.3,1.38 -0.99,2.56 -0.69,1.18 -1.58,2.25 -0.89,1.07 -2.06,1.81 -1.17,0.74 -2.44,1.26 -1.27,0.52 -2.67,0.65 -1.4,0.13 -2.75,-0.02 -1.35,-0.15 -2.66,-0.67 -1.31,-0.52 -2.42,-1.29 -1.11,-0.77 -2.05,-1.83 -0.94,-1.06 -1.55,-2.27 -0.61,-1.21 -0.95,-2.58 -0.34,-1.37 -0.32,-2.72 0.02,-1.35 8.49,-5.68 8.47,-4.33 12.07,-1.89 3.6,2.44 7.66,6.17 4.06,3.73 5.85,7.37 1.79,3.64 2.98,8.01 1.19,4.37 2.23,9.4 1.04,5.03 1.07,9.11 0.03,4.08 0.05,8.57 0.02,4.49 -1.39,11.43 -1.41,6.94 -2.43,11.14 -1.02,4.2 -4.27,7.36 -3.25,3.16 -4.38,7.05 -1.13,3.89 -3.65,7.47 -2.52,3.58 -5.14,6.94 -2.62,3.36 -6.16,5.82 -3.54,2.46 -6.49,5.57 -2.95,3.11 -7.7,5.39 -4.75,2.28 -8.4,4.12 -3.65,1.84 -7.79,3.54 -4.14,1.7 -9.37,3.25 -5.23,1.55 -5.9,-3.22 -0.67,-4.77 1.15,-0.63 1.82,4.14 2.84,8.61 1.02,4.47 2.08,9.01 1.06,4.54 2.01,8.99 0.95,4.45 1.01,8.58 0.06,4.13 0.5,8.55 0.44,4.42 0.5,8.88 0.06,4.46 0,8.55 -0.06,4.09 0,8.17 0.06,4.08 0.01,8.05 -0.05,3.97 0.01,8 0.06,4.03 0,6.83 -0.06,2.8 -0.31,4.67 -0.25,1.87 -1.17,3.48 -0.92,1.61 -2.22,2.92 -1.3,1.31 -3.04,2.06 -1.74,0.75 -3.54,0.99 -1.8,0.24 -3.67,-0.2 -1.87,-0.44 -3.41,-1.36 -1.54,-0.92 -2.8,-2.38 -1.26,-1.46 -1.9,-3.15 -0.64,-1.69 -0.79,-3.59 -0.15,-1.9 0.4,-3.65 0.55,-1.75 1.54,-3.33 0.99,-1.58 2.53,-2.67 1.54,-1.09 3.25,-1.72 1.71,-0.63 3.62,-0.59 1.91,0.04 3.63,0.59 1.72,0.55 3.24,1.72 1.52,1.17 2.53,2.67 1.01,1.5 1.54,3.33 0.53,1.83 0.4,3.66 -0.13,1.83 -0.79,3.58 -0.66,1.75 -1.9,3.15 -1.24,1.4 -2.8,2.38 -1.56,0.98 -3.41,1.36 -1.85,0.38 -3.67,0.2 -1.82,-0.18 -3.54,-0.99 -1.72,-0.81 -3.04,-2.06 -1.32,-1.25 -2.22,-2.93 -0.9,-1.68 -1.17,-3.48 -0.27,-1.8 -0.3,-1.83 -0.03,-0.03 -0.01,-4.83 0.02,-4.8 0.01,-8.83 -0.01,-4.03 0.01,-8 0.02,-3.97 0,-8.26 -0.02,-4.29 0.66,-8.98 0.68,-4.69 -0.51,-10.57 -1.19,-5.88 0.11,-9.74 1.3,-3.86 -0.91,-9.28 -2.21,-5.42 -2.83,-10.28 -0.62,-4.86 -2.57,-10.48 -1.95,-5.62 -1.16,-10 0.79,-4.38 6.67,-6.83 5.88,-2.45 9.41,-4.42 3.53,-1.97 7.5,-3.54 3.97,-1.57 9.44,-2.41 5.47,-0.84 8.24,-4.27 2.77,-3.43 6.56,-5.2 3.79,-1.77 6.73,-6.89 2.94,-5.12 5.96,-8.49 3.02,-3.37 4.95,-8.13 1.93,-4.76 3.36,-8.94 1.43,-4.18 1.4,-8.28 -0.03,-4.1 0.28,-8.44 0.31,-4.34 -0.3,-8.37 -0.61,-4.03 -2.13,-8.66 -1.52,-4.63 -5.2,-6.72 -3.68,-2.09 4.5,-6.54 8.18,-4.45 7.84,-3.11 -0.34,1.34 -0.99,2.56 -0.65,1.22 -1.57,2.25 -0.92,1.03 -2.07,1.81 -1.15,0.78 -2.44,1.26 -1.29,0.48 -2.67,0.65 -1.38,0.17 -2.74,-0.02 -1.36,-0.19 -2.67,-0.67 -1.31,-0.48 -2.42,-1.29 -1.11,-0.81 -2.05,-1.83 -0.94,-1.02 -1.55,-2.27 -0.61,-1.25 -0.95,-2.57 -0.34,-1.32 -0.32,-2.73 0.02,-1.41 1.81,-5.54 1.79,-4.13 5.22,-9.3 3.43,-5.17 3.42,-9.35 -0.01,-4.18 0.01,-8.21 0.02,-4.03 0.13,-8.41 0.11,-4.38 3.83,-11.54 3.72,-7.16 5.07,-7.4 1.35,-0.24 2.73,-0.2 1.38,0.04 2.71,0.45 1.33,0.41 2.52,1.09 1.19,0.68 2.18,1.67 0.99,0.99 1.72,2.13 0.73,1.14 1.16,2.49 0.43,1.35 0.54,2.69 0.11,1.34 -0.13,2.74 -0.24,1.4 -0.78,2.63 -0.54,1.23 -1.39,2.37 -0.85,1.14 -1.91,1.97 -1.06,0.83 -2.33,1.45 -1.27,0.62 0.54,-0.96 1.81,-1.58 -4.35,0.68 -6.16,2.26 -2.76,-0.16 3.4,-2.42 -2.8,0.98 -6.2,3.4 -9.92,4.83 -3.72,1.43 -9.52,5.14 -5.8,3.71 -9.55,7.62 -3.75,3.91 -8.39,5.69 -4.64,1.78 -10.25,-0.09 -5.61,-1.87 -11.31,-3.82 -5.7,-1.95 -10.13,-3.03 -4.43,-1.08 -9.07,-1.95 -4.64,-0.87 -8.83,-1.25 -4.19,-0.38 -8.26,0.68 -4.07,1.06 -9.84,1.41 -5.77,0.35 -10.51,2.67 -4.74,2.32 -8.53,3.82 -3.79,1.5 -9.81,2.13 -6.02,0.63 -8.9,-2.34 -2.88,-2.97 -6.61,-5.05 -3.73,-2.08 -7.93,-6.32 -4.2,-4.24 -7.92,-8.26 -3.72,-4.02 -0.73,-7.62 2.99,-3.6 4.13,2.49 1.14,6.09 1.15,10.56 0.01,4.47 -0.01,8.96 -0.02,4.49 -0.01,8.75 0.01,4.26 -0.14,8.98 -0.15,4.72 -2.36,8.9 -2.21,4.18 -4.42,8.63 -2.21,4.45 -4.96,8.3 -2.75,3.85 -3.55,8.21 -0.8,4.36 -0.29,9.2 0.51,4.84 1.18,9.2 0.67,4.36 3.48,8.85 2.81,4.49 4.38,9.53 1.57,5.04 4.23,8.93 2.66,3.89 5.33,7.11 2.67,3.22 6.14,5.75 3.47,2.53 7.35,6.72 3.88,4.19 0.64,1.04 -3.24,-3.15 1.71,-0.8 4.95,2.35 10.25,5.03 5.3,2.68 9.35,2.75 4.05,0.07 7.89,1.59 3.84,1.52 5.73,8.39 1.89,6.87 0.26,10.53 -1.63,3.66 -3.2,8.05 -1.57,4.39 -3.61,9.13 -2.04,4.74 -2.74,8.79 -0.7,4.05 -1.78,8 -1.08,3.95 -1.29,8.44 -0.21,4.49 -0.4,8.46 -0.19,3.97 -0.43,8 -0.24,4.03 -0.5,8 -0.26,3.97 -0.44,8.18 -0.18,4.21 0,6.21 0.18,2 0.19,2.81 0.01,0.81 -0.16,1.55 -0.17,0.74 -0.52,1.47 -0.35,0.73 -0.86,1.3 -0.51,0.57 -1.14,1.06 -0.63,0.49 -1.36,0.75 -0.73,0.26 -1.51,0.4 -0.78,0.14 -1.55,0.04 -0.77,-0.1 -1.52,-0.34 -0.75,-0.24 -1.4,-0.7 -0.65,-0.46 -1.18,-1.01 -0.53,-0.55 -0.91,-1.26 -0.38,-0.71 -0.59,-1.44 z"
         fill="#ffffff"
         stroke="none"
         id="path1"
         style="overflow:visible" />
      <path
         d="m 30.04161,136.77273 q -3.35,2.52 -7.47,4.89 -4.12,2.37 -8.25,3.93 -4.13,1.56 -8.37,2.29 -4.24,0.73 -8.27,0.75 -4.03,0.02 -8.97,-1.02 -4.94,-1.04 -9.5,-4.75 -4.56,-3.71 -8.72,-6.51 -4.16,-2.8 -7.06,-5.73 -2.9,-2.93 -6.5,-6.83 -3.6,-3.9 -7.33,-6.41 -3.73,-2.51 -3.7,-1.03 0.03,1.48 -1.65,1.15 -1.68,-0.33 -3.14,-1.22 -1.46,-0.89 -2.58,-2.16 -1.12,-1.27 -1.76,-2.88 -0.64,-1.61 -0.75,-3.28 -0.11,-1.67 0.34,-3.35 0.45,-1.68 1.39,-3.07 0.94,-1.39 2.3,-2.46 1.36,-1.07 2.96,-1.6 1.6,-0.53 3.32,-0.57 1.72,-0.04 3.33,0.52 1.61,0.56 2.99,1.56 1.38,1 2.33,2.43 0.95,1.43 1.44,3.04 0.49,1.61 0.39,3.35 -0.1,1.74 -0.7,3.29 -0.6,1.55 -1.72,2.9 -1.12,1.35 -2.55,2.2 -1.43,0.85 -3.12,1.27 -1.69,0.42 -3.36,0.21 -1.67,-0.21 -3.25,-0.88 -1.58,-0.67 -2.8,-1.87 -1.22,-1.2 -2.06,-2.67 -0.84,-1.47 -1.1,-3.18 -0.26,-1.71 -0.02,-3.37 0.24,-1.66 1.05,-3.2 0.81,-1.54 2.02,-2.7 1.21,-1.16 2.77,-1.91 1.56,-0.75 3.24,-0.92 1.68,-0.17 1.7,-0.2 0.02,-0.03 4.76,0.94 4.74,0.97 8.79,3.54 4.05,2.57 6.96,5.95 2.91,3.38 6.14,7.4 3.23,4.02 6.94,7.48 3.71,3.46 7.68,5.96 3.97,2.5 8.34,3.72 4.37,1.22 9.61,0.83 5.24,-0.39 9.16,-2.5 3.92,-2.11 5.71,-3.19 1.79,-1.08 2.48,-1.39 0.69,-0.31 1.48,-0.54 0.79,-0.23 1.56,-0.16 0.77,0.07 1.55,0.21 0.78,0.14 1.45,0.58 0.67,0.44 1.28,0.91 0.61,0.47 1.02,1.19 0.41,0.72 0.71,1.4 0.3,0.68 0.35,1.53 0.05,0.85 -0.03,1.57 -0.08,0.72 -0.4,1.51 -0.32,0.79 -0.75,1.38 -0.43,0.59 -1.06,1.16 z"
         fill="#ffffff"
         stroke="none"
         id="path2"
         style="overflow:visible" />
    </g>
  </g>
</svg>
