<?xml version="1.0" encoding="UTF-8" standalone="no"?>
<svg
   viewBox="774 216 393.5 397.5"
   style="height: 397.5px; width: 393.5px; position: absolute; overflow: visible;"
   version="1.1"
   id="svg1"
   sodipodi:docname="infinite.svg"
   inkscape:version="1.4 (86a8ad7, 2024-10-11)"
   xmlns:inkscape="http://www.inkscape.org/namespaces/inkscape"
   xmlns:sodipodi="http://sodipodi.sourceforge.net/DTD/sodipodi-0.dtd"
   xmlns="http://www.w3.org/2000/svg"
   xmlns:svg="http://www.w3.org/2000/svg">
  <defs
     id="defs1" />
  <sodipodi:namedview
     id="namedview1"
     pagecolor="#ffffff"
     bordercolor="#000000"
     borderopacity="0.25"
     inkscape:showpageshadow="2"
     inkscape:pageopacity="0.0"
     inkscape:pagecheckerboard="0"
     inkscape:deskcolor="#d1d1d1"
     inkscape:zoom="1.0150943"
     inkscape:cx="269.43309"
     inkscape:cy="351.19888"
     inkscape:window-width="1920"
     inkscape:window-height="1009"
     inkscape:window-x="1912"
     inkscape:window-y="-8"
     inkscape:window-maximized="1"
     inkscape:current-layer="svg1" />
  <path
     d="m 793.9667,418.07353 q -0.26473,-4.62699 -0.58701,-9.33454 -0.32227,-4.70755 0.85174,-10.86535 1.174,-6.1578 2.92351,-10.99196 1.74951,-4.83416 4.4083,-8.8281 2.65879,-3.99394 5.1219,-8.50582 2.46312,-4.51188 6.21535,-8.713 3.75223,-4.20111 7.67712,-8.21807 3.92487,-4.01696 8.54035,-7.99938 4.61547,-3.98244 9.40359,-6.82538 4.78812,-2.84295 9.74889,-3.32637 4.96077,-0.48341 9.79493,-0.56398 4.83416,-0.0805 9.69134,-0.12661 4.85718,-0.0461 11.95879,0.89777 7.10162,0.94382 12.30409,2.86597 5.20248,1.92215 9.78342,4.97228 4.58095,3.05013 8.90868,5.59382 4.32772,2.54368 8.87413,5.91609 4.54642,3.3724 9.12736,6.94047 4.58094,3.56807 8.54034,6.39951 3.95942,2.83143 8.28714,6.07722 4.32773,3.2458 7.94184,8.02241 3.61411,4.77661 7.32029,7.57352 3.7062,2.79691 7.46994,5.42116 3.76373,2.62427 8.42525,7.06709 4.66151,4.44282 8.57488,7.4354 3.91337,2.99257 7.6771,6.00817 3.76375,3.01559 7.43534,5.78948 3.6718,2.77389 7.8153,6.22686 4.1435,3.45298 7.8153,7.50446 3.6716,4.05149 7.6655,7.56201 3.9939,3.51052 7.8383,6.28441 3.8443,2.77389 8.5979,6.23837 4.7535,3.46448 9.1733,6.35347 4.4198,2.88898 9.1159,5.04134 4.6961,2.15235 10.0827,4.46584 5.3866,2.31349 10.1402,4.1781 4.7536,1.86461 9.6568,3.2573 4.9032,1.3927 9.5302,2.96956 4.627,1.57686 9.3806,2.86597 4.7536,1.28911 10.1057,1.55383 5.3521,0.26473 10.1056,0.28775 4.7537,0.023 6.1694,-5.00681 1.4157,-5.02983 2.7624,-11.83218 1.3466,-6.80236 1.5308,-12.17749 0.1841,-5.37512 0.1381,-10.18626 -0.046,-4.81115 -0.035,-9.47265 0.011,-4.66151 -0.024,-10.18627 -0.035,-5.52475 -0.058,-10.37043 -0.023,-4.84567 1.1511,-11.24518 1.174,-6.3995 1.6804,-11.25669 0.5065,-4.85718 -2.325,-9.25396 -2.8314,-4.39678 -5.9852,-10.81932 -3.1536,-6.42252 -6.6066,-11.19913 -3.4529,-4.77661 -8.9777,-8.81659 -5.5248,-4.03998 -10.2209,-5.9276 -4.6959,-1.88763 -10.7617,-2.04877 -6.0657,-0.16113 -11.8207,-0.18415 -5.755,-0.023 -11.7631,0.34529 -6.0082,0.36832 -10.7502,2.76238 -4.7422,2.39406 -10.6582,5.12191 -5.9162,2.72785 -10.1287,6.08874 -4.2127,3.36089 -7.6426,7.06708 -3.43,3.7062 -6.1809,8.34468 -2.7509,4.63849 -5.6858,9.12736 -2.935,4.48887 -5.9852,8.63243 -3.05,4.14356 -6.3765,8.1375 -3.3263,3.99395 -6.998,8.19506 -3.67165,4.20111 -7.73465,8.41374 -4.06299,4.21262 -7.97636,8.18354 -3.91336,3.97093 -7.28577,7.68862 -3.3724,3.7177 -6.95198,7.6656 -3.57959,3.94789 -7.7807,8.31015 -4.20111,4.36225 -7.97637,9.59926 -3.77525,5.23702 -7.82673,9.27698 -4.05149,4.03998 -10.1057,8.04543 -6.05421,4.00545 -11.40632,7.33181 -5.3521,3.32637 -10.04815,5.73194 -4.69604,2.40556 -9.56472,3.98242 -4.8687,1.57686 -10.39346,3.3609 -5.52475,1.78404 -10.62363,2.87747 -5.0989,1.09345 -10.80781,2.01424 -5.70891,0.92079 -12.53429,1.86461 -6.82538,0.94381 -11.8437,1.15098 -5.01832,0.20718 -9.92153,-0.21868 -4.90323,-0.42587 -10.54308,-2.0833 -5.63985,-1.65742 -10.49703,-4.48886 -4.85719,-2.83143 -8.93169,-5.77798 -4.07451,-2.94653 -9.27698,-7.59653 -5.20248,-4.65001 -8.33318,-9.5302 -3.13069,-4.88021 -5.16794,-9.04679 -2.03726,-4.16658 -4.1781,-9.43812 -2.14084,-5.27154 -3.61411,-10.19779 -1.47327,-4.92623 -2.16387,-10.28986 -0.69059,-5.36361 -1.49629,-10.50854 -0.80568,-5.14492 -0.98985,-9.93305 -0.18415,-4.78812 -0.10358,-9.97908 0.0805,-5.19097 2.3365,-10.81932 2.25594,-5.62834 6.5031,-9.58774 4.24717,-3.95942 8.52884,-7.86128 4.28169,-3.90185 7.46994,-6.49158 3.18824,-2.58973 4.85717,-3.61412 1.66894,-1.02437 3.66016,-1.54232 1.99121,-0.51794 3.9479,-0.28775 1.95668,0.2302 3.8443,0.98986 1.88763,0.75965 3.31486,2.16386 1.42722,1.40421 2.46311,3.10767 1.0359,1.70347 1.33516,3.72921 0.29926,2.02575 0.069,3.97092 -0.2302,1.94517 -1.19704,3.77525 -0.96683,1.83008 -2.3365,3.19975 -1.36969,1.36969 -3.23429,2.27896 -1.86461,0.90928 -3.79827,1.13948 -1.93366,0.23021 -3.9594,-0.14962 -2.02575,-0.37983 -3.7177,-1.3927 -1.69197,-1.01287 -3.06164,-2.50916 -1.36968,-1.49629 -2.10632,-3.3609 -0.73663,-1.86461 -0.92079,-3.85582 -0.18415,-1.99121 0.3568,-3.94789 0.54097,-1.95669 1.58837,-3.62562 1.04741,-1.66894 2.6703,-2.92352 1.6229,-1.25458 3.476,-1.92215 1.85309,-0.66758 3.89034,-0.71362 2.03726,-0.0461 3.92488,0.56399 1.88763,0.61002 3.53354,1.79555 1.64592,1.18552 2.7854,2.83143 1.13949,1.64592 1.72649,3.55656 0.587,1.91064 0.49492,3.93639 -0.092,2.02574 -0.77116,3.89035 -0.67908,1.8646 -1.97971,3.42995 -1.30062,1.56535 -1.2776,1.55384 0.023,-0.0115 -2.34801,1.10495 -2.37105,1.11646 -6.91746,5.66288 -4.54642,4.54641 -7.74617,8.47129 -3.19975,3.92487 -3.18824,8.75903 0.0115,4.83417 0.77116,10.34741 0.75966,5.51324 1.40421,10.08268 0.64456,4.56943 2.12934,9.77191 1.48477,5.20247 3.68316,9.41511 2.19839,4.21262 4.65001,9.33452 2.45161,5.12192 7.91881,9.0583 5.46721,3.93639 9.63379,6.89443 4.16659,2.95806 9.92155,3.82129 5.75495,0.86325 10.43948,0.89778 4.68453,0.0346 11.70557,-1.32364 7.02105,-1.35817 12.06239,-2.04876 5.04134,-0.6906 11.62501,-2.80842 6.58366,-2.11782 12.18899,-4.06299 5.60531,-1.94519 10.27834,-4.24716 4.67302,-2.30198 11.4984,-6.82538 6.82538,-4.52339 11.19914,-8.19505 4.37377,-3.67166 7.06708,-7.5505 2.69332,-3.87884 5.81251,-7.59654 3.11918,-3.7177 6.54913,-7.52748 3.42995,-3.80978 8.07995,-8.65545 4.65001,-4.84567 8.0109,-8.20656 3.3609,-3.36089 7.95334,-8.67847 4.59246,-5.31757 8.13751,-9.36906 3.54505,-4.05149 6.6297,-7.84976 3.08465,-3.79827 6.0082,-7.49295 2.92356,-3.69468 5.43272,-7.73466 2.5092,-4.03998 5.0414,-8.07995 2.5322,-4.03998 5.4211,-8.06845 2.889,-4.02846 7.0901,-7.6656 4.2011,-3.63712 10.451,-8.31015 6.2498,-4.67302 11.4639,-7.2052 5.2139,-2.53218 9.5186,-4.84567 4.3048,-2.31349 9.8295,-3.68317 5.5247,-1.36968 12.0969,-1.91064 6.5721,-0.54097 12.3501,-0.54097 5.778,0 11.2567,0.0115 5.4787,0.0115 10.7618,1.36967 5.2831,1.35818 9.5992,3.11919 4.3162,1.76102 8.7706,4.75359 4.4544,2.99258 9.0583,6.5031 4.604,3.51052 7.8612,6.91745 3.2574,3.40694 6.5377,8.11449 3.2803,4.70755 5.7435,10.01362 2.4631,5.30607 5.5477,11.17612 3.0846,5.87005 5.1795,11.3833 2.0947,5.51324 1.8645,10.22079 -0.2301,4.70755 -1.7609,11.29122 -1.5308,6.58366 -1.6,11.2682 -0.069,4.68453 -0.057,10.30137 0.011,5.61683 -0.023,10.18627 -0.035,4.56943 -0.035,9.48416 0,4.91472 -0.1841,10.17475 -0.1842,5.26003 -0.6561,9.9906 -0.4719,4.73057 -1.4387,9.20793 -0.9668,4.47736 -3.3839,9.28849 -2.4171,4.81114 -5.7549,10.07117 -3.3379,5.26003 -7.0671,8.97773 -3.7293,3.71769 -10.1633,4.48886 -6.434,0.77116 -11.3142,0.70211 -4.8802,-0.069 -10.474,-0.61003 -5.5939,-0.54097 -11.9013,-2.00272 -6.3074,-1.46176 -11.7515,-3.4875 -5.4443,-2.02575 -10.9345,-3.74072 -5.4902,-1.71498 -12.5458,-4.14357 -7.0556,-2.42859 -11.8437,-4.61547 -4.7881,-2.18688 -9.1734,-4.28169 -4.3852,-2.0948 -8.9087,-4.84567 -4.5234,-2.75087 -9.1043,-6.16931 -4.5809,-3.41844 -8.4252,-6.14628 -3.8443,-2.72785 -7.9189,-6.23837 -4.0745,-3.51052 -9.0698,-8.51733 -4.99524,-5.00681 -8.87409,-8.3562 -3.87889,-3.34939 -7.89584,-7.00953 -4.01696,-3.66015 -7.91883,-6.52612 -3.90185,-2.86596 -10.65817,-8.64394 -6.75631,-5.77797 -11.01498,-9.5302 -4.25866,-3.75223 -7.78069,-6.95199 -3.52204,-3.19975 -7.65409,-7.02104 -4.13206,-3.82129 -8.56337,-7.15916 -4.43131,-3.33787 -9.32303,-6.53763 -4.8917,-3.19975 -8.55186,-6.81386 -3.66015,-3.61411 -8.34468,-7.51597 -4.68454,-3.90186 -8.8281,-6.28441 -4.14356,-2.38256 -8.16052,-5.00681 -4.01696,-2.62426 -9.28849,-3.14221 -5.27154,-0.51795 -10.12873,-0.61002 -4.85717,-0.0921 -9.13886,-1.86461 -4.28168,-1.77252 -8.9432,0.97834 -4.66151,2.75087 -8.42525,6.42254 -3.76374,3.67166 -7.80372,6.34195 -4.03998,2.67031 -7.60804,7.80372 -3.56808,5.13342 -7.80372,11.04951 -4.23565,5.91609 -6.01968,10.96894 -1.78404,5.05285 -2.12933,9.69134 -0.3453,4.6385 -0.44889,7.02104 -0.10359,2.38256 -0.25322,3.23429 -0.14963,0.85173 -0.43738,1.77252 -0.28775,0.9208 -0.85173,1.63441 -0.56398,0.71362 -1.22005,1.36968 -0.65606,0.65607 -1.5078,1.0474 -0.85173,0.39133 -1.71498,0.64455 -0.86323,0.25322 -1.81856,0.2187 -0.95532,-0.0346 -1.81856,-0.2187 -0.86325,-0.18415 -1.71498,-0.65606 -0.85173,-0.4719 -1.5193,-1.03589 -0.66759,-0.56399 -1.20854,-1.36968 -0.54097,-0.80569 -0.85174,-1.63441 -0.31077,-0.8287 -0.43737,-1.77252 z"
     fill="var(--ifm-text-color)"
     stroke="none"
     id="path1-7"
     style="overflow:visible;stroke-width:1.15099" />
</svg>
