<?xml version="1.0" encoding="UTF-8" standalone="no"?>
<svg
   viewBox="774 216 393.5 397.5"
   style="height: 397.5px; width: 393.5px; position: absolute; overflow: visible;"
   version="1.1"
   id="svg1"
   sodipodi:docname="lock.svg"
   inkscape:version="1.4 (86a8ad7, 2024-10-11)"
   xmlns:inkscape="http://www.inkscape.org/namespaces/inkscape"
   xmlns:sodipodi="http://sodipodi.sourceforge.net/DTD/sodipodi-0.dtd"
   xmlns="http://www.w3.org/2000/svg"
   xmlns:svg="http://www.w3.org/2000/svg">
  <defs
     id="defs1" />
  <sodipodi:namedview
     id="namedview1"
     pagecolor="#ffffff"
     bordercolor="#000000"
     borderopacity="0.25"
     inkscape:showpageshadow="2"
     inkscape:pageopacity="0.0"
     inkscape:pagecheckerboard="0"
     inkscape:deskcolor="#d1d1d1"
     inkscape:zoom="1.0150943"
     inkscape:cx="269.43309"
     inkscape:cy="351.19888"
     inkscape:window-width="1920"
     inkscape:window-height="1009"
     inkscape:window-x="1912"
     inkscape:window-y="-8"
     inkscape:window-maximized="1"
     inkscape:current-layer="svg1" />
  <g
     id="g1"
     transform="translate(14.998562,0.28111002)">
    <path
       d="m 1032.6201,306.41593 q -3.4491,-7.00476 -7.5381,-14.24063 -4.0891,-7.23587 -9.6539,-11.87607 -5.5647,-4.64021 -10.6137,-9.74266 -5.04913,-5.10244 -13.67173,-8.65815 -8.6226,-3.55571 -18.16968,-5.19134 -9.5471,-1.63563 -16.80075,-2.47122 -7.25364,-0.83559 -14.89842,0.72892 -7.64479,1.56452 -14.02728,7.89369 -6.38251,6.32916 -12.78279,13.63614 -6.40028,7.30699 -10.84493,13.4406 -4.44463,6.13359 -7.44921,14.34729 -3.00457,8.2137 -1.90231,15.98292 1.10228,7.76924 0.26668,15.07622 -0.83558,7.30698 -1.88451,15.7518 -1.04895,8.44481 -1.61786,17.93858 -0.56891,9.49374 -6.08027,16.90739 -5.51134,7.41367 -13.01389,9.49376 -7.50256,2.08009 -15.68069,2.11565 -8.17815,0.0356 -18.15192,1.61784 -9.97377,1.58229 -16.64073,4.00018 -6.66695,2.41788 -3.43125,10.48934 3.23569,8.07147 2.32899,18.00968 -0.90671,9.93822 -0.97783,19.5742 -0.0711,9.63598 -0.2489,20.30311 -0.17778,10.66713 -0.19556,18.4897 -0.0178,7.82256 -0.089,16.94297 -0.0712,9.1204 -0.88893,16.81851 -0.81781,7.69812 -0.88893,16.35628 -0.0712,8.65816 0,16.4985 0.0712,7.84034 7.37811,10.47157 7.30698,2.63122 17.68966,3.32459 10.38267,0.69336 17.61855,0.76447 7.23587,0.0712 16.8363,0.17779 9.60041,0.10667 21.31648,0.35557 11.71607,0.24891 19.18306,1.06672 7.467,0.81781 19.68087,1.79563 12.21386,0.97782 20.55201,1.38672 8.33814,0.40891 18.34748,0.3378 10.00932,-0.0712 25.53008,1.01338 15.5206,1.08449 30.4014,1.68896 14.8806,0.60447 24.73,0.62225 9.8493,0.0178 18.2941,-1.17338 8.4447,-1.19117 14.5961,-6.08027 6.1514,-4.8891 6.8092,-12.94279 0.6579,-8.05368 0.8712,-17.65411 0.2133,-9.60042 0.071,-18.0808 -0.1422,-8.48037 -0.6756,-16.83629 -0.5332,-8.35592 -1.4578,-16.8363 -0.9244,-8.48037 -1.0845,-18.32969 -0.16,-9.84932 -0.3201,-17.63632 -0.16,-7.78701 -0.1066,-17.29854 0.053,-9.51153 -0.089,-17.95634 -0.1423,-8.44482 -0.1601,-15.64514 -0.017,-7.2003 -8.7469,-4.26685 -8.7294,2.93347 -18.2942,1.52895 -9.5649,-1.40449 -18.4009,-2.70233 -8.8359,-1.29783 -17.0318,-2.04453 -8.196,-0.74671 -16.694,-1.13783 -8.4982,-0.39113 -17.40541,-1.12005 -8.90706,-0.72893 -18.72083,-1.08449 -9.81376,-0.35558 -17.22742,-1.01339 -7.41366,-0.6578 -16.30294,-1.08449 -8.88928,-0.42669 -15.85847,-0.33779 -6.96919,0.089 -19.32529,-0.0178 -12.3561,-0.10666 -20.76536,-0.0356 -8.40926,0.0712 -18.41859,-0.10667 -10.00932,-0.17778 -18.9875,1.84898 -8.97817,2.02675 -11.85829,1.63563 -2.88013,-0.39114 -5.28023,-1.45785 -2.40011,-1.06671 -4.55132,-3.05791 -2.15119,-1.99119 -3.32458,-4.35575 -1.17339,-2.36455 -1.76009,-5.19134 -0.58669,-2.82679 0,-5.47579 0.5867,-2.64901 1.74231,-5.20913 1.15561,-2.5601 3.30682,-4.35574 2.15119,-1.79563 4.51575,-3.09347 2.36454,-1.29783 5.28022,-1.47561 2.91569,-0.17779 5.4758,0.28445 2.56011,0.46225 5.10245,2.02675 2.54233,1.56452 4.17796,3.53794 1.63562,1.97341 2.82679,4.69354 1.19117,2.72012 1.19117,5.35134 0,2.63124 -0.58669,5.44024 -0.58671,2.80902 -2.29345,4.978 -1.70673,2.16898 -3.75127,3.98239 -2.04454,1.81341 -4.83576,2.5779 -2.79125,0.76447 -5.40468,0.90671 -2.61346,0.14222 -5.42247,-0.88893 -2.80901,-1.03116 -4.83576,-2.56012 -2.02676,-1.52895 -3.78684,-3.96462 -1.76008,-2.43565 -2.29344,-4.97799 -0.53335,-2.54234 -0.60447,-5.44024 -0.0712,-2.8979 1.15561,-5.35134 1.22672,-2.45344 2.82679,-4.69354 1.60007,-2.2401 4.17796,-3.55572 2.57789,-1.3156 5.08467,-2.04453 2.50678,-0.72892 2.70234,-0.60447 0.19556,0.12445 2.2401,-0.0534 2.04454,-0.17778 10.00932,-1.61784 7.96481,-1.44007 17.72523,-1.65341 9.76043,-0.21334 18.45414,-0.10667 8.69372,0.10667 17.08519,-0.0356 8.39149,-0.14223 16.32073,0.0356 7.92922,0.17779 15.53845,0.2489 7.60923,0.0711 19.46752,0.69336 11.8583,0.62224 22.0632,0.51558 10.20488,-0.10667 18.7386,0.69336 8.53383,0.80004 17.29863,0.85337 8.7649,0.0534 18.063,1.10227 9.2982,1.04894 19.7698,2.04453 10.4716,0.99561 19.4143,2.13343 8.9424,1.13783 17.3873,1.06672 8.4449,-0.0711 17.2808,1.51118 8.836,1.58228 13.2983,7.00474 4.4624,5.42247 6.8447,13.90284 2.3824,8.48038 2.1868,15.57401 -0.1956,7.09365 -0.16,15.64514 0.035,8.55149 -0.089,17.93855 -0.1245,9.38709 -0.071,17.20966 0.053,7.82256 0.035,16.60517 -0.017,8.78261 1.0133,17.42298 1.0313,8.64038 1.7069,17.86746 0.6755,9.22707 0.7466,17.97412 0.071,8.74706 -0.1778,15.98293 -0.2489,7.23587 -0.9601,15.98291 -0.7111,8.74705 -3.1467,15.46735 -2.4358,6.7203 -7.5381,14.70286 -5.1025,7.98258 -12.2672,13.06725 -7.1649,5.08467 -15.7163,7.68033 -8.5516,2.59567 -17.6009,3.11125 -9.0491,0.51558 -18.7385,0.51558 -9.6894,0 -25.5478,-0.10668 -15.8585,-0.10666 -24.3922,-0.0534 -8.53379,0.0534 -18.86314,-0.0356 -10.32934,-0.0889 -20.3031,-0.21335 -9.97377,-0.12444 -21.3165,-0.9956 -11.34272,-0.87114 -23.59215,-1.10228 -12.24941,-0.23111 -24.17884,-0.10666 -11.92941,0.12445 -21.40537,0.35558 -9.47598,0.23111 -17.22742,0.0356 -7.75146,-0.19556 -17.29854,-0.23111 -9.54709,-0.0356 -19.02305,-2.06231 -9.47599,-2.02676 -19.14752,-6.50695 -9.67154,-4.4802 -14.31173,-12.28498 -4.64021,-7.8048 -7.37811,-15.094 -2.73789,-7.28921 -2.84457,-15.32512 -0.10667,-8.03591 0.0889,-15.50291 0.19556,-7.46699 0.88893,-16.39183 0.69336,-8.92483 0.80003,-17.83189 0.10668,-8.90706 -0.089,-16.87185 -0.19556,-7.96479 -0.17778,-15.68069 0.0178,-7.71589 -0.17779,-16.39182 -0.19556,-8.67595 0.76448,-18.47193 0.96004,-9.79598 0.80004,-17.79634 -0.16001,-8.00034 0.0534,-14.95177 0.21334,-6.95141 1.92009,-15.18288 1.70674,-8.23147 6.84474,-13.42282 5.13801,-5.19133 11.4494,-9.13817 6.31138,-3.94684 14.5073,-5.29802 8.19591,-1.35116 15.09399,-2.45343 6.89809,-1.10228 14.36508,-1.29784 7.467,-0.19557 8.26702,-9.08484 0.80004,-8.88928 1.90231,-15.80514 1.10227,-6.91586 0.94226,-15.68069 -0.16,-8.76482 1.88453,-17.4941 2.04454,-8.72926 3.96462,-16.48072 1.92009,-7.75145 8.16036,-14.52509 6.24026,-6.77362 10.95159,-13.61837 4.71132,-6.84474 11.20049,-12.05386 6.48918,-5.20911 12.07164,-10.68491 5.58247,-5.4758 13.52949,-8.35592 7.94701,-2.88013 15.18289,-5.44024 7.23587,-2.56012 14.5784,-2.06231 7.34255,0.49779 15.07622,2.1512 7.73367,1.65341 16.32073,3.43126 8.58703,1.77785 15.59179,4.90688 7.00479,3.12903 16.64069,9.40487 9.636,6.27582 13.8318,11.80495 4.1957,5.52913 10.5427,14.68509 6.3468,9.15596 10.4182,16.8363 4.0714,7.68033 5.6181,11.5205 1.5467,3.84017 1.7422,5.03133 0.1956,1.19116 0.4623,2.80901 0.2667,1.61786 -0.2312,2.8268 -0.4977,1.20894 -0.8889,2.70234 -0.3911,1.4934 -1.5112,2.40011 -1.1199,0.9067 -2.0445,1.97341 -0.9245,1.06672 -2.4535,1.42228 -1.5289,0.35558 -2.7201,0.78227 -1.1911,0.42667 -2.8445,0.12444 -1.6534,-0.30224 -2.7734,-0.55113 -1.1202,-0.24891 -2.578,-1.22672 -1.4577,-0.97782 -2.2045,-1.77786 -0.7466,-0.80004 -1.7068,-2.27565 z"
       fill="var(--ifm-text-color)"
       stroke="none"
       id="path1"
       style="stroke-width:1.77785" />
    <path
       d="m 964.22227,451.49641 q 0.42668,10.22266 2.22232,17.9919 1.79564,7.76923 1.99121,9.38708 0.19555,1.61785 -0.0356,3.25347 -0.23111,1.63563 -0.80003,3.14681 -0.56892,1.51118 -1.52896,2.86234 -0.96004,1.35117 -2.18676,2.40011 -1.22672,1.04894 -2.68457,1.83119 -1.45783,0.78226 -3.04012,1.12006 -1.5823,0.33778 -3.21792,0.37333 -1.63563,0.0356 -3.23571,-0.42667 -1.60006,-0.46225 -3.02236,-1.17338 -1.42228,-0.71115 -2.649,-1.86676 -1.22672,-1.1556 -2.13343,-2.45344 -0.9067,-1.29784 -1.49339,-2.88012 -0.58669,-1.5823 0.24891,-9.35152 0.83558,-7.76924 10.0271,-8.78261 9.19152,-1.01338 1.12005,5.90248 -8.07147,6.91586 -8.88929,0.46224 -0.81781,-6.45362 -0.49779,-8.48037 0.32002,-2.02675 1.04893,-3.96462 0.72893,-1.93786 1.97343,-3.59126 1.24448,-1.65341 2.77344,-3.00459 1.52896,-1.35116 3.43127,-2.27564 1.90231,-0.9245 3.85794,-1.38674 1.95565,-0.46224 4.0713,-0.4089 2.11565,0.0534 4.07128,0.56892 1.95565,0.51557 3.80461,1.52895 1.84898,1.01337 3.32459,2.38232 1.47563,1.36894 2.66678,3.12903 1.19118,1.76007 1.83119,3.66238 0.64004,1.9023 0.90671,4.00018 0.26668,2.09787 0.1778,12.71166 -0.0889,10.6138 -0.48003,13.38726 -0.39113,2.77346 -1.7423,5.15578 -1.35116,2.38233 -3.28903,4.33796 -1.93785,1.95565 -4.49797,3.05792 -2.56012,1.10228 -5.26245,1.45783 -2.70235,0.35558 -5.42246,-0.28444 -2.72012,-0.64004 -5.0669,-2.02676 -2.34676,-1.38673 -4.16018,-3.52015 -1.81341,-2.13343 -2.79123,-4.67577 -0.97782,-2.54233 -1.17339,-5.31578 -0.19556,-2.77346 0.5867,-5.40468 0.78225,-2.63123 2.27565,-4.94245 1.4934,-2.31121 3.75128,-3.96461 2.25787,-1.65341 4.81798,-2.54234 2.56011,-0.88893 5.36913,-0.88893 2.80901,0 5.36913,0.88893 2.5601,0.88893 4.81798,2.54234 2.25787,1.6534 3.75128,3.96461 1.4934,2.31122 2.27565,4.94245 0.78226,2.63122 0.5867,5.40468 -0.19557,2.77345 -1.17338,5.33356 -0.97783,2.56011 -2.80902,4.65799 -1.83119,2.09787 -4.1424,3.52015 -2.31122,1.42228 -5.06688,2.02676 -2.75569,0.60447 -5.44025,0.28444 -2.68456,-0.32001 -5.24467,-1.45783 -2.56012,-1.13783 -4.49798,-3.05792 -1.93786,-1.92008 -3.30681,-4.33796 -1.36895,-2.41788 -1.72452,-5.15578 -0.35558,-2.7379 -0.44447,-2.72012 -0.0888,0.0178 -0.0534,-10.98714 0.0356,-11.00494 0.24891,-13.03169 0.21334,-2.02675 1.04893,-3.94684 0.83559,-1.92009 1.97343,-3.60904 1.13782,-1.68897 2.77344,-3.00459 1.63563,-1.31561 3.43127,-2.27564 1.79564,-0.96005 3.85794,-1.38674 2.06231,-0.42668 4.0713,-0.4089 2.00898,0.0178 4.07128,0.56892 2.06231,0.55113 3.80461,1.52895 1.74231,0.97781 3.32459,2.38232 1.5823,1.40451 2.66678,3.12903 1.0845,1.72453 1.83119,3.66238 0.74672,1.93787 0.90671,4.00018 0.16002,2.06231 0.0178,5.92025 -0.14222,3.85795 -3.71571,13.26281 -3.57348,9.40486 -14.06284,13.13835 -10.48935,3.73351 -16.81852,-4.42686 -6.32917,-8.16036 -8.1959,-18.84527 -1.86676,-10.68491 -0.24892,-17.68966 1.61786,-7.00476 9.5471,-10.9516 7.92923,-3.94683 14.6673,-1.56451 6.73809,2.38232 9.81377,9.58264 3.07569,7.20032 1.01338,15.30734 -2.06231,8.10702 -1.76007,9.68932 0.30222,1.58229 -0.0356,3.25347 -0.33779,1.67119 -0.80003,3.14681 -0.46224,1.47561 -1.52896,2.86234 -1.06671,1.38674 -2.16898,2.40011 -1.10227,1.01338 -2.70235,1.83119 -1.60006,0.81782 -3.04012,1.12006 -1.44007,0.30223 -3.21792,0.37333 -1.77786,0.0712 -3.23571,-0.42667 -1.45783,-0.49781 -3.02236,-1.17338 -1.5645,-0.67559 -2.649,-1.86676 -1.08448,-1.19115 -2.13343,-2.45344 -1.04892,-1.26228 -1.49339,-2.88012 -0.44446,-1.61785 -0.6578,-1.81341 -0.21335,-0.19558 -0.87116,-10.89826 -0.6578,-10.7027 -0.55113,-15.73403 0.10667,-5.03133 0.39113,-6.5425 0.28446,-1.51118 0.67559,-2.7379 0.39112,-1.22673 1.31561,-2.52457 0.92448,-1.29783 1.88452,-2.11565 0.96005,-0.81781 2.32899,-1.61784 1.36895,-0.80003 2.64901,-0.99559 1.28006,-0.19557 2.80901,-0.3378 1.52896,-0.14222 2.80901,0.3378 1.28007,0.48002 2.64901,1.01338 1.36895,0.53335 2.34676,1.60005 0.97783,1.06673 1.86676,2.11565 0.88893,1.04894 1.31562,2.52457 0.42667,1.47561 0.67557,2.7379 z"
       fill="var(--ifm-text-color)"
       stroke="none"
       id="path2"
       style="stroke-width:1.77785" />
  </g>
</svg>
