<?xml version="1.0" encoding="UTF-8" standalone="no"?>
<svg
   viewBox="774 216 393.5 397.5"
   style="height: 397.5px; width: 393.5px; position: absolute; overflow: visible;"
   version="1.1"
   id="svg1"
   sodipodi:docname="logo_new.svg"
   inkscape:version="1.4 (86a8ad7, 2024-10-11)"
   xmlns:inkscape="http://www.inkscape.org/namespaces/inkscape"
   xmlns:sodipodi="http://sodipodi.sourceforge.net/DTD/sodipodi-0.dtd"
   xmlns="http://www.w3.org/2000/svg"
   xmlns:svg="http://www.w3.org/2000/svg">
  <defs
     id="defs1" />
  <sodipodi:namedview
     id="namedview1"
     pagecolor="#ffffff"
     bordercolor="#000000"
     borderopacity="0.25"
     inkscape:showpageshadow="2"
     inkscape:pageopacity="0.0"
     inkscape:pagecheckerboard="0"
     inkscape:deskcolor="#d1d1d1"
     inkscape:zoom="1.0150943"
     inkscape:cx="348.24349"
     inkscape:cy="351.19888"
     inkscape:window-width="1920"
     inkscape:window-height="1009"
     inkscape:window-x="1912"
     inkscape:window-y="-8"
     inkscape:window-maximized="1"
     inkscape:current-layer="svg1" />
  <g
     id="g5"
     style="overflow:visible"
     transform="matrix(1.7353078,0,0,1.7353078,-312.70585,-208.57841)">
    <path
       d="m 659.67987,294.08998 q 3.64,4.12 7.43,7.97 3.79,3.85 7.3,7.79 3.51,3.94 6.2,7.19 2.69,3.25 4.95,6.59 2.26,3.34 5.3,6.8 3.04,3.46 6.23,7.51 3.19,4.05 6.15,7.38 2.96,3.33 6.54,7.09 3.58,3.76 7.42,7.7 3.84,3.94 6.89,6.72 3.05,2.78 5.91,5.77 2.86,2.99 6.1,6.72 3.24,3.73 6.41,7.47 3.17,3.74 6.72,7.17 3.55,3.43 6.76,6.79 3.21,3.36 5.77,6.59 2.56,3.23 5.52,6.29 2.96,3.06 5.31,6.45 2.35,3.39 6.37,7.65 4.02,4.26 6.8,7.39 2.78,3.13 4.48,5.55 1.7,2.42 2.51,3.99 0.81,1.57 1.12,3.37 0.31,1.8 -0.02,3.56 -0.33,1.76 -1.15,3.36 -0.82,1.6 -2.17,2.82 -1.35,1.22 -2.96,1.98 -1.61,0.76 -3.43,0.93 -1.82,0.17 -3.55,-0.21 -1.73,-0.38 -3.29,-1.33 -1.56,-0.95 -2.7,-2.32 -1.14,-1.37 -1.82,-3.06 -0.68,-1.69 -0.74,-3.47 -0.06,-1.78 0.4,-3.54 0.46,-1.76 1.51,-3.21 1.05,-1.45 2.46,-2.57 1.41,-1.12 3.15,-1.65 1.74,-0.53 3.51,-0.56 1.77,-0.03 3.51,0.6 1.74,0.63 3.13,1.68 1.39,1.05 2.43,2.6 1.04,1.55 1.48,3.23 0.44,1.68 0.36,3.54 -0.08,1.86 -0.78,3.47 -0.7,1.61 -1.85,3.03 -1.15,1.42 -2.72,2.29 -1.57,0.87 -3.31,1.3 -1.74,0.43 -3.56,0.17 -1.82,-0.26 -3.42,-0.97 -1.6,-0.71 -2.93,-2.01 -1.33,-1.3 -1.3,-1.25 0.03,0.05 -1.65,-2.26 -1.68,-2.31 -3.89,-6.11 -2.21,-3.8 -5.45,-6.37 -3.24,-2.57 -5.73,-5.77 -2.49,-3.2 -5.07,-6.49 -2.58,-3.29 -5.36,-6.23 -2.78,-2.94 -5.49,-6.54 -2.71,-3.6 -5.3,-6.64 -2.59,-3.04 -6.56,-7.13 -3.97,-4.09 -7.62,-7.91 -3.65,-3.82 -6.5,-7.59 -2.85,-3.77 -6.36,-7.02 -3.51,-3.25 -6.32,-6.74 -2.81,-3.49 -5.37,-6.73 -2.56,-3.24 -6.48,-6.87 -3.92,-3.63 -5.97,-7.07 -2.05,-3.44 -5.71,-8.61 -3.66,-5.17 -7.02,-10.31 -3.36,-5.14 -5.56,-9.02 -2.2,-3.88 -4.47,-7.12 -2.27,-3.24 -5.97,-7.16 -3.7,-3.92 -5.27,-6.1 -1.57,-2.18 -2.07,-2.91 -0.5,-0.73 -0.67,-1.44 -0.17,-0.71 -0.31,-1.56 -0.14,-0.85 0.08,-1.58 0.22,-0.73 0.45,-1.53 0.23,-0.8 0.8,-1.37 0.57,-0.57 1.11,-1.14 0.54,-0.57 1.34,-0.84 0.8,-0.27 1.51,-0.49 0.71,-0.22 1.59,-0.12 0.88,0.1 1.56,0.27 0.68,0.17 1.46,0.63 0.78,0.46 1.26,0.96 z"
       fill="var(--ifm-text-color)"
       stroke="none"
       id="path1" />
    <path
       d="m 695.6,248.27 q 3.64,5.05 6.42,9.69 2.78,4.64 4.29,8.9 1.51,4.26 2.69,8.45 1.18,4.19 2.75,8.37 1.57,4.18 1.94,9.05 0.37,4.87 0.99,9.34 0.62,4.47 0.79,9.14 0.17,4.67 0.28,9.83 0.11,5.16 0.22,9.63 0.11,4.47 0.18,8.53 0.07,4.06 0.16,8.74 0.09,4.68 0.15,9.28 0.06,4.6 0.11,8.97 0.05,4.37 0.08,8.67 0.03,4.3 0.1,8.82 0.07,4.52 0.09,8.53 0.02,4.01 0.55,8.36 0.53,4.35 0.57,8.5 0.04,4.15 0.51,8.6 0.47,4.45 0.56,8.52 0.09,4.07 0.12,8.48 0.03,4.41 0.04,8.91 0.01,4.5 0.02,9 0.01,4.5 0.01,6.96 0,2.46 -0.29,4.25 -0.29,1.79 -1.14,3.4 -0.85,1.61 -2.17,2.85 -1.32,1.24 -2.97,2.01 -1.65,0.77 -3.45,0.96 -1.8,0.19 -3.58,-0.19 -1.78,-0.38 -3.33,-1.33 -1.55,-0.95 -2.73,-2.32 -1.18,-1.37 -1.85,-3.07 -0.67,-1.7 -0.77,-3.5 -0.1,-1.8 0.39,-3.56 0.49,-1.76 1.5,-3.26 1.01,-1.5 2.47,-2.6 1.46,-1.1 3.16,-1.68 1.7,-0.58 3.54,-0.58 1.84,0 3.54,0.58 1.7,0.58 3.16,1.68 1.46,1.1 2.47,2.61 1.01,1.51 1.5,3.25 0.49,1.74 0.39,3.56 -0.1,1.82 -0.77,3.5 -0.67,1.68 -1.85,3.07 -1.18,1.39 -2.73,2.32 -1.55,0.93 -3.33,1.33 -1.78,0.4 -3.58,0.19 -1.8,-0.21 -3.45,-0.96 -1.65,-0.75 -2.97,-2.01 -1.32,-1.26 -2.17,-2.85 -0.85,-1.59 -1.14,-3.4 -0.29,-1.81 -0.29,-1.79 0,0.02 0,-4.39 0,-4.41 0.01,-8.87 0.01,-4.46 0.03,-8.98 0.02,-4.52 0.57,-8.8 0.55,-4.28 -0.42,-10.51 -0.97,-6.23 -0.95,-10.71 0.02,-4.48 -0.43,-9.01 -0.45,-4.53 -0.43,-8.52 0.02,-3.99 0.09,-8.53 0.07,-4.54 0.1,-8.82 0.03,-4.28 0.08,-8.67 0.05,-4.39 0.11,-8.97 0.06,-4.58 0.15,-9.28 0.09,-4.7 0.16,-8.74 0.07,-4.04 0.18,-8.53 0.11,-4.49 0.22,-9.63 0.11,-5.14 0.24,-9.58 0.13,-4.44 -0.23,-9 -0.36,-4.56 -0.72,-9.19 -0.36,-4.63 -1.01,-9.53 -0.65,-4.9 -1.86,-9.43 -1.21,-4.53 -3.12,-8.9 -1.91,-4.37 -3.52,-7.03 -1.61,-2.66 -1.99,-3.37 -0.38,-0.71 -0.55,-1.52 -0.17,-0.81 -0.17,-1.6 0,-0.79 0.22,-1.59 0.22,-0.8 0.6,-1.5 0.38,-0.7 0.93,-1.31 0.55,-0.61 1.22,-1.05 0.67,-0.44 1.44,-0.72 0.77,-0.28 1.57,-0.36 0.8,-0.08 1.61,0.02 0.81,0.1 1.56,0.41 0.75,0.31 1.41,0.77 0.66,0.46 1.19,1.09 z"
       fill="var(--ifm-text-color)"
       stroke="none"
       id="path2" />
    <path
       d="m 703.83,356.36 q 1.55,-4.19 4.26,-7.37 2.71,-3.18 6.33,-5.65 3.62,-2.47 7.26,-4.84 3.64,-2.37 7.37,-4.45 3.73,-2.08 8.67,-3.78 4.94,-1.7 9,-3.38 4.06,-1.68 9,-3.61 4.94,-1.93 8.99,-3.14 4.05,-1.21 8.54,-3.42 4.49,-2.21 8.07,-4.47 3.58,-2.26 8.02,-5.42 4.44,-3.16 9.59,-6.58 5.15,-3.42 9.33,-6.48 4.18,-3.06 8.49,-5.63 4.31,-2.57 8.47,-5.17 4.16,-2.6 5.87,-3.57 1.71,-0.97 2.81,-2.27 1.1,-1.3 2.61,-2.23 1.51,-0.93 3.2,-1.28 1.69,-0.35 3.43,-0.18 1.74,0.17 3.31,0.91 1.57,0.74 2.85,1.93 1.28,1.19 2.08,2.73 0.8,1.54 1.1,3.26 0.3,1.72 0.01,3.44 -0.29,1.72 -1.1,3.26 -0.81,1.54 -2.08,2.74 -1.27,1.2 -2.84,1.93 -1.57,0.73 -3.31,0.92 -1.74,0.19 -3.44,-0.18 -1.7,-0.37 -3.19,-1.27 -1.49,-0.9 -2.62,-2.22 -1.13,-1.32 -1.78,-2.95 -0.65,-1.63 -0.74,-3.36 -0.09,-1.73 0.37,-3.42 0.46,-1.69 1.44,-3.12 0.98,-1.43 2.36,-2.49 1.38,-1.06 3.04,-1.62 1.66,-0.56 3.39,-0.56 1.73,0 3.4,0.56 1.67,0.56 3.03,1.61 1.36,1.05 2.37,2.49 1.01,1.44 1.45,3.12 0.44,1.68 0.37,3.42 -0.07,1.74 -0.74,3.36 -0.67,1.62 -0.64,1.61 0.03,-0.01 -4.54,3.63 -4.57,3.64 -8.52,6.36 -3.95,2.72 -7.48,4.72 -3.53,2 -7.59,4.22 -4.06,2.22 -9.02,5.84 -4.96,3.62 -8.74,6.41 -3.78,2.79 -7.8,4.99 -4.02,2.2 -8.78,4.44 -4.76,2.24 -9,4.31 -4.24,2.07 -9.65,3.98 -5.41,1.91 -10.6,3.34 -5.19,1.43 -9.92,2.84 -4.73,1.41 -9.79,3.14 -5.06,1.73 -9.64,4.2 -4.58,2.47 -8.35,4.15 -3.77,1.68 -4.69,3.6 -0.92,1.92 -1.36,2.63 -0.44,0.71 -0.96,1.29 -0.52,0.58 -1.25,1.01 -0.73,0.43 -1.45,0.68 -0.72,0.25 -1.58,0.32 -0.86,0.07 -1.6,-0.07 -0.74,-0.14 -1.55,-0.45 -0.81,-0.31 -1.38,-0.8 -0.57,-0.49 -1.16,-1.12 -0.59,-0.63 -0.86,-1.36 -0.27,-0.73 -0.5,-1.52 -0.23,-0.79 -0.13,-1.6 0.1,-0.81 0.26,-1.59 z"
       fill="var(--ifm-text-color)"
       stroke="none"
       id="path3" />
    <path
       d="m 756.49919,259.25968 q -2.76,5.24 -4.38,9.93 -1.62,4.69 -3.43,9.28 -1.81,4.59 -4.31,9.78 -2.5,5.19 -4.25,9.26 -1.75,4.07 -3.8,8.78 -2.05,4.71 -3.43,9.06 -1.38,4.35 -2.87,8.11 -1.49,3.76 -3.66,8.69 -2.17,4.93 -4.25,9.52 -2.08,4.59 -5.29,9.64 -3.21,5.05 -6,9.69 -2.79,4.64 -5.03,8.04 -2.24,3.4 -4.69,6.99 -2.45,3.59 -4.88,6.99 -2.43,3.4 -4.86,7.68 -2.43,4.28 -4.15,8.16 -1.72,3.88 -3.91,8.66 -2.19,4.78 -3.89,9.17 -1.7,4.39 -3.32,8.09 -1.62,3.7 -3.84,8.57 -2.22,4.87 -4.93,9.05 -2.71,4.18 -4.34,4.86 -1.63,0.68 -3.38,0.75 -1.75,0.07 -3.44,-0.37 -1.69,-0.44 -3.15,-1.44 -1.46,-1 -2.51,-2.38 -1.05,-1.38 -1.63,-3.05 -0.58,-1.67 -0.57,-3.41 0.01,-1.74 0.55,-3.42 0.54,-1.68 1.61,-3.06 1.07,-1.38 2.51,-2.39 1.44,-1.01 3.14,-1.46 1.7,-0.45 3.44,-0.38 1.74,0.07 3.38,0.73 1.64,0.66 2.97,1.78 1.33,1.12 2.25,2.63 0.92,1.51 1.29,3.21 0.37,1.7 0.19,3.46 -0.18,1.76 -0.92,3.34 -0.74,1.58 -1.93,2.87 -1.19,1.29 -2.75,2.1 -1.56,0.81 -3.28,1.11 -1.72,0.3 -3.46,0.01 -1.74,-0.29 -3.28,-1.1 -1.54,-0.81 -2.76,-2.09 -1.22,-1.28 -1.95,-2.86 -0.73,-1.58 -0.94,-3.33 -0.21,-1.75 0.18,-3.46 0.39,-1.71 1.27,-3.21 0.88,-1.5 2.24,-2.65 1.36,-1.15 1.33,-1.14 -0.03,0.01 -1.14,1.42 -1.11,1.41 0.36,-2.6 1.47,-4.01 3.3,-8.61 1.83,-4.6 3.59,-8.42 1.76,-3.82 3.84,-8.49 2.08,-4.67 4.27,-9.32 2.19,-4.65 4.91,-9.23 2.72,-4.58 5.93,-9.81 3.21,-5.23 5.67,-8.65 2.46,-3.42 5.51,-8.01 3.05,-4.59 5.61,-8.45 2.56,-3.86 5.31,-8.31 2.75,-4.45 4.74,-8.39 1.99,-3.94 3.53,-7.64 1.54,-3.7 3.87,-8.39 2.33,-4.69 4.63,-10.01 2.3,-5.32 4.58,-9.47 2.28,-4.15 4.16,-8.22 1.88,-4.07 4.31,-8.58 2.43,-4.51 4.66,-8.71 2.23,-4.2 4.3,-8.47 2.07,-4.27 3.62,-6.78 1.55,-2.51 2.06,-3.19 0.51,-0.68 1.15,-1.19 0.64,-0.51 1.39,-0.89 0.75,-0.38 1.57,-0.53 0.82,-0.15 1.64,-0.14 0.82,0.01 1.63,0.26 0.81,0.25 1.53,0.64 0.72,0.39 1.32,0.99 0.6,0.6 1.05,1.28 0.45,0.68 0.71,1.49 0.26,0.81 0.34,1.62 0.08,0.81 -0.06,1.65 -0.14,0.84 -0.46,1.59 z"
       fill="var(--ifm-text-color)"
       stroke="none"
       id="path4" />
    <path
       d="m 631.6,363.7 q 10.34,-2.34 16.57,-3.12 6.23,-0.78 12.77,-1.56 6.54,-0.78 12.87,-1.43 6.33,-0.65 12.61,-0.92 6.28,-0.27 14.59,-0.69 8.31,-0.42 16.11,-1.05 7.8,-0.63 12.36,-0.92 4.56,-0.29 8.6,-0.54 4.04,-0.25 8.08,-0.47 4.04,-0.22 8.71,-0.41 4.67,-0.19 8.96,-0.37 4.29,-0.18 8.27,-1.34 3.98,-1.16 8.92,-1.32 4.94,-0.16 9.53,-0.23 4.59,-0.07 7.51,-0.13 2.92,-0.06 4.51,0.22 1.59,0.28 2.98,1 1.39,0.72 2.5,1.9 1.11,1.18 1.76,2.6 0.65,1.42 0.85,3.03 0.2,1.61 -0.17,3.14 -0.37,1.53 -1.17,2.92 -0.8,1.39 -2.03,2.39 -1.23,1 -2.7,1.62 -1.47,0.62 -3.07,0.68 -1.6,0.06 -3.12,-0.34 -1.52,-0.4 -2.85,-1.32 -1.33,-0.92 -2.28,-2.16 -0.95,-1.24 -1.47,-2.78 -0.52,-1.54 -0.51,-3.1 0.01,-1.56 0.51,-3.1 0.5,-1.54 1.47,-2.78 0.97,-1.24 2.28,-2.16 1.31,-0.92 2.85,-1.32 1.54,-0.4 3.13,-0.34 1.59,0.06 3.07,0.68 1.48,0.62 2.69,1.62 1.21,1 2.03,2.39 0.82,1.39 1.17,2.92 0.35,1.53 0.17,3.14 -0.18,1.61 -0.85,3.03 -0.67,1.42 -1.76,2.6 -1.09,1.18 -2.5,1.9 -1.41,0.72 -2.98,1 -1.57,0.28 -1.57,0.26 0,-0.02 -2.94,-0.04 -2.94,-0.02 -7.51,-0.13 -4.57,-0.11 -9.57,-1.1 -5,-0.99 -9.51,0.66 -4.51,1.65 -9.22,1.48 -4.71,-0.17 -9.59,-0.4 -4.88,-0.23 -9.01,-0.45 -4.13,-0.22 -8.68,-0.45 -4.55,-0.23 -10.9,-0.23 -6.35,0 -10.46,0.19 -4.11,0.19 -12.24,0.15 -8.13,-0.04 -14.02,0.22 -5.89,0.26 -12.05,1 -6.16,0.74 -12.69,1.73 -6.53,0.99 -12.21,1.8 -5.68,0.81 -10.82,1.9 -5.14,1.09 -5.95,1.2 -0.81,0.11 -1.55,-0.03 -0.74,-0.14 -1.49,-0.41 -0.75,-0.27 -1.35,-0.75 -0.6,-0.48 -1.13,-1.05 -0.53,-0.57 -0.85,-1.29 -0.32,-0.72 -0.51,-1.45 -0.19,-0.73 -0.15,-1.54 0.04,-0.81 0.22,-1.53 0.18,-0.72 0.58,-1.43 0.4,-0.71 0.91,-1.25 0.51,-0.54 1.18,-0.99 0.67,-0.45 1.38,-0.69 z"
       fill="var(--ifm-text-color)"
       stroke="none"
       id="path5" />
  </g>
</svg>
