<?xml version="1.0" encoding="UTF-8" standalone="no"?>
<svg
   viewBox="1240 98 269.5 310.5"
   style="height: 310.5px; width: 269.5px; position: absolute; overflow: visible;"
   version="1.1"
   id="svg1"
   sodipodi:docname="logo.svg"
   inkscape:version="1.4 (86a8ad7, 2024-10-11)"
   xmlns:inkscape="http://www.inkscape.org/namespaces/inkscape"
   xmlns:sodipodi="http://sodipodi.sourceforge.net/DTD/sodipodi-0.dtd"
   xmlns="http://www.w3.org/2000/svg"
   xmlns:svg="http://www.w3.org/2000/svg">
  <defs
     id="defs1" />
  <sodipodi:namedview
     id="namedview1"
     pagecolor="#ffffff"
     bordercolor="#000000"
     borderopacity="0.25"
     inkscape:showpageshadow="2"
     inkscape:pageopacity="0.0"
     inkscape:pagecheckerboard="0"
     inkscape:deskcolor="#d1d1d1"
     inkscape:zoom="2.5990338"
     inkscape:cx="134.85781"
     inkscape:cy="155.25"
     inkscape:window-width="1920"
     inkscape:window-height="1009"
     inkscape:window-x="1912"
     inkscape:window-y="-8"
     inkscape:window-maximized="1"
     inkscape:current-layer="svg1" />
  <path
     d="m 1301.4072,203.11982 q 7.1211,5.43442 11.6975,8.82856 4.5764,3.39415 8.8347,6.76922 4.2582,3.37506 7.8701,6.29249 3.6119,2.91744 7.1313,5.8444 3.5195,2.92696 8.65,7.38892 5.1304,4.46196 9.6247,8.13258 4.4944,3.67062 8.927,6.86454 4.4328,3.19392 8.9168,6.85502 4.4841,3.66108 8.8655,7.23637 4.3813,3.57529 7.8291,6.47365 3.4477,2.89836 7.0594,6.42597 3.6119,3.52762 10.2199,9.10507 6.6082,5.57743 11.954,9.97266 5.346,4.3952 8.7218,7.97049 3.3759,3.57529 7.3777,8.04677 4.0018,4.4715 7.9624,8.80951 3.9608,4.33801 7.5726,8.4472 3.6119,4.10919 5.4793,10.73538 1.8675,6.62619 -3.2937,9.31481 -5.1613,2.68861 -9.3375,0.73413 -4.1761,-1.95449 -8.4652,-3.81364 -4.2891,-1.85915 -8.691,-3.17485 -4.402,-1.31571 -8.4037,-2.52653 -4.0018,-1.21083 -9.6453,-2.04984 -5.6435,-0.839 -12.3234,-2.10703 -6.6798,-1.26804 -13.0109,-3.40368 -6.331,-2.13563 -13.5546,-5.22468 -7.2237,-3.08904 -12.4671,-7.16963 -5.2433,-4.08059 -6.0539,-8.23746 -0.8106,-4.15686 1.1389,-8.73322 1.9495,-4.57637 5.3973,-9.99173 3.4477,-5.41536 6.0744,-9.40061 2.6269,-3.98525 4.7713,-7.83702 2.1446,-3.85178 5.0485,-8.62836 2.9037,-4.77658 6.7414,-10.94514 3.8375,-6.16855 7.3468,-13.43353 3.5093,-7.26498 6.2489,-14.86365 2.7397,-7.59867 5.1921,-14.7397 2.4523,-7.14103 3.8683,-12.38479 1.416,-5.24374 3.735,-12.87102 2.3189,-7.62727 3.7452,-13.85302 1.4263,-6.22577 2.1958,-11.02142 0.7697,-4.79565 1.611,-9.65803 0.8414,-4.86239 1.4263,-9.53409 0.585,-4.67171 0.7286,-8.56162 0.1436,-3.8899 0.3181,-4.62404 0.1743,-0.73412 0.5438,-1.36336 0.3693,-0.62925 0.8722,-1.21084 0.5027,-0.58158 1.1594,-0.97248 0.6567,-0.39088 1.3852,-0.69598 0.7286,-0.30509 1.5084,-0.36229 0.7798,-0.0572 1.5699,-0.0191 0.7901,0.0382 1.5289,0.3337 0.7388,0.29555 1.3955,0.65784 0.6567,0.36231 1.1902,0.95342 0.5336,0.59112 0.903,1.18223 0.3694,0.59111 0.5746,1.36338 0.2052,0.77226 0.2052,1.43964 0,0.66739 -3.3348,3.13672 -3.3348,2.46933 -7.829,7.32218 -4.4943,4.85285 -8.3114,8.38046 -3.817,3.52762 -7.3879,7.22684 -3.5708,3.69923 -6.8132,7.53193 -3.2425,3.8327 -6.5567,9.89638 -3.3143,6.0637 -5.4383,12.3848 -2.124,6.3211 -3.3554,10.83072 -1.2313,4.50964 -1.2108,9.18133 0.02,4.67171 -0.6669,8.90485 -0.6875,4.23312 -0.7081,8.76182 -0.02,4.5287 -0.011,10.068 0.011,5.53931 0.071,10.08707 0.061,4.54776 -0.01,8.32326 -0.072,3.7755 -0.359,9.11459 -0.2873,5.3391 -0.7183,10.54471 -0.431,5.20561 -1.0056,11.96528 -0.5746,6.75966 -0.708,11.01188 -0.1334,4.2522 -0.9542,10.83072 -0.8209,6.57853 -1.3135,11.01188 -0.4925,4.43334 -1.0055,9.47689 -0.513,5.04353 -1.0672,9.51502 -0.554,4.47149 -1.4159,9.41969 -0.8619,4.94819 -1.8676,10.5733 -1.0055,5.62511 -1.9392,10.75446 -0.9338,5.12933 -1.7649,11.0786 -0.8311,5.94928 -1.7136,8.21839 -0.8825,2.26912 -1.4263,3.14625 -0.5438,0.87714 -1.3544,1.65893 -0.8106,0.78179 -1.7341,1.31571 -0.9235,0.53391 -2.0214,0.88666 -1.0979,0.35277 -2.1959,0.41951 -1.0979,0.0667 -2.2368,-0.0954 -1.139,-0.16208 -2.1548,-0.58159 -1.0159,-0.41949 -1.9394,-1.0392 -0.9234,-0.61972 -1.611,-1.44919 -0.6874,-0.82946 -1.1902,-1.75427 -0.5028,-0.9248 -0.708,-1.97357 -0.2052,-1.04874 -0.1744,-2.07842 0.031,-1.02968 0.3693,-2.04983 0.3387,-1.02015 0.02,-7.82748 -0.318,-6.80735 -0.2256,-10.91655 0.092,-4.10919 0.4822,-8.82856 0.3899,-4.71937 1.3646,-12.44198 0.9749,-7.72262 2.945,-17.37112 1.9701,-9.6485 4.5251,-19.36374 2.5549,-9.71524 4.1864,-16.49398 1.6315,-6.77874 3.5401,-12.66127 1.9085,-5.88254 6.5465,-15.102 4.6379,-9.21947 7.7366,-14.81599 3.0989,-5.59649 6.9262,-10.31588 3.8273,-4.71937 8.5986,-9.00017 4.7714,-4.28081 8.9886,-7.18872 4.2173,-2.90789 8.219,-5.05307 4.0019,-2.14516 8.4242,-4.61449 4.4225,-2.46933 8.2499,-4.29033 3.8273,-1.82103 4.371,-1.97357 0.544,-0.15254 1.4982,-0.28602 0.9542,-0.13347 1.7854,-0.11441 0.8311,0.0191 1.7649,0.29555 0.9337,0.2765 1.6315,0.67693 0.6977,0.40043 1.4159,1.02014 0.7183,0.61973 1.1083,1.30618 0.3899,0.68646 0.7388,1.51591 0.3488,0.82948 0.3283,1.63034 -0.021,0.80086 -0.1026,1.65893 -0.082,0.85806 -0.5234,1.5922 -0.4411,0.73412 -0.9235,1.42057 -0.4822,0.68645 -1.262,1.18223 -0.7798,0.49577 -1.5289,0.85806 -0.749,0.3623 -8.3729,3.1844 -7.6239,2.82209 -15.4735,6.11135 -7.8495,3.28926 -17.6181,7.34124 -9.7684,4.052 -17.9052,7.84656 -8.1369,3.79458 -17.0435,8.08491 -8.9064,4.29034 -19.2187,8.86671 -10.3122,4.57636 -18.2952,8.1135 -7.983,3.53716 -11.9848,5.7872 -4.0017,2.25004 -8.4036,4.64311 -4.402,2.39306 -9.9737,5.52023 -5.5716,3.12719 -9.5837,5.8444 -4.012,2.71722 -7.5931,5.52977 -3.581,2.81256 -7.1005,5.86346 -3.5195,3.05091 -7.1827,5.93974 -3.6631,2.88884 -8.9065,-0.0381 -5.2433,-2.92697 -1.3442,-4.49055 3.8991,-1.5636 15.5659,-3.45136 11.6667,-1.88774 24.5543,-4.17592 12.8878,-2.28818 24.1645,-4.54776 11.2768,-2.25958 20.2654,-4.25221 8.9885,-1.99262 17.9772,-4.42382 8.9885,-2.43118 15.9455,-4.14732 6.9568,-1.71614 14.95,-3.18439 7.9934,-1.46825 18.8084,-3.4132 10.815,-1.94495 24.1029,-4.9196 13.2879,-2.97463 26.9041,-6.6834 13.6164,-3.70875 20.3988,-6.13995 6.7825,-2.43119 11.0407,-4.44288 4.2583,-2.01169 8.1267,-4.0806 3.8683,-2.06889 6.6902,-3.64201 2.8217,-1.57313 3.5092,-1.69707 0.6875,-0.12395 1.4776,-0.0954 0.7901,0.0286 1.4571,0.24789 0.6669,0.21927 1.3543,0.5625 0.6875,0.34323 1.1698,0.839 0.4823,0.49577 0.9234,1.08689 0.4413,0.59111 0.6158,1.24896 0.1743,0.65785 0.2667,1.35384 0.092,0.69599 -0.082,1.37291 -0.1744,0.67693 -0.4309,1.32524 -0.2566,0.64832 -0.7593,1.18223 -0.5028,0.53391 -1.0467,0.97247 -0.5438,0.43857 -1.262,0.71507 -0.7183,0.27648 -9.1938,3.3274 -8.4757,3.0509 -15.3402,4.91958 -6.8645,1.86868 -21.0348,3.91851 -14.1704,2.04983 -26.9658,3.35601 -12.7953,1.30616 -22.656,2.08796 -9.8609,0.78179 -19.1881,1.06782 -9.3272,0.28602 -19.9369,0.93435 -10.6098,0.6483 -18.0079,1.50638 -7.3981,0.85806 -11.7796,1.96401 -4.3814,1.10596 -8.8347,3.26066 -4.4533,2.15471 -5.2125,2.86977 -0.7593,0.71506 -1.416,1.08688 -0.6567,0.37183 -1.3134,0.61019 -0.6567,0.23835 -1.4469,0.30509 -0.7901,0.0668 -1.4673,-0.0286 -0.6772,-0.0953 -1.4262,-0.35275 -0.749,-0.25742 -1.2929,-0.66739 -0.5438,-0.40996 -1.0877,-0.9248 -0.5437,-0.51485 -0.8106,-1.1441 -0.2667,-0.62925 -0.4924,-1.29664 -0.2258,-0.66739 -0.154,-1.36337 0.072,-0.69599 0.2052,-1.35384 0.1334,-0.65786 0.5542,-1.26803 0.4206,-0.61019 0.8619,-1.1155 0.4411,-0.5053 1.7443,-5.69185 1.3031,-5.18654 4.1249,-12.02249 2.8218,-6.83595 4.9457,-13.22378 2.1241,-6.38784 3.0886,-11.6888 0.9645,-5.30095 1.3237,-9.12412 0.3591,-3.82317 0.4309,-8.85717 0.071,-5.034 -0.6669,-15.98867 -0.7387,-10.95468 -1.6316,-18.97285 -0.8926,-8.01817 -2.6062,-18.49613 -1.7136,-10.47796 -3.0578,-18.84889 -1.3441,-8.37094 -2.3806,-13.50981 -1.0362,-5.13887 -2.3804,-9.229 -1.3442,-4.09013 -1.6007,-5.20562 -0.2565,-1.11548 -0.3079,-1.80194 -0.052,-0.68645 0.1642,-1.31571 0.2155,-0.62925 0.5028,-1.23942 0.2873,-0.61019 0.8004,-1.09642 0.513,-0.48625 1.0671,-0.88667 0.5541,-0.40043 1.2621,-0.61972 0.7081,-0.21928 1.3749,-0.32416 0.667,-0.10488 1.4365,-0.01 0.7696,0.0953 1.3853,0.30509 0.6157,0.20975 1.2621,0.61018 0.6464,0.40044 1.0774,0.87714 0.431,0.4767 0.8208,1.08688 0.3899,0.61019 0.5131,1.23944 0.1232,0.62925 1.888,6.10182 1.7649,5.47256 3.6529,10.94513 1.8881,5.47258 3.9095,11.47904 2.0213,6.00649 4.3403,13.51936 2.319,7.51285 3.8376,13.97697 1.5187,6.46411 2.9757,12.31804 1.4569,5.85394 2.8422,9.88685 1.3853,4.03292 3.694,12.99497 2.3087,8.96204 5.0073,17.63807 2.6986,8.67602 5.5307,17.91455 2.832,9.23854 4.8534,14.09139 2.0214,4.85285 3.5914,9.86779 1.5698,5.01492 3.622,10.76398 2.0522,5.74907 3.6529,10.83072 1.6007,5.08168 4.0531,12.89011 2.4524,7.80841 4.8944,15.01619 2.4421,7.20777 5.0382,13.12844 2.596,5.92067 3.8785,9.00018 1.2827,3.0795 1.4776,3.64202 0.1949,0.56251 0.1744,1.21083 -0.02,0.64833 -0.1436,1.22036 -0.1231,0.57205 -0.4412,1.1441 -0.3181,0.57203 -0.7388,1.02015 -0.4207,0.4481 -0.9645,0.81992 -0.5439,0.37184 -1.1595,0.58158 -0.6157,0.20976 -1.2723,0.31464 -0.6567,0.10487 -1.3135,0.0191 -0.6567,-0.0858 -1.2826,-0.27648 -0.6259,-0.19069 -1.1697,-0.55299 -0.5439,-0.3623 -0.9953,-0.80086 -0.4515,-0.43857 -0.7593,-0.99155 -0.3079,-0.55298 -4.8535,-5.86347 -4.5455,-5.31048 -8.6191,-10.10613 -4.0736,-4.79564 -7.6649,-8.65696 -3.5914,-3.8613 -7.9728,-8.87624 -4.3815,-5.01492 -8.0343,-8.60928 -3.6529,-3.59435 -11.0407,-8.54255 -7.3879,-4.94819 -12.8364,-8.17071 -5.4486,-3.22252 -11.677,-5.26281 -6.2284,-2.0403 -12.8467,-3.43227 -6.6184,-1.39199 -11.8,-2.39307 -5.1819,-1.00108 -10.6817,-1.56358 -5.4998,-0.56251 -8.4344,-1.02968 -2.9347,-0.46718 -3.8787,-0.7818 -0.944,-0.31463 -1.7853,-0.77226 -0.8415,-0.45765 -1.5187,-1.15364 -0.6772,-0.69598 -1.1903,-1.45871 -0.513,-0.76272 -0.7799,-1.678 -0.2667,-0.91527 -0.3181,-1.80195 -0.052,-0.88666 0.154,-1.821 0.2052,-0.93435 0.6157,-1.7352 0.4103,-0.80087 1.0466,-1.54453 0.6361,-0.74366 1.416,-1.26803 0.7798,-0.52437 1.693,-0.91527 0.9132,-0.39091 1.8881,-0.51484 0.9747,-0.12395 1.9598,-0.0763 0.985,0.0477 5.6127,0.59111 4.6277,0.54344 14.8886,2.61235 10.261,2.06888 21.5788,4.21406 11.3177,2.14517 28.197,5.04353 16.8793,2.89836 33.7174,5.32956 16.8381,2.43119 25.1291,3.48948 8.2907,1.05827 13.0005,1.27756 4.7098,0.21928 10.2609,0.0763 5.5512,-0.14301 11.1331,-0.0476 5.582,0.0953 6.9057,0.0763 1.3236,-0.0191 2.1855,0.21928 0.8619,0.23836 1.5494,0.59111 0.6875,0.35277 1.3647,0.90575 0.6773,0.55297 1.0877,1.19176 0.4104,0.63878 0.749,1.40151 0.3387,0.76273 0.3695,1.51592 0.031,0.7532 -0.031,1.56359 -0.061,0.81041 -0.4412,1.50639 -0.3797,0.69599 -0.8107,1.36338 -0.4309,0.66738 -1.1389,1.15362 -0.708,0.48624 -1.4058,0.85807 -0.6977,0.37183 -1.5802,0.52438 -0.8824,0.15254 -1.6725,0.15254 -0.7901,0 -10.4661,-0.3909 -9.676,-0.3909 -16.4791,-0.58158 -6.803,-0.19068 -19.5984,1.61126 -12.7954,1.80194 -24.031,4.6431 -11.2358,2.84117 -21.6403,6.39738 -10.4046,3.55621 -17.8541,7.15056 -7.4494,3.59436 -13.5341,7.29359 -6.0848,3.69923 -11.4307,7.7226 -5.346,4.0234 -8.5782,6.49273 -3.2321,2.46932 -6.608,4.84331 -3.3759,2.37399 -7.4495,4.73845 -4.0735,2.36446 -8.342,5.44396 -4.2686,3.07951 -5.5307,3.6611 -1.2621,0.58157 -2.0009,0.95341 -0.7388,0.37182 -1.6725,0.49577 -0.9337,0.12394 -1.7547,0.1144 -0.8208,-0.01 -1.7341,-0.28601 -0.9131,-0.2765 -1.6007,-0.65786 -0.6874,-0.38137 -1.3955,-1.00108 -0.7079,-0.61971 -1.0978,-1.27757 -0.39,-0.65785 -0.7285,-1.48732 -0.3387,-0.82946 -0.3285,-1.60172 0.011,-0.77226 0.092,-1.63033 0.082,-0.85807 0.513,-1.56359 0.431,-0.70553 0.903,-1.40151 0.4721,-0.69599 1.2313,-1.16317 0.7593,-0.46716 9.1117,-6.40691 8.3524,-5.93973 17.3205,-12.15596 8.968,-6.21623 21.4658,-14.15812 12.4979,-7.9419 21.2094,-12.84243 8.7115,-4.90052 18.8904,-10.32541 10.1788,-5.42491 17.7924,-9.49596 7.6137,-4.07105 12.9493,-7.6082 5.3357,-3.53715 13.6369,-7.4366 8.301,-3.89943 18.8492,-8.3614 10.5483,-4.46194 18.0798,-7.36984 7.5315,-2.9079 14.1088,-5.65372 6.5772,-2.74582 11.4614,-5.71091 4.8841,-2.96512 8.0446,-5.89207 3.1603,-2.92698 6.5465,-6.47365 3.3861,-3.54669 5.6333,-7.36986 2.2471,-3.82318 3.6733,-6.03509 1.4263,-2.2119 1.9803,-2.66953 0.5542,-0.45764 1.4059,-0.68646 0.8516,-0.22882 1.5391,-0.34323 0.6874,-0.1144 1.5802,0.01 0.8927,0.12395 1.539,0.35276 0.6465,0.22882 1.3955,0.68645 0.7491,0.45765 1.1801,0.98202 0.4309,0.52437 0.8927,1.21083 0.4617,0.68645 0.5541,1.38244 0.092,0.69598 0.1847,1.45872 0.091,0.76272 -0.1949,1.45871 -0.2875,0.696 -0.5644,1.37292 -0.2771,0.67692 -0.9029,1.20129 -0.626,0.52438 -6.2695,4.62403 -5.6435,4.09967 -10.5482,7.27451 -4.9048,3.17485 -11.9643,6.95989 -7.0594,3.78503 -17.0126,8.72369 -9.9532,4.93867 -25.8781,13.34773 -15.9249,8.40906 -25.7858,13.48121 -9.8607,5.07213 -20.1523,10.5733 -10.2918,5.50118 -18.2029,10.38262 -7.9112,4.88146 -16.2124,10.32542 -8.301,5.44397 -13.3084,8.92391 -5.0073,3.47995 -8.9988,6.75014 -3.9915,3.2702 -4.679,3.94712 -0.6875,0.67691 -1.221,1.00107 -0.5336,0.32417 -1.3032,0.39091 -0.7695,0.0667 -1.3647,0.10487 -0.595,0.0381 -1.3544,-0.20974 -0.7593,-0.2479 -1.2518,-0.50532 -0.4926,-0.25742 -1.0979,-0.76272 -0.6054,-0.50531 -0.862,-0.99155 -0.2566,-0.48625 -0.5849,-1.15363 -0.3284,-0.66738 -0.2667,-1.24897 0.061,-0.58157 0.061,-1.26803 0,-0.68645 0.3797,-1.22036 0.3797,-0.5339 0.6874,-1.10595 0.3079,-0.57205 0.9544,-0.91528 0.6463,-0.34323 7.9316,-1.48732 7.2852,-1.14408 16.951,-1.8782 9.6659,-0.73414 19.9063,-1.04876 10.2404,-0.31462 22.4202,-0.3337 12.1797,-0.0191 23.6719,1.32524 11.4923,1.34432 19.1264,3.34647 7.6341,2.00217 12.9287,3.76597 5.2947,1.76381 10.7021,3.90897 5.4075,2.14517 11.2872,3.61343 5.8794,1.46824 10.1171,2.04982 4.2379,0.58158 6.5466,0.54345 2.3087,-0.0381 3.5297,0.20974 1.2211,0.24789 2.0933,0.73413 0.8721,0.48625 1.7238,1.30616 0.8517,0.81994 1.1902,1.75429 0.3387,0.93433 0.5131,2.02123 0.1744,1.08687 -0.1949,2.05936 -0.3695,0.97247 -0.903,1.90681 -0.5336,0.93435 -1.4981,1.52546 -0.9645,0.59111 -1.9497,1.01061 -0.9849,0.41951 -2.1957,0.37183 -1.2109,-0.0476 -2.2164,-0.29555 -1.0055,-0.24789 -1.9907,-0.93435 -0.985,-0.68645 -1.5596,-1.47778 -0.5746,-0.79133 -0.9748,-1.86868 -0.4001,-1.07735 -0.2872,-2.05937 0.1129,-0.98201 0.4411,-2.03075 0.3284,-1.04876 1.1185,-1.79241 0.7901,-0.74366 1.6725,-1.37292 0.8825,-0.62924 2.0521,-0.81039 1.1699,-0.18115 2.2267,-0.14301 1.0569,0.0381 2.1651,0.51484 1.1082,0.47671 1.8674,1.12502 0.7594,0.64831 1.3853,1.63034 0.6259,0.982 0.749,1.95449 0.1232,0.97246 0.041,2.06888 -0.082,1.09642 -0.667,1.98309 -0.5849,0.88667 -1.3237,1.66848 -0.7387,0.78179 -1.8161,1.20129 -1.0773,0.4195 -2.1445,0.59111 -1.0672,0.17162 -1.1185,0.13348 -0.052,-0.0381 -3.2322,-0.38136 -3.1809,-0.34323 -8.0035,-1.57313 -4.8226,-1.2299 -11.2973,-3.6611 -6.4746,-2.43119 -11.4615,-4.71936 -4.9868,-2.28819 -9.7581,-4.29035 -4.7713,-2.00216 -11.6154,-3.89944 -6.8439,-1.89728 -17.7719,-3.08905 -10.9279,-1.19175 -22.8921,-0.91527 -11.9643,0.27649 -21.8968,0.82947 -9.9326,0.55298 -19.1367,1.69706 -9.204,1.14409 -14.4885,1.48732 -5.2843,0.34323 -5.9615,0.61018 -0.6772,0.26696 -1.3032,0.39091 -0.6259,0.12393 -1.3647,0.10487 -0.7388,-0.0191 -1.3544,-0.20974 -0.6157,-0.1907 -1.2518,-0.50532 -0.6362,-0.31462 -1.0979,-0.76272 -0.4618,-0.44811 -0.862,-0.99155 -0.4002,-0.54344 -0.5849,-1.15363 -0.1846,-0.61018 -0.2667,-1.24897 -0.082,-0.63878 0.061,-1.26803 0.1438,-0.62924 0.3797,-1.22036 0.236,-0.59111 0.6874,-1.10595 0.4516,-0.51484 0.9544,-0.91528 0.5027,-0.40043 1.1799,-0.94387 0.6773,-0.54345 4.9253,-3.0223 4.248,-2.47887 9.4606,-5.77767 5.2125,-3.29879 13.5342,-8.8095 8.3216,-5.5107 16.4071,-10.75445 8.0857,-5.24376 18.2954,-10.8498 10.2095,-5.60605 19.8959,-11.00234 9.6863,-5.39629 25.4368,-14.07231 15.7505,-8.67604 25.2213,-14.08186 9.4708,-5.40583 15.7711,-9.35294 6.3002,-3.94712 11.0202,-7.21731 4.7201,-3.27019 10.2609,-6.7406 5.5409,-3.47041 6.2182,-3.88991 0.6773,-0.4195 1.4058,-0.68645 0.7285,-0.26696 1.5391,-0.34323 0.8106,-0.0763 1.5803,0.01 0.7695,0.0858 1.539,0.35275 0.7695,0.26696 1.3955,0.68646 0.6259,0.4195 1.18,0.98202 0.5541,0.5625 0.8927,1.21083 0.3386,0.64831 0.5541,1.38243 0.2155,0.73413 0.1847,1.45872 -0.031,0.7246 -0.1949,1.45872 -0.1643,0.73412 -0.5644,1.37292 -0.4003,0.63877 -0.9029,1.20129 -0.5029,0.56251 -0.9235,1.32523 -0.4207,0.76273 -3.8786,4.91959 -3.458,4.15687 -7.4598,7.99911 -4.0017,3.84223 -8.0857,6.82641 -4.0838,2.98417 -9.7273,6.05414 -5.6434,3.06998 -12.3132,5.63465 -6.6695,2.56468 -14.0574,5.54884 -7.3879,2.98417 -17.6488,7.39846 -10.261,4.41427 -18.0181,8.31372 -7.7573,3.89945 -13.4214,7.30312 -5.664,3.40367 -13.2263,7.73214 -7.5623,4.32848 -17.4333,9.81058 -9.871,5.48211 -18.1619,10.61145 -8.2908,5.12934 -20.1832,13.19518 -11.8924,8.06584 -20.3988,14.85412 -8.5063,6.78826 -17.2589,13.6242 -8.7525,6.83595 -9.5939,7.18872 -0.8414,0.35275 -1.6725,0.49577 -0.8312,0.143 -1.7547,0.1144 -0.9234,-0.0286 -1.7341,-0.28601 -0.8106,-0.25742 -1.6007,-0.65786 -0.79,-0.40043 -1.3955,-1.00108 -0.6054,-0.60065 -1.0876,-1.27757 -0.4822,-0.67692 -0.7387,-1.48732 -0.2567,-0.8104 -0.3285,-1.60172 -0.071,-0.79133 0.092,-1.63033 0.1642,-0.839 0.5131,-1.5636 0.3489,-0.72459 0.9029,-1.4015 0.5541,-0.67693 1.2314,-1.16317 0.6772,-0.48623 1.9803,-0.98201 1.3032,-0.49577 6.331,-3.35599 5.0279,-2.86023 10.1993,-5.15796 5.1716,-2.29771 10.6305,-5.30094 5.4587,-3.00324 11.2767,-7.17917 5.8179,-4.17594 12.2104,-8.07538 6.3926,-3.89945 14.3449,-7.93236 7.9521,-4.03292 18.5826,-8.03724 10.6302,-4.00432 22.4508,-7.41752 11.8206,-3.41321 25.5703,-5.93022 13.7495,-2.51699 20.7475,-2.64094 6.998,-0.12393 17.4436,0.21929 10.4456,0.34323 11.3075,0.54344 0.8619,0.20022 1.5494,0.59111 0.6875,0.39091 1.3648,0.90575 0.6772,0.51484 1.0876,1.19176 0.4105,0.67692 0.749,1.40151 0.3387,0.7246 0.3695,1.51592 0.031,0.79133 -0.031,1.56359 -0.061,0.77226 -0.4412,1.50639 -0.3797,0.73413 -0.8106,1.36338 -0.431,0.62924 -1.1389,1.15361 -0.7081,0.52439 -1.3956,0.85808 -0.6875,0.33369 -1.5904,0.52438 -0.903,0.19067 -1.6725,0.15253 -0.7696,-0.0381 -2.6268,-0.33368 -1.8573,-0.29556 -6.095,-0.90575 -4.2378,-0.61017 -10.2097,-1.19175 -5.9718,-0.58159 -10.6713,-1.21084 -4.6995,-0.62925 -13.2367,-1.43011 -8.5371,-0.80086 -25.4778,-2.86977 -16.9407,-2.06889 -33.9945,-4.46194 -17.0537,-2.39306 -28.4125,-3.82317 -11.3589,-1.43013 -21.3736,-2.45981 -10.0145,-1.02968 -15.3606,-1.46825 -5.3459,-0.43856 -6.3719,-0.71505 -1.0262,-0.27649 -1.7854,-0.77226 -0.7593,-0.49578 -1.5187,-1.15363 -0.7593,-0.65785 -1.1903,-1.45871 -0.4309,-0.80086 -0.7695,-1.67801 -0.3386,-0.87713 -0.3284,-1.80194 0.01,-0.9248 0.1539,-1.821 0.1436,-0.89622 0.6157,-1.72567 0.472,-0.82948 1.0466,-1.55407 0.5747,-0.72458 1.416,-1.26802 0.8414,-0.54346 1.6931,-0.91527 0.8516,-0.37184 1.888,-0.51484 1.0364,-0.14303 1.9598,-0.0763 0.9234,0.0668 3.8992,0.78179 2.9757,0.71506 7.1006,1.41105 4.1249,0.69599 9.0706,2.0975 4.9458,1.40151 9.2451,2.84116 4.2993,1.43964 12.2105,3.8899 7.9112,2.45027 11.4922,4.39522 3.581,1.94496 9.2041,5.32003 5.6229,3.37507 14.2318,8.74276 8.609,5.36769 12.3645,9.29573 3.7555,3.92806 8.1882,8.86671 4.4327,4.93865 7.9728,9.00971 3.5401,4.07107 7.6547,8.95251 4.1145,4.88145 9.2964,11.50765 5.1817,6.6262 5.2946,7.20778 0.1128,0.58157 0.1743,1.21083 0.061,0.62924 -0.1436,1.22036 -0.2052,0.59111 -0.4412,1.1441 -0.236,0.55297 -0.7284,1.02014 -0.4926,0.46716 -0.9748,0.81993 -0.4823,0.35276 -1.1596,0.58158 -0.6772,0.22882 -1.2723,0.31463 -0.5952,0.0858 -1.3134,0.0191 -0.7183,-0.0667 -1.2827,-0.27648 -0.5642,-0.20976 -1.1696,-0.55298 -0.6054,-0.34323 -0.9953,-0.80087 -0.39,-0.45763 -0.7594,-0.99155 -0.3694,-0.5339 -1.2108,-3.74689 -0.8413,-3.21299 -3.4989,-9.39108 -2.6577,-6.17809 -5.3768,-13.3668 -2.7192,-7.1887 -5.7153,-15.09247 -2.9962,-7.90375 -4.2481,-12.80428 -1.2517,-4.90051 -3.4066,-10.93559 -2.1548,-6.03509 -3.263,-10.78307 -1.1081,-4.74797 -2.8936,-9.86778 -1.7853,-5.11981 -4.8431,-14.28207 -3.0578,-9.16225 -6.1772,-17.88594 -3.1192,-8.72371 -5.8999,-17.57134 -2.7808,-8.84763 -3.9197,-13.10937 -1.1389,-4.26174 -2.5755,-10.26823 -1.4365,-6.00647 -2.832,-11.87947 -1.3955,-5.873 -4.2685,-13.30959 -2.8731,-7.43659 -5.0176,-13.25238 -2.1446,-5.81581 -4.2173,-11.53626 -2.0726,-5.72046 -3.54,-12.12736 -1.4673,-6.40691 -1.4366,-7.12196 0.03,-0.71506 0.1643,-1.32525 0.1333,-0.61017 0.5027,-1.23942 0.3694,-0.62926 0.8004,-1.09642 0.4309,-0.46718 1.0671,-0.88668 0.6362,-0.4195 1.2621,-0.61971 0.626,-0.20022 1.3749,-0.32417 0.7491,-0.12393 1.4366,-0.01 0.6875,0.11442 1.3852,0.30509 0.6978,0.19068 1.2621,0.61019 0.5644,0.41949 1.0774,0.87713 0.5131,0.45764 0.8209,1.08688 0.3077,0.62925 0.5131,1.2299 0.2052,0.60065 0.2257,1.50639 0.02,0.90574 0.667,5.16748 0.6465,4.26174 1.3338,9.52455 0.6875,5.26283 2.2164,13.50028 1.5289,8.23745 3.5914,18.93471 2.0624,10.69724 3.3553,18.79169 1.2929,8.09444 2.6575,19.76417 1.3648,11.66972 1.098,17.09462 -0.2668,5.4249 -0.9646,9.64849 -0.6976,4.22362 -1.9598,9.925 -1.2621,5.70139 -3.2527,12.46106 -1.9907,6.75966 -4.4122,13.96744 -2.4216,7.20777 -5.6025,14.59669 -3.1809,7.38891 -3.776,7.76075 -0.5951,0.37183 -1.3134,0.61019 -0.7182,0.23835 -1.4365,0.30509 -0.7183,0.0667 -1.4776,-0.0286 -0.7594,-0.0954 -1.4263,-0.35276 -0.6669,-0.25742 -1.2928,-0.66739 -0.626,-0.40997 -1.0877,-0.92481 -0.4617,-0.51484 -0.8107,-1.14408 -0.3488,-0.62925 -0.4924,-1.28711 -0.1436,-0.65785 -0.1539,-1.36337 -0.01,-0.70552 0.2052,-1.36338 0.2154,-0.65785 0.5541,-1.26803 0.3386,-0.61018 0.8619,-1.11549 0.5233,-0.5053 2.8935,-1.77334 2.3703,-1.26803 8.1576,-3.08905 5.7871,-1.821 10.6713,-2.55513 4.8841,-0.73413 12.5081,-1.55406 7.6237,-0.81993 18.3567,-1.62079 10.733,-0.80087 19.7832,-1.25851 9.05,-0.45762 18.7466,-1.50638 9.6967,-1.04875 22.1841,-2.68861 12.4877,-1.63986 25.7858,-4.01386 13.2982,-2.37398 19.8036,-4.38568 6.5054,-2.01169 15.3092,-4.97679 8.804,-2.9651 9.553,-3.08905 0.749,-0.12395 1.4776,-0.0953 0.7285,0.0286 1.4571,0.24788 0.7285,0.21928 1.3543,0.5625 0.626,0.34323 1.1699,0.83901 0.5438,0.49577 0.9234,1.08689 0.3797,0.59111 0.6157,1.24896 0.2359,0.65785 0.2667,1.35384 0.031,0.69599 -0.082,1.37291 -0.1129,0.67692 -0.431,1.32524 -0.3181,0.64832 -0.7592,1.1727 -0.4414,0.52437 -1.0468,0.982 -0.6053,0.45765 -1.262,0.71507 -0.6567,0.25742 -2.8936,1.13455 -2.2369,0.87713 -6.5259,2.34538 -4.2892,1.46825 -9.0091,3.19393 -4.7201,1.72567 -11.8308,4.10919 -7.1109,2.38352 -20.9119,6.22576 -13.8009,3.84224 -27.2427,6.95036 -13.4419,3.10811 -24.2057,5.19607 -10.7636,2.08797 -18.5003,3.65156 -7.7369,1.5636 -14.5295,3.11765 -6.7928,1.55405 -15.925,4.23314 -9.1323,2.67907 -18.1413,4.97679 -9.009,2.29771 -20.2962,4.96726 -11.2869,2.66954 -24.0823,5.52024 -12.7954,2.85069 -23.7028,5.32002 -10.9074,2.46933 -16.0789,3.44182 -5.1715,0.97246 -8.6396,-1.1441 -3.4682,-2.11658 0.3899,-7.48427 3.858,-5.36769 7.4596,-7.86562 3.6017,-2.49793 7.4905,-5.65371 3.8889,-3.15579 8.0138,-5.94928 4.1249,-2.79349 8.5166,-5.4821 4.3917,-2.68861 10.2815,-5.873 5.8898,-3.18438 10.3943,-5.30096 4.5045,-2.11656 8.9783,-4.03291 4.4738,-1.91636 12.2617,-5.61558 7.7881,-3.69924 17.9157,-8.38048 10.1275,-4.68122 18.798,-9.29573 8.6705,-4.6145 16.8793,-8.87625 8.2087,-4.26173 17.4641,-8.82855 9.2552,-4.56683 17.0331,-8.70463 7.7778,-4.1378 16.1712,-7.34125 8.3935,-3.20345 9.3477,-3.356 0.9543,-0.15254 1.7854,-0.11441 0.8311,0.0381 1.7649,0.29555 0.9337,0.25742 1.6315,0.67693 0.6977,0.41949 1.4057,1.02014 0.708,0.60065 1.1083,1.30617 0.4001,0.70553 0.749,1.51592 0.3488,0.8104 0.3283,1.63034 -0.02,0.81993 -0.1026,1.65893 -0.082,0.839 -0.5233,1.58266 -0.4412,0.74366 -0.9235,1.43011 -0.4823,0.68645 -1.262,1.18223 -0.7799,0.49577 -1.5289,0.85806 -0.7491,0.3623 -1.7341,0.38137 -0.9851,0.0191 -5.2639,1.78288 -4.2789,1.7638 -10.7227,4.59543 -6.4439,2.83163 -10.0556,4.97679 -3.612,2.14517 -7.9523,5.84439 -4.3404,3.69924 -7.6752,7.4652 -3.3348,3.76597 -6.3721,9.07646 -3.0372,5.31049 -6.8953,14.04371 -3.8581,8.73322 -5.6743,14.12 -1.8162,5.38676 -3.0064,12.24176 -1.1903,6.85502 -2.8628,16.28423 -1.6726,9.42922 -2.3703,19.06819 -0.6978,9.63896 -1.5904,16.9516 -0.8927,7.31265 -1.0056,11.57439 -0.113,4.26174 -0.1027,8.32326 0.01,4.06153 0.3387,9.16226 0.3283,5.10074 -0.061,10.25868 -0.39,5.15795 -0.8723,6.09229 -0.4823,0.93434 -1.3544,1.65893 -0.8722,0.7246 -1.7341,1.31571 -0.8619,0.59112 -2.0214,0.88666 -1.1595,0.29556 -2.1959,0.41951 -1.0363,0.12395 -2.2368,-0.0954 -1.2006,-0.21929 -2.1548,-0.58159 -0.9543,-0.36229 -1.9394,-1.03921 -0.985,-0.67692 -1.6109,-1.44918 -0.6259,-0.77226 -1.1902,-1.75428 -0.5645,-0.982 -0.7081,-1.97356 -0.1436,-0.99154 -0.1744,-2.07842 -0.031,-1.08688 0.3693,-2.04983 0.4003,-0.96294 0.8517,-3.56575 0.4516,-2.60281 1.098,-6.58805 0.6464,-3.98526 1.4263,-8.85717 0.7798,-4.87193 1.8264,-10.42077 1.0466,-5.54884 1.7751,-9.75338 0.7286,-4.20453 1.5289,-9.25759 0.8004,-5.05307 1.2518,-9.99174 0.4515,-4.93865 1.1493,-9.41015 0.6977,-4.47148 1.3133,-10.09659 0.6157,-5.62511 0.9851,-10.39217 0.3694,-4.76704 0.7388,-11.81272 0.3694,-7.0457 0.9543,-12.35619 0.5848,-5.31049 0.8106,-9.47689 0.2256,-4.1664 0.2359,-7.95144 0.011,-3.78503 0,-8.32325 -0.01,-4.53822 0.1438,-11.05955 0.1539,-6.52131 0.6053,-11.60298 0.4515,-5.08168 1.4468,-9.26714 0.9952,-4.18548 1.6315,-9.6485 0.6361,-5.46303 2.083,-9.39109 1.4468,-3.92804 4.248,-11.40277 2.8012,-7.47472 4.6994,-10.85932 1.8983,-3.38461 4.4636,-7.33172 2.5652,-3.94711 6.0642,-7.88469 3.499,-3.93758 7.3161,-8.17072 3.817,-4.23313 7.7777,-7.77981 3.9608,-3.54669 10.1275,-6.75014 6.1669,-3.20345 6.3823,-3.86132 0.2155,-0.65784 0.5439,-1.36336 0.3283,-0.70552 0.8722,-1.21084 0.5438,-0.5053 1.1594,-0.97247 0.6157,-0.46717 1.3852,-0.69599 0.7696,-0.22882 1.5084,-0.36229 0.7388,-0.13348 1.57,-0.0191 0.8311,0.11441 1.5289,0.32416 0.6977,0.20976 1.3955,0.66739 0.6977,0.45764 1.1901,0.95341 0.4927,0.49578 0.903,1.18223 0.4105,0.68646 0.5747,1.36338 0.1641,0.67692 0.2052,1.43965 0.041,0.76272 -0.7081,4.73843 -0.749,3.97572 -1.5698,8.90485 -0.821,4.92912 -1.9701,9.66756 -1.1492,4.73844 -2.2266,9.68665 -1.0775,4.94818 -2.6679,11.30742 -1.5904,6.35924 -3.5195,14.16766 -1.929,7.80842 -3.6426,13.0617 -1.7136,5.25329 -3.7863,12.52779 -2.0728,7.27453 -4.4841,15.48338 -2.4112,8.20884 -5.4177,16.28423 -3.0065,8.07536 -6.2079,14.71109 -3.2014,6.63573 -5.7153,11.39324 -2.5139,4.75752 -4.8329,9.12413 -2.3189,4.36661 -4.6071,8.13258 -2.2883,3.76595 -5.582,10.73538 -3.2939,6.96943 1.1697,8.60929 4.4635,1.63985 9.8711,3.90898 5.4074,2.2691 11.8718,3.90897 6.4645,1.63987 10.7022,2.63142 4.2377,0.99153 12.5696,2.66953 8.3318,1.67801 14.1397,3.09858 5.8076,1.42058 9.2758,5.40584 3.4682,3.98524 1.9188,8.61882 -1.5494,4.63356 -4.1249,1.50638 -2.5755,-3.12718 -6.3824,-7.36032 -3.8067,-4.23314 -8.301,-9.49595 -4.4943,-5.26282 -7.1211,-8.37093 -2.6268,-3.10812 -5.859,-6.32112 -3.2321,-3.21297 -6.5157,-5.86345 -3.2835,-2.65048 -6.9979,-5.72999 -3.7145,-3.07952 -7.039,-5.60605 -3.3245,-2.52653 -6.4952,-5.40583 -3.1706,-2.87929 -9.0912,-7.74167 -5.9205,-4.86239 -9.9428,-8.23746 -4.0223,-3.37508 -8.6397,-6.78828 -4.6175,-3.4132 -9.1015,-6.93128 -4.4839,-3.51808 -9.7889,-8.0277 -5.3049,-4.50963 -10.5175,-9.39108 -5.2125,-4.88145 -9.2143,-8.41861 -4.0017,-3.53714 -7.4185,-6.81688 -3.4171,-3.27971 -7.819,-6.97895 -4.4019,-3.69922 -7.8598,-6.44504 -3.4579,-2.74582 -4.1147,-3.356 -0.6567,-0.61019 -1.026,-1.29664 -0.3695,-0.68646 -0.667,-1.49685 -0.2977,-0.81039 -0.2668,-1.59219 0.031,-0.7818 0.1642,-1.60174 0.1334,-0.81991 0.5643,-1.52545 0.431,-0.70552 0.944,-1.35384 0.5131,-0.64831 1.2621,-1.10594 0.7491,-0.45765 1.5084,-0.79134 0.7593,-0.3337 1.6725,-0.43857 0.9132,-0.10487 1.7444,-0.0477 0.831,0.0572 1.693,0.3337 0.8619,0.2765 1.5597,0.71506 z"
     fill="var(--ifm-text-color)"
     stroke="none"
     id="path1"
     style="stroke-width:0.989077" />
</svg>
