<?xml version="1.0" encoding="UTF-8" standalone="no"?>
<!-- Created with Inkscape (http://www.inkscape.org/) -->

<svg
   width="48"
   height="48"
   viewBox="0 0 48 48"
   version="1.1"
   id="svg1"
   inkscape:version="1.4 (86a8ad7, 2024-10-11)"
   sodipodi:docname="menu.svg"
   xmlns:inkscape="http://www.inkscape.org/namespaces/inkscape"
   xmlns:sodipodi="http://sodipodi.sourceforge.net/DTD/sodipodi-0.dtd"
   xmlns="http://www.w3.org/2000/svg"
   xmlns:svg="http://www.w3.org/2000/svg">
  <sodipodi:namedview
     id="namedview1"
     pagecolor="#ffffff"
     bordercolor="#000000"
     borderopacity="0.25"
     inkscape:showpageshadow="2"
     inkscape:pageopacity="0.0"
     inkscape:pagecheckerboard="0"
     inkscape:deskcolor="#d1d1d1"
     inkscape:document-units="px"
     inkscape:zoom="2.9720582"
     inkscape:cx="15.309256"
     inkscape:cy="39.198425"
     inkscape:window-width="1920"
     inkscape:window-height="1009"
     inkscape:window-x="1912"
     inkscape:window-y="-8"
     inkscape:window-maximized="1"
     inkscape:current-layer="layer1" />
  <defs
     id="defs1" />
  <g
     inkscape:label="Layer 1"
     inkscape:groupmode="layer"
     id="layer1">
    <g
       id="g1"
       transform="matrix(0.25672811,0,0,0.25672811,16.988647,18.751843)">
      <path
         d="m -55.17698,-46.51077 q 3.99,-0.81 8.05,-1.31 4.06,-0.5 8.08,-0.77 4.02,-0.27 8.75,-0.91 4.73,-0.64 9,-0.93 4.27,-0.29 8.5,-0.47 4.23,-0.18 8.29,-0.33 4.06,-0.15 8.31,-0.3 4.25,-0.15 8.99,-0.25 4.74,-0.1 9.65,-0.2 4.91,-0.1 9.21,0.32 4.3,0.42 8.78,0.35 4.48,-0.07 9.03,-0.05 4.55,0.02 9.64,-0.08 5.09,-0.1 9.53,0.48 4.44,0.58 9.5,0.89 5.06,0.31 9.31,0.32 4.25,0.01 8.43,-0.05 4.18,-0.06 7.01,-0.06 2.83,0 4.6,0.28 1.77,0.28 3.29,1.11 1.52,0.83 2.76,2.1 1.24,1.27 1.95,2.87 0.71,1.6 0.93,3.34 0.22,1.74 -0.19,3.46 -0.41,1.72 -1.29,3.23 -0.88,1.51 -2.24,2.64 -1.36,1.13 -2.97,1.79 -1.61,0.66 -3.39,0.74 -1.78,0.08 -3.45,-0.37 -1.67,-0.45 -3.15,-1.46 -1.48,-1.01 -2.51,-2.38 -1.03,-1.37 -1.63,-3.07 -0.6,-1.7 -0.56,-3.42 0.04,-1.72 0.56,-3.42 0.52,-1.7 1.63,-3.07 1.11,-1.37 2.52,-2.38 1.41,-1.01 3.14,-1.46 1.73,-0.45 3.45,-0.37 1.72,0.08 3.39,0.74 1.67,0.66 2.97,1.79 1.3,1.13 2.25,2.65 0.95,1.52 1.28,3.22 0.33,1.7 0.19,3.46 -0.14,1.76 -0.93,3.34 -0.79,1.58 -1.95,2.87 -1.16,1.29 -2.76,2.1 -1.6,0.81 -3.29,1.11 -1.69,0.3 -1.73,0.28 -0.04,-0.02 -2.87,0 -2.83,0.02 -7.01,-0.06 -4.18,-0.08 -8.43,-0.05 -4.25,0.03 -8.44,-0.1 -4.19,-0.13 -9.5,-1.12 -5.31,-0.99 -10.4,-1.09 -5.09,-0.1 -9.64,-0.08 -4.55,0.02 -9.1,-0.06 -4.55,-0.08 -8.88,-0.64 -4.33,-0.56 -8.52,-0.66 -4.19,-0.1 -8.18,-0.18 -3.99,-0.08 -9,-0.25 -5.01,-0.17 -8.99,-0.29 -3.98,-0.12 -8.41,-0.33 -4.43,-0.21 -8.63,-0.32 -4.2,-0.11 -8.5,0.11 -4.3,0.22 -8.24,-0.01 -3.94,-0.23 -8.13,-0.41 -4.19,-0.18 -6.17,0.02 -1.98,0.2 -2.82,0.19 -0.84,-0.01 -1.57,-0.16 -0.73,-0.15 -1.48,-0.53 -0.75,-0.38 -1.32,-0.86 -0.57,-0.48 -1.06,-1.16 -0.49,-0.68 -0.76,-1.38 -0.27,-0.7 -0.41,-1.52 -0.14,-0.82 -0.04,-1.57 0.1,-0.75 0.35,-1.54 0.25,-0.79 0.7,-1.4 0.45,-0.61 1.02,-1.2 0.57,-0.59 1.28,-0.93 0.71,-0.34 1.46,-0.58 z"
         fill="#ffffff"
         stroke="none"
         id="path1"
         style="overflow:visible" />
      <path
         d="m -56.91698,14.28923 q 5.73,-0.81 9.82,-1.26 4.09,-0.45 8.5,-0.73 4.41,-0.28 8.51,-0.51 4.1,-0.23 8.3,-0.43 4.2,-0.2 8.28,-0.36 4.08,-0.16 9.28,-0.32 5.2,-0.16 9.69,-0.27 4.49,-0.11 8.68,-0.17 4.19,-0.06 8.53,-0.17 4.34,-0.11 8.59,-0.19 4.25,-0.08 8.83,-0.12 4.58,-0.04 9.11,-0.11 4.53,-0.07 9.37,-0.14 4.84,-0.07 8.91,-0.12 4.07,-0.05 8.27,0.85 4.2,0.9 8.5,0.4 4.3,-0.5 8.96,-0.53 4.66,-0.03 10.03,1.5 5.37,1.53 4.72,0.98 -0.65,-0.55 1.05,-0.19 1.7,0.36 3.27,1.28 1.57,0.92 2.68,2.25 1.11,1.33 1.83,2.99 0.72,1.66 0.78,3.42 0.06,1.76 -0.36,3.49 -0.42,1.73 -1.45,3.19 -1.03,1.46 -2.39,2.57 -1.36,1.11 -3.09,1.66 -1.73,0.55 -3.46,0.59 -1.73,0.04 -3.46,-0.55 -1.73,-0.59 -3.11,-1.62 -1.38,-1.03 -2.43,-2.53 -1.05,-1.5 -1.49,-3.17 -0.44,-1.67 -0.41,-3.49 0.03,-1.82 0.74,-3.43 0.71,-1.61 1.78,-3.01 1.07,-1.4 2.66,-2.29 1.59,-0.89 3.25,-1.32 1.66,-0.43 3.5,-0.21 1.84,0.22 3.39,0.91 1.55,0.69 2.91,1.95 1.36,1.26 2.14,2.78 0.78,1.52 1.14,3.32 0.36,1.8 0.03,3.5 -0.33,1.7 -1.1,3.34 -0.77,1.64 -2.11,2.8 -1.34,1.16 -2.89,1.99 -1.55,0.83 -3.37,0.96 -1.82,0.13 -1.76,0.2 0.06,0.07 -6.11,-1.03 -6.17,-1.1 -10.61,-1.08 -4.44,0.02 -8.54,-0.15 -4.1,-0.17 -8.56,-0.6 -4.46,-0.43 -9.06,-0.55 -4.6,-0.12 -8.65,-0.12 -4.05,0 -8.89,-0.14 -4.84,-0.14 -9.71,-0.13 -4.87,0.01 -9.67,-0.17 -4.8,-0.18 -8.93,-0.18 -4.13,0 -9.29,-0.18 -5.16,-0.18 -10.15,-0.26 -4.99,-0.08 -9.41,-0.31 -4.42,-0.23 -8.48,-0.34 -4.06,-0.11 -8.18,-0.4 -4.12,-0.29 -8.36,-0.48 -4.24,-0.19 -8.89,-0.37 -4.65,-0.18 -7.43,0.06 -2.78,0.24 -3.7,0.15 -0.92,-0.09 -1.6,-0.23 -0.68,-0.14 -1.5,-0.6 -0.82,-0.46 -1.3,-0.94 -0.48,-0.48 -1.05,-1.23 -0.57,-0.75 -0.72,-1.45 -0.15,-0.7 -0.35,-1.57 -0.2,-0.87 0.03,-1.62 0.23,-0.75 0.42,-1.56 0.19,-0.81 0.78,-1.41 0.59,-0.6 1.1,-1.18 0.51,-0.58 1.35,-0.89 0.84,-0.31 1.52,-0.54 z"
         fill="#ffffff"
         stroke="none"
         id="path2"
         style="overflow:visible" />
      <path
         d="m -56.85698,74.23923 q 6.3,-0.8 10.45,-1.24 4.15,-0.44 8.6,-0.72 4.45,-0.28 9.11,-0.97 4.66,-0.69 9.13,-0.93 4.47,-0.24 8.83,-0.4 4.36,-0.16 10.45,0.23 6.09,0.39 10.52,0.72 4.43,0.33 8.97,1.12 4.54,0.79 9.09,0.52 4.55,-0.27 8.68,-1.54 4.13,-1.27 8.84,-1.33 4.71,-0.06 8.88,-0.15 4.17,-0.09 9.85,-0.07 5.68,0.02 9.69,0.45 4.01,0.43 8.48,0.72 4.47,0.29 8.87,0.4 4.4,0.11 9.3,0.1 4.9,-0.01 6.61,0.25 1.71,0.26 3.29,1.11 1.58,0.85 2.77,2.1 1.19,1.25 1.95,2.88 0.76,1.63 0.93,3.35 0.17,1.72 -0.19,3.47 -0.36,1.75 -1.29,3.23 -0.93,1.48 -2.25,2.65 -1.32,1.17 -2.98,1.79 -1.66,0.62 -3.39,0.74 -1.73,0.12 -3.45,-0.37 -1.72,-0.49 -3.16,-1.46 -1.44,-0.97 -2.52,-2.39 -1.08,-1.42 -1.63,-3.07 -0.55,-1.65 -0.56,-3.43 -0.01,-1.78 0.56,-3.43 0.57,-1.65 1.63,-3.07 1.06,-1.42 2.52,-2.39 1.46,-0.97 3.16,-1.46 1.7,-0.49 3.45,-0.37 1.75,0.12 3.4,0.74 1.65,0.62 2.97,1.8 1.32,1.18 2.25,2.65 0.93,1.47 1.29,3.22 0.36,1.75 0.19,3.47 -0.17,1.72 -0.93,3.35 -0.76,1.63 -1.95,2.88 -1.19,1.25 -2.77,2.1 -1.58,0.85 -3.3,1.11 -1.72,0.26 -1.73,0.28 -0.01,0.02 -4.87,-0.03 -4.86,-0.05 -8.93,-0.14 -4.07,-0.09 -8.62,-0.61 -4.55,-0.52 -8.88,-1.04 -4.33,-0.52 -9.94,-0.54 -5.61,-0.02 -9.81,-0.07 -4.2,-0.05 -9.04,-0.08 -4.84,-0.03 -10.25,1.32 -5.41,1.35 -9.63,1.05 -4.22,-0.3 -8.65,-1.16 -4.43,-0.86 -8.8,-1.38 -4.37,-0.52 -9.55,-1.24 -5.18,-0.72 -9.51,-0.93 -4.33,-0.21 -8.34,-0.33 -4.01,-0.12 -8.25,0.12 -4.24,0.24 -8.66,0.02 -4.42,-0.22 -8.86,-0.34 -4.44,-0.12 -7.62,0.08 -3.18,0.2 -3.99,0.16 -0.81,-0.04 -1.61,-0.25 -0.8,-0.21 -1.5,-0.62 -0.7,-0.41 -1.31,-0.96 -0.61,-0.55 -1.04,-1.25 -0.43,-0.7 -0.71,-1.46 -0.28,-0.76 -0.34,-1.59 -0.06,-0.83 0.05,-1.62 0.11,-0.79 0.43,-1.57 0.32,-0.78 0.8,-1.41 0.48,-0.63 1.12,-1.19 0.64,-0.56 1.36,-0.88 0.72,-0.32 1.54,-0.53 z"
         fill="#ffffff"
         stroke="none"
         id="path3"
         style="overflow:visible" />
    </g>
  </g>
</svg>
