<?xml version="1.0" encoding="UTF-8" standalone="no"?>
<svg
   viewBox="774 216 393.5 397.5"
   style="height: 397.5px; width: 393.5px; position: absolute; overflow: visible;"
   version="1.1"
   id="svg1"
   sodipodi:docname="moon.svg"
   inkscape:version="1.4 (86a8ad7, 2024-10-11)"
   xmlns:inkscape="http://www.inkscape.org/namespaces/inkscape"
   xmlns:sodipodi="http://sodipodi.sourceforge.net/DTD/sodipodi-0.dtd"
   xmlns="http://www.w3.org/2000/svg"
   xmlns:svg="http://www.w3.org/2000/svg">
  <defs
     id="defs1" />
  <sodipodi:namedview
     id="namedview1"
     pagecolor="#ffffff"
     bordercolor="#000000"
     borderopacity="0.25"
     inkscape:showpageshadow="2"
     inkscape:pageopacity="0.0"
     inkscape:pagecheckerboard="0"
     inkscape:deskcolor="#d1d1d1"
     inkscape:zoom="1.0150943"
     inkscape:cx="348.24349"
     inkscape:cy="351.19888"
     inkscape:window-width="1920"
     inkscape:window-height="1009"
     inkscape:window-x="1912"
     inkscape:window-y="-8"
     inkscape:window-maximized="1"
     inkscape:current-layer="svg1" />
  <path
     d="m 978.47081,251.72679 q -11.15568,2.71036 -18.89394,5.7546 -7.73827,3.04424 -15.14265,6.67769 -7.40438,3.63345 -15.26048,7.81682 -7.85611,4.18338 -15.39797,8.01323 -7.54186,3.82985 -14.25883,7.89539 -6.71698,4.06553 -13.76783,7.79719 -7.05086,3.73165 -13.82675,9.15236 -6.77589,5.42071 -13.6107,11.54848 -6.83482,6.12776 -11.82344,13.04113 -4.98863,6.91338 -8.42568,14.96589 -3.43704,8.0525 -6.87409,16.61566 -3.43705,8.56316 -6.42237,16.75315 -2.98532,8.18999 -4.81186,16.41926 -1.82655,8.22927 -2.78892,16.16394 -0.96237,7.93467 0.0589,17.77444 1.02129,9.83977 4.61546,19.91523 3.59417,10.07546 7.52223,19.69919 3.92805,9.62373 7.28653,17.87264 3.35849,8.24891 8.56316,17.7548 5.20467,9.50589 10.31114,16.41926 5.10647,6.91338 11.29315,12.27517 6.18669,5.36179 15.63365,10.37006 9.44697,5.00827 18.12797,8.89704 8.681,3.88877 18.22617,6.20632 9.54517,2.31756 17.5584,3.69237 8.01322,1.37482 15.96753,2.29791 7.95431,0.9231 16.51747,1.00166 8.56315,0.0786 17.36199,0.0393 8.79884,-0.0393 16.83175,-1.84619 8.0328,-1.8069 18.6779,-4.51726 10.645,-2.71035 19.4045,-4.87078 8.7596,-2.16043 16.1836,-5.77424 7.424,-3.61381 15.8694,-8.32747 8.4453,-4.71367 14.8284,-12.7269 6.383,-8.01323 10.8414,-15.14264 4.4583,-7.12942 7.6204,-17.22452 3.1621,-10.09509 5.0868,-18.08868 1.9248,-7.99359 3.987,-18.81538 2.0622,-10.82178 4.3405,-21.11328 2.2783,-10.2915 2.7496,-16.1443 0.4714,-5.8528 1.0999,-8.40603 0.6285,-2.55324 2.023,-4.85115 1.3944,-2.29791 3.1228,-4.20302 1.7283,-1.9051 4.0458,-3.33884 2.3176,-1.43374 4.7137,-2.27827 2.3961,-0.84453 5.1261,-1.08022 2.73,-0.23568 5.244,0.17676 2.5139,0.41245 5.0475,1.43374 2.5336,1.0213 4.5566,2.59252 2.0229,1.57122 3.8102,3.59417 1.7872,2.02295 2.8282,4.41906 1.0409,2.39611 1.689,4.96898 0.6482,2.57288 0.4518,5.22432 -0.1964,2.65143 -4.3602,10.82178 -4.1637,8.17035 -10.8807,13.66963 -6.717,5.49927 -12.8054,11.07711 -6.0885,5.57783 -14.7106,11.15567 -8.6221,5.57783 -18.0494,8.9756 -9.4273,3.39777 -17.9905,5.8528 -8.5631,2.45503 -18.344,4.67438 -9.7808,2.21935 -18.344,3.29957 -8.5632,1.08021 -17.0674,-0.0196 -8.5042,-1.09986 -16.8317,-5.24395 -8.3275,-4.1441 -15.7711,-7.83647 -7.44371,-3.69237 -16.10506,-11.54848 -8.66136,-7.8561 -14.57308,-14.35703 -5.91172,-6.50093 -12.19661,-13.78747 -6.28488,-7.28654 -12.60905,-13.94459 -6.32416,-6.65805 -10.4879,-15.3194 -4.16374,-8.66136 -7.93467,-17.40128 -3.77093,-8.73992 -5.28323,-18.28509 -1.5123,-9.54517 -1.55158,-18.10832 -0.0393,-8.56316 0.90345,-17.06739 0.94274,-8.50424 4.39942,-16.53711 3.45669,-8.03287 8.64172,-16.47818 5.18503,-8.44532 11.62704,-19.87595 6.442,-11.43064 10.05581,-19.01178 3.61381,-7.58114 9.32913,-13.3161 5.71532,-5.73496 11.25387,-13.29646 5.53856,-7.5615 8.40604,-9.93797 2.86747,-2.37648 6.00992,-3.73165 3.14244,-1.35518 6.87409,-1.61051 3.73169,-0.25532 7.03119,0.66777 3.2996,0.92309 6.4617,2.88712 3.1621,1.96403 5.2047,4.79223 2.0425,2.82819 3.3781,6.20632 1.3355,3.37813 1.2373,6.95265 -0.098,3.57453 -1.0409,6.99194 -0.9428,3.41741 -3.2407,6.28488 -2.2979,2.86748 -5.0672,4.92971 -2.7692,2.06223 -6.3634,3.06388 -3.5942,1.00166 -7.03122,0.84453 -3.43705,-0.15712 -6.91338,-1.41409 -3.47632,-1.25698 -6.10812,-3.57453 -2.63179,-2.31755 -4.65474,-5.32252 -2.02295,-3.00496 -2.69072,-6.5402 -0.66777,-3.53525 -0.47136,-7.05086 0.1964,-3.51561 1.78726,-6.83481 1.59086,-3.31921 3.88877,-5.89208 2.29791,-2.57288 5.57784,-4.36014 3.27992,-1.78727 6.67769,-2.33719 3.39779,-0.54993 7.07048,-0.0982 3.6728,0.45172 6.717,2.16043 3.0442,1.7087 5.6957,4.22265 2.6514,2.51396 4.0262,5.79388 1.3748,3.27993 1.9837,6.77589 0.6088,3.49597 -0.2946,7.0705 -0.9035,3.57453 -2.514,6.59913 -1.6105,3.0246 -1.8069,3.08352 -0.1964,0.0589 -4.8315,5.42071 -4.6351,5.3618 -12.05909,14.84804 -7.42404,9.48625 -12.31446,19.73847 -4.89043,10.25222 -11.05747,19.09034 -6.16705,8.83812 -8.79884,16.26214 -2.6318,7.42402 -2.94604,15.88898 -0.31425,8.46495 2.51395,17.99048 2.8282,9.52553 6.87409,17.97084 4.0459,8.44532 9.91834,15.16229 5.87244,6.71697 10.86107,13.25718 4.98866,6.54021 11.48955,13.17862 6.5009,6.63841 14.6516,10.62538 8.1508,3.98698 15.7515,6.95266 7.6008,2.96568 16.5568,1.39445 8.9559,-1.57122 16.7335,-4.65474 7.7775,-3.08352 15.2408,-5.02791 7.4633,-1.94438 14.2589,-6.73661 6.7955,-4.79222 15.123,-9.44697 8.3275,-4.65474 9.2309,-7.28653 0.9035,-2.6318 2.023,-4.85115 1.1194,-2.21935 3.1228,-4.20302 2.0033,-1.98366 4.0262,-3.33884 2.023,-1.35518 4.7333,-2.27827 2.7104,-0.9231 5.1261,-1.08022 2.4158,-0.15712 5.244,0.17676 2.8282,0.33389 5.0475,1.43374 2.2194,1.09986 4.5566,2.59252 2.3372,1.49266 3.8102,3.59417 1.473,2.10151 2.8282,4.41906 1.3552,2.31755 1.689,4.96898 0.3339,2.65144 0.4518,5.22432 0.1178,2.57287 -0.1964,3.84949 -0.3143,1.27662 -1.9248,9.05416 -1.6105,7.77755 -3.1031,15.90862 -1.4927,8.13107 -3.0246,16.00681 -1.532,7.87575 -3.9085,16.98883 -2.3764,9.11309 -4.9886,19.99379 -2.6121,10.88071 -6.5206,20.05272 -3.9084,9.172 -10.2522,19.67954 -6.3438,10.50755 -14.9855,18.83502 -8.6417,8.32747 -15.2998,12.88401 -6.658,4.55654 -14.4356,8.89704 -7.7775,4.3405 -15.4765,7.69899 -7.699,3.35848 -15.7122,5.34215 -8.0132,1.98367 -18.5797,5.45999 -10.5665,3.47633 -19.601,4.87079 -9.0345,1.39446 -19.22779,3.04424 -10.19332,1.64978 -20.17058,1.72834 -9.97725,0.0786 -19.05106,-0.27496 -9.0738,-0.35352 -18.65825,-1.47302 -9.58445,-1.11949 -17.69588,-3.77093 -8.11143,-2.65144 -17.28343,-4.18338 -9.17201,-1.53194 -18.79574,-6.46164 -9.62373,-4.92971 -19.69918,-9.82014 -10.07546,-4.89042 -17.53876,-9.42733 -7.4633,-4.5369 -14.41596,-10.29149 -6.95265,-5.7546 -11.43063,-12.84474 -4.47798,-7.09013 -9.74157,-17.91192 -5.2636,-10.82179 -10.54683,-20.50444 -5.28323,-9.68265 -8.48459,-18.63861 -3.20137,-8.95596 -8.60244,-19.34566 -5.40107,-10.38971 -7.6597,-22.54703 -2.25863,-12.15732 -3.55489,-23.76472 -1.29626,-11.6074 -0.37317,-19.44387 0.9231,-7.83646 2.55324,-16.26214 1.63014,-8.42567 4.36014,-16.36034 2.73,-7.93466 7.07049,-18.73681 4.3405,-10.80215 7.87575,-19.50279 3.53525,-8.70063 9.09344,-17.57803 5.5582,-8.8774 10.86107,-15.57473 5.30287,-6.69734 14.71056,-15.29977 9.40769,-8.60244 16.2425,-13.3161 6.83481,-4.71367 15.22121,-9.11309 8.38639,-4.39942 15.65329,-7.38474 7.2669,-2.98532 18.65825,-8.46495 11.39136,-5.47964 20.89725,-8.11143 9.50588,-2.6318 17.59767,-6.0492 8.09179,-3.41741 16.73351,-5.77424 8.64172,-2.35683 14.632,-3.29957 5.99028,-0.94273 7.28654,-1.02129 1.29625,-0.0786 3.14244,0.13748 1.84618,0.21605 2.98532,0.88381 1.13914,0.66777 2.71036,1.57123 1.57122,0.90345 2.25863,2.18006 0.68741,1.27662 1.64978,2.65144 0.96237,1.37482 0.98201,2.96568 0.0196,1.59086 0.23569,3.1228 0.21604,1.53194 -0.51065,3.08353 -0.72669,1.55158 -1.23734,2.88711 -0.51064,1.33554 -1.88546,2.49432 -1.37482,1.15877 -2.4354,1.96402 -1.06057,0.80526 -2.82819,1.33554 z"
     fill="var(--ifm-text-color)"
     stroke="none"
     id="path1"
     style="overflow:visible;stroke-width:1.96403" />
</svg>
