<?xml version="1.0" encoding="UTF-8" standalone="no"?>
<svg
   viewBox="774 216 393.5 397.5"
   style="height: 397.5px; width: 393.5px; position: absolute; overflow: visible;"
   version="1.1"
   id="svg1"
   sodipodi:docname="open_source.svg"
   inkscape:version="1.4 (86a8ad7, 2024-10-11)"
   xmlns:inkscape="http://www.inkscape.org/namespaces/inkscape"
   xmlns:sodipodi="http://sodipodi.sourceforge.net/DTD/sodipodi-0.dtd"
   xmlns="http://www.w3.org/2000/svg"
   xmlns:svg="http://www.w3.org/2000/svg">
  <defs
     id="defs1" />
  <sodipodi:namedview
     id="namedview1"
     pagecolor="#ffffff"
     bordercolor="#000000"
     borderopacity="0.25"
     inkscape:showpageshadow="2"
     inkscape:pageopacity="0.0"
     inkscape:pagecheckerboard="0"
     inkscape:deskcolor="#d1d1d1"
     inkscape:zoom="1.0150943"
     inkscape:cx="190.62268"
     inkscape:cy="193.57807"
     inkscape:window-width="1920"
     inkscape:window-height="1009"
     inkscape:window-x="1912"
     inkscape:window-y="-8"
     inkscape:window-maximized="1"
     inkscape:current-layer="svg1" />
  <path
     d="M937.40,499.89 Q927.16,493.39 923.15,490.91 T914.07,485.24 905.04,479.10 897.75,472.57 891.81,464.36 888.03,453.49 886.73,440.12 887.57,428.33 890.43,417.59 894.47,407.27 900.43,397.41 908.27,386.61 917.06,376.57 926.60,368.04 937.97,360.57 949.69,354.73 959.38,351.98 969.47,351.15 981.04,350.78 992.82,350.78 1004.61,353.12 1014.43,356.91 1022.48,361.23 1030.51,366.18 1038.89,371.25 1047.16,377.72 1052.44,387.21 1053.57,399.44 1051.23,411.70 1046.91,423.47 1041.86,435.27 1036.54,445.04 1030.04,453.83 1022.32,462.37 1014.67,469.49 1010.07,477.86 1007.82,487.86 1006.75,497.59 1007.54,509.35 1009.33,520.87 1012.57,529.71 1017.07,538.76 1023.03,547.85 1028.43,555.93 1032.29,563.12 1036.63,570.31 1042.43,578.61 1048.42,586.86 1052.22,586.50 1057.52,579.41 1065.22,574.37 1072.47,569.71 1079.80,564.85 1087.24,559.91 1095.02,553.08 1102.84,545.72 1109.77,538.51 1116.70,529.93 1123.19,520.94 1128.74,512.10 1133.67,501.46 1136.89,491.58 1139.09,482.13 1140.93,471.71 1142.37,462.63 1143.86,452.75 1144.95,442.23 1145.49,432.34 1146.33,422.74 1147.93,410.20 1149.47,394.92 1150.01,380.26 1150.14,367.01 1149.46,355.95 1147.46,345.91 1144.87,336.74 1140.60,326.55 1133.54,315.58 1124.97,304.08 1116.33,292.39 1108.45,282.99 1101.37,275.41 1092.54,266.62 1083.17,258.29 1074.16,252.02 1061.50,244.77 1048.85,238.72 1039.52,235.28 1031.30,233.34 1023.29,232.61 1013.18,232.16 1001.59,231.71 988.03,231.08 970.76,230.22 955.09,229.83 942.57,230.09 933.19,233.45 926.49,239.44 919.24,245.51 910.22,252.15 900.52,258.74 891.61,264.33 882.58,270.60 874.26,277.00 867.28,282.70 860.53,289.24 853.79,296.27 846.34,303.46 838.47,311.34 831.62,319.55 824.73,329.66 818.09,340.56 812.06,350.54 806.28,359.70 800.08,370.41 794.58,381.71 792.14,391.28 791.39,401.93 791.20,413.02 791.17,424.11 791.33,433.83 791.56,441.96 792.34,452.50 794.22,464.97 797.10,477.00 800.64,488.23 804.54,498.52 808.57,507.77 812.32,515.69 817.08,524.56 823.39,533.45 830.60,540.44 838.44,547.49 846.70,556.14 854.57,563.97 862.74,570.64 871.61,577.93 879.20,583.82 887.76,589.51 897.23,590.06 904.54,583.05 911.07,574.15 916.68,565.14 921.20,555.72 925.01,546.72 928.13,538.91 931.71,529.18 934.27,519.02 935.67,509.36 936.23,500.09 939.11,499.92 934.78,502.43 923.03,498.73 914.30,493.47 905.57,487.08 896.74,479.69 887.89,471.23 881.83,459.86 883.29,449.95 887.84,447.54 889.94,446.83 891.69,444.47 894.11,442.80 896.93,441.99 899.86,442.12 902.60,443.18 904.86,445.06 906.40,447.56 907.06,450.42 906.77,453.34 905.56,456.02 903.56,458.17 900.98,459.57 898.09,460.07 895.19,459.63 892.58,458.28 890.54,456.17 889.28,453.51 888.93,450.60 889.54,447.72 891.03,445.19 893.25,443.27 895.96,442.16 898.89,441.97 901.73,442.73 904.18,444.35 905.98,446.67 906.94,449.45 906.97,452.38 906.74,453.85 904.77,457.43 896.52,462.28 893.33,459.76 899.59,459.47 907.10,466.23 915.64,472.26 923.44,477.14 932.24,481.62 942.25,484.22 950.91,488.37 955.22,497.79 954.97,508.15 953.61,517.57 951.61,528.46 948.59,539.14 944.83,548.14 940.53,558.09 935.99,568.73 930.37,579.71 923.68,590.28 917.25,599.03 910.28,606.95 901.06,612.77 891.04,612.99 882.49,609.06 874.95,604.01 867.25,598.60 860.13,592.57 853.69,586.49 846.78,580.83 838.58,573.25 828.69,563.00 818.83,553.61 809.78,544.42 801.82,533.17 795.29,521.05 790.62,510.52 786.29,499.62 781.91,487.75 778.44,474.83 775.70,460.83 774.22,446.74 773.25,434.41 772.84,424.09 772.87,412.82 773.09,402.98 774.02,393.40 776.45,381.48 781.03,368.62 787.32,355.93 793.52,345.57 799.38,336.05 805.26,326.33 811.07,317.28 817.44,308.16 825.46,298.68 835.27,288.85 844.12,280.26 851.42,272.70 859.39,265.87 867.38,260.21 874.41,255.13 882.77,249.76 891.99,244.36 900.98,238.65 910.06,232.70 917.94,227.03 925.05,221.70 932.58,218.36 942.57,217.91 955.09,218.18 970.77,217.79 988.06,216.96 1001.67,216.38 1013.43,216.06 1027.12,216.30 1040.05,218.36 1049.89,222.00 1061.16,227.77 1072.60,233.48 1082.92,239.47 1093.00,247.31 1102.62,256.78 1111.36,265.99 1118.78,273.82 1127.44,283.10 1137.44,293.73 1145.79,302.76 1152.70,312.30 1158.70,322.57 1162.22,331.96 1165.04,342.82 1167.14,354.78 1167.83,367.05 1167.84,380.49 1167.86,392.06 1167.69,400.21 1167.21,408.55 1166.24,418.84 1165.20,431.30 1164.62,441.83 1163.81,450.22 1162.63,459.83 1161.32,470.11 1159.08,480.46 1156.52,491.24 1154.11,501.41 1150.66,511.67 1145.51,522.17 1139.44,532.26 1132.91,541.96 1125.81,551.39 1118.66,559.26 1111.66,565.52 1104.64,572.26 1097.07,578.45 1089.36,583.53 1081.41,588.65 1073.30,593.57 1064.82,599.49 1055.66,606.13 1045.57,608.70 1035.90,602.85 1029.31,594.16 1023.99,586.98 1017.98,577.66 1012.67,568.24 1008.19,560.60 1003.37,553.30 998.02,543.48 993.66,533.42 990.81,524.71 988.21,511.07 986.93,496.52 987.85,485.98 989.73,476.28 993.00,467.02 998.58,458.70 1006.75,450.69 1014.38,443.04 1019.87,436.21 1025.05,427.38 1029.61,416.19 1033.60,404.76 1033.73,393.75 1028.06,386.08 1020.30,381.31 1011.73,376.08 1001.68,370.70 991.92,367.88 981.62,367.67 967.94,368.64 955.74,371.11 946.66,375.46 937.65,381.35 929.60,388.26 921.76,397.08 914.74,406.28 908.98,416.64 904.88,427.88 903.61,439.43 904.79,451.12 908.18,460.28 913.80,467.15 921.77,473.51 930.30,479.45 939.37,485.03 945.25,488.63 946.41,489.80 947.26,491.22 947.75,492.80 947.84,494.45 947.53,496.07 946.85,497.57 945.82,498.87 944.52,499.88 943.01,500.55 941.38,500.84 939.73,500.73 938.16,500.24 Z"
     fill="#000000"
     stroke="none"
     id="path1" />
</svg>
