<?xml version="1.0" encoding="UTF-8" standalone="no"?>
<!-- Created with Inkscape (http://www.inkscape.org/) -->

<svg
   width="48"
   height="48"
   viewBox="0 0 48 48"
   version="1.1"
   id="svg1"
   inkscape:version="1.4 (86a8ad7, 2024-10-11)"
   sodipodi:docname="palette.svg"
   xmlns:inkscape="http://www.inkscape.org/namespaces/inkscape"
   xmlns:sodipodi="http://sodipodi.sourceforge.net/DTD/sodipodi-0.dtd"
   xmlns="http://www.w3.org/2000/svg"
   xmlns:svg="http://www.w3.org/2000/svg">
  <sodipodi:namedview
     id="namedview1"
     pagecolor="#ffffff"
     bordercolor="#000000"
     borderopacity="0.25"
     inkscape:showpageshadow="2"
     inkscape:pageopacity="0.0"
     inkscape:pagecheckerboard="0"
     inkscape:deskcolor="#d1d1d1"
     inkscape:document-units="px"
     inkscape:zoom="9.7816117"
     inkscape:cx="27.296115"
     inkscape:cy="40.739707"
     inkscape:window-width="1920"
     inkscape:window-height="1111"
     inkscape:window-x="-9"
     inkscape:window-y="-9"
     inkscape:window-maximized="1"
     inkscape:current-layer="layer1" />
  <defs
     id="defs1" />
  <g
     inkscape:label="Layer 1"
     inkscape:groupmode="layer"
     id="layer1">
    <g
       id="g1"
       transform="matrix(1.9310462,0,0,1.9310462,-2.0173296,-0.32175413)">
      <path
         d="m 1.963057,12.683294 q 0.100258,-0.57731 0.24789,-1.078601 0.147633,-0.50129 0.240179,-0.989359 0.09255,-0.48807 0.208229,-0.9827498 0.115682,-0.49468 0.213736,-1.075295 0.09806,-0.580616 0.336031,-1.215216 0.237974,-0.634601 0.419761,-1.213013 0.181786,-0.578412 0.426372,-1.058769 0.244586,-0.480357 0.648923,-0.998174 0.404338,-0.517816 0.744775,-0.849439 0.340436,-0.331623 0.732655,-0.587226 0.392218,-0.255602 0.842828,-0.473747 0.450611,-0.218143 0.882491,-0.395523 0.431882,-0.177379 0.998174,-0.330521 0.566293,-0.153142 1.102839,-0.362471 0.536546,-0.20933003 1.015802,-0.36137103 0.479255,-0.152039 0.929865,-0.27323 0.450611,-0.121191 0.930969,-0.149836 0.480356,-0.02865 0.933171,-0.03305 0.452814,-0.0044 0.938679,0.04407 0.485866,0.04847 1.022412,0.218144 0.536547,0.169667 1.326492,0.446204 0.789945,0.27653503 1.312169,0.45391503 0.522222,0.17738 1.125974,0.407643 0.603752,0.230263 1.301152,0.423067 0.697399,0.192804 1.135891,0.41866 0.438491,0.225856 0.772317,0.62799 0.333826,0.402134 0.554174,0.943086 0.220347,0.540953 0.396625,1.03343 0.176279,0.492477 0.367981,0.978342 0.191702,0.485866 0.293061,1.015802 0.10136,0.529936 0.17077,1.05326 0.06941,0.523325 0.187295,0.983852 0.117886,0.460525 0.187295,0.8968128 0.06941,0.436289 0.07602,0.93207 0.0066,0.495782 0.01102,0.962918 0.0044,0.467137 -0.09916,0.896814 -0.103563,0.429678 -0.275434,0.962918 -0.171871,0.533241 -0.352556,1.038938 -0.180685,0.505697 -0.43188,0.881389 -0.251197,0.375693 -0.619177,0.708417 -0.36798,0.332725 -0.839524,0.611464 -0.471543,0.27874 -1.102838,0.472646 -0.631295,0.193905 -1.100636,0.296367 -0.469339,0.102462 -0.967324,0.124497 -0.497986,0.02203 -0.926562,0.13992 -0.428575,0.117886 -0.865965,0.18399 -0.437389,0.0661 -0.7613,0.415355 -0.32391,0.34925 0.03415,0.655533 0.358065,0.306283 0.574005,0.687484 0.215941,0.381201 0.250094,0.83732 0.03416,0.456119 -0.155344,0.923256 -0.189499,0.467136 -0.49468,0.900119 -0.305181,0.432982 -0.895712,0.857151 -0.590532,0.424169 -1.049955,0.634601 -0.459425,0.210432 -1.148011,0.350352 -0.688585,0.13992 -1.343017,0.202719 -0.654432,0.0628 -1.298948,0.05839 -0.644516,-0.0044 -1.332,-0.08594 Q 9.107816,24.767139 8.580084,24.634932 8.052353,24.502724 7.392412,24.118217 6.732472,23.733711 6.278556,23.304034 5.82464,22.874357 5.501831,22.520699 5.179022,22.167042 4.890367,21.780332 4.601712,21.393622 4.368144,21.005811 4.134576,20.617999 3.905415,20.083656 3.676253,19.549314 3.453702,19.119637 3.231152,18.689959 3.005295,18.11926 2.779439,17.54856 2.647231,17.093542 2.515023,16.638525 2.415866,15.987399 2.316706,15.336272 2.217553,14.733622 q -0.09916,-0.60265 -0.13331,-1.189876 -0.03415,-0.587226 -0.04737,-1.200893 -0.01322,-0.613668 -0.02093,-1.049955 -0.0077,-0.436289 0.02204,-0.600447 0.02975,-0.164159 0.110174,-0.33603 0.08043,-0.171871 0.210431,-0.283146 0.130006,-0.1112758 0.290859,-0.2016178 0.160854,-0.09034 0.339335,-0.09695 0.178482,-0.0066 0.353658,0.01542 0.175176,0.02204 0.329419,0.127802 0.154243,0.1057658 0.271027,0.2258558 0.116784,0.120089 0.185092,0.300774 0.06831,0.180685 0.07932,0.344844 0.01102,0.164158 -0.03415,0.351453 -0.04517,0.187296 -0.145429,0.321708 -0.100258,0.134412 -0.241281,0.258908 -0.141022,0.124497 -0.31069,0.168566 -0.169667,0.04407 -0.348149,0.0606 -0.178481,0.01653 -0.34925,-0.05398 Q 2.60758,11.826148 2.465456,11.734702 2.323331,11.643262 2.219768,11.480201 2.116205,11.317144 2.067729,11.160698 2.019259,11.00425 2.026959,10.810345 q 0.0077,-0.193906 0.07271,-0.345946 0.065,-0.152039 0.178482,-0.305181 0.113478,-0.153141 0.267722,-0.2313638 0.154243,-0.07822 0.327216,-0.13331 0.172972,-0.05509 0.352556,-0.02204 0.179583,0.03305 0.341538,0.09034 0.161955,0.05729 0.294164,0.1961088 0.132208,0.138819 0.21594,0.278739 0.08373,0.139921 0.116784,0.333827 0.03305,0.193905 0.03085,0.176278 -0.0022,-0.01763 0.0011,0.207126 0.0033,0.224755 0.01212,0.65994 0.0088,0.435187 0.08043,1.163435 0.07161,0.728248 0.143225,1.203097 0.07161,0.474848 0.185092,1.209707 0.113479,0.734859 0.300774,1.334203 0.187296,0.599345 0.38671,1.049956 0.199415,0.45061 0.488069,1.069787 0.288656,0.619175 0.597142,1.164535 0.308487,0.54536 0.694094,0.95741 0.385608,0.412049 0.809777,0.902322 0.424169,0.490273 1.024615,0.593837 0.600447,0.103563 1.06538,0.159751 0.464933,0.05619 1.077499,0.02975 0.612566,-0.02644 1.201995,-0.0606 0.589429,-0.03415 1.09733,-0.169667 0.507901,-0.135514 0.899017,-0.369082 0.391117,-0.233568 0.826303,-0.354759 0.435186,-0.121192 0.05288,-0.325013 -0.382303,-0.203821 -0.664348,-0.572903 -0.282044,-0.369082 -0.373489,-1.038938 -0.09144,-0.669856 0.0606,-1.111653 0.152039,-0.441796 0.385607,-0.820794 0.233568,-0.378997 0.585023,-0.701806 0.351453,-0.322809 0.84393,-0.569598 0.492477,-0.246789 1.048854,-0.338233 0.556377,-0.09144 1.008089,-0.231365 0.451712,-0.139921 0.904526,-0.170769 0.452814,-0.03085 0.883593,-0.107971 0.430779,-0.07712 0.904526,-0.293061 0.473747,-0.215941 0.839524,-0.51341 0.365777,-0.297469 0.52002,-0.730452 0.154243,-0.432982 0.349251,-0.973935 0.195007,-0.540953 0.200516,-1.091821 0.0055,-0.550869 0.0088,-0.981648 0.0033,-0.430779 -0.09034,-0.919951 -0.09365,-0.4891708 -0.155345,-0.9375768 -0.0617,-0.448408 -0.114581,-1.047753 -0.05288,-0.599345 -0.248993,-1.124873 -0.196109,-0.525528 -0.341539,-1.059871 -0.145429,-0.534342 -0.235771,-0.950799 -0.09034,-0.416456 -0.532139,-0.650025 -0.441796,-0.233568 -0.916645,-0.327216 -0.474849,-0.09365 -1.077499,-0.269925 -0.60265,-0.176278 -1.125975,-0.280943 -0.523325,-0.104665 -1.069787,-0.255603 -0.546461,-0.150938 -1.18657,-0.364675 -0.640109,-0.213737 -1.105042,-0.27874 -0.464934,-0.065 -0.98275,-0.04407 -0.517816,0.02093 -1.02131,0.124496 -0.503494,0.103563 -1.045548,0.284249 -0.542055,0.180684 -0.960715,0.32391 -0.41866,0.143226 -1.034531,0.304079 -0.615871,0.160854 -1.194283,0.423067 -0.578412,0.262214 -1.074194,0.590532 -0.495781,0.328317 -0.788843,0.700704 -0.293062,0.372387 -0.533241,0.878084 -0.240179,0.505698 -0.49468,1.06538 -0.254501,0.559683 -0.426372,1.157926 -0.171871,0.598243 -0.326114,1.030124 -0.154244,0.431881 -0.271028,0.8824908 -0.116784,0.450611 -0.275434,0.873677 -0.15865,0.423068 -0.327216,0.863763 -0.168565,0.440694 -0.250094,0.702908 -0.08153,0.262213 -0.105766,0.364674 -0.02424,0.102462 -0.07712,0.157549 -0.05288,0.05509 -0.113479,0.13331 -0.0606,0.07822 -0.142124,0.102462 -0.08153,0.02424 -0.161956,0.0661 -0.08043,0.04186 -0.172972,0.02534 -0.09255,-0.01653 -0.174074,-0.01763 -0.08153,-0.0011 -0.165261,-0.05839 -0.08373,-0.05729 -0.14543,-0.09585 -0.0617,-0.03856 -0.118987,-0.127802 -0.05729,-0.08924 -0.08594,-0.153142 -0.02865,-0.0639 -0.04517,-0.169667 -0.01653,-0.105767 -0.0044,-0.174074 z"
         fill="var(--ifm-text-color)"
         stroke="none"
         id="path1"
         style="overflow:visible;stroke-width:0.110174" />
      <path
         d="m 7.86396,13.706807 q -0.375692,-0.161955 0.03415,-0.345945 0.409846,-0.18399 -0.05288,-0.309588 -0.462729,-0.125598 0.03195,-0.04407 0.49468,0.08153 0.06831,-0.201617 -0.426372,-0.283147 -0.0088,-0.139921 0.417559,0.143226 0.308487,-0.04517 -0.109072,-0.188398 0.0606,-0.150939 0.169667,0.03746 0.318401,0.127802 0.148735,0.09034 0.260011,0.222551 0.111275,0.132208 0.176277,0.294163 0.065,0.161956 0.07161,0.334929 0.0066,0.172972 -0.03746,0.340436 -0.04407,0.167465 -0.144328,0.31069 -0.100258,0.143226 -0.236873,0.247891 -0.136616,0.104665 -0.302978,0.15865 -0.166362,0.05398 -0.338233,0.05509 -0.171872,0.0011 -0.338234,-0.05729 Q 7.567608,14.446079 7.432095,14.343615 7.296581,14.241154 7.197424,14.094623 7.098264,13.948092 7.0553,13.782831 7.01233,13.617571 7.01895,13.442395 q 0.0066,-0.175176 0.07492,-0.333827 0.06831,-0.15865 0.17738,-0.293062 0.109072,-0.134412 0.261111,-0.221449 0.15204,-0.08704 0.318402,-0.125598 0.166363,-0.03856 0.34264,-0.01763 0.176278,0.02093 0.32942,0.09255 0.153141,0.07161 0.283146,0.193906 0.130005,0.122292 0.206025,0.27323 0.07602,0.150938 0.109072,0.325013 0.03305,0.174074 -0.0011,0.341538 -0.03416,0.167464 -0.111276,0.325013 -0.07712,0.157548 -0.208228,0.272129 -0.131106,0.11458 -0.283146,0.1906 -0.15204,0.07602 -0.330521,0.09034 -0.178481,0.01432 -0.172973,0.01873 0.0055,0.0044 -0.41866,-0.161955 -0.424169,-0.166362 -0.776725,-0.477051 -0.352556,-0.310691 -0.45061,-0.778929 -0.09806,-0.468238 0.102461,-1.066481 0.200517,-0.598243 0.841728,-0.771216 0.64121,-0.172973 1.055463,0.149836 0.414254,0.322809 0.591633,0.846134 0.17738,0.523325 -0.04517,1.062075 -0.222551,0.538749 -0.742571,0.674263 -0.52002,0.135513 -0.915544,-0.131107 -0.395523,-0.26662 -0.456118,-0.972834 -0.0606,-0.706213 0.45061,-0.999275 0.511206,-0.293062 0.958511,-0.08814 0.447306,0.204923 0.639008,0.692993 0.191702,0.488069 0.01983,0.939781 -0.17187,0.451712 -0.655533,0.629092 Q 7.728472,14.298443 7.294388,13.954702 6.860304,13.61096 6.95946,12.993987 7.05862,12.377014 7.588552,12.28557 q 0.529935,-0.09144 0.727146,0.02314 0.197211,0.11458 0.264417,0.157548 0.06721,0.04297 0.131107,0.111276 0.0639,0.06831 0.10136,0.13992 0.03746,0.07161 0.0639,0.159752 0.02644,0.08814 0.02424,0.170769 -0.0022,0.08263 -0.01763,0.171872 -0.01542,0.08924 -0.05729,0.161955 -0.04186,0.07271 -0.09585,0.144327 -0.05398,0.07161 -0.1267,0.116784 -0.07271,0.04517 -0.150938,0.08263 -0.07822,0.03746 -0.166362,0.04517 -0.08814,0.0077 -0.172972,0.0033 -0.08483,-0.0044 -0.167465,-0.03856 z"
         fill="var(--ifm-text-color)"
         stroke="none"
         id="path2"
         style="overflow:visible;stroke-width:0.110174" />
      <path
         d="m 10.349479,7.1834232 q -0.29196,0.327215 -0.757995,0.138819 -0.466035,-0.188397 -0.419762,0.275434 0.04628,0.463831 0.522223,0.23467 0.475951,-0.229162 0.08924,-0.473747 -0.38671,-0.244586 -0.377896,-0.406541 0.0088,-0.161956 0.06721,-0.311792 0.05839,-0.149836 0.164159,-0.274332 0.105766,-0.124497 0.242382,-0.206025 0.136615,-0.08153 0.296367,-0.118988 0.159752,-0.03746 0.318402,-0.01763 0.15865,0.01983 0.307385,0.08373 0.148734,0.0639 0.264417,0.178481 0.115682,0.114582 0.192803,0.2534 0.07712,0.138819 0.102462,0.301876 0.02534,0.163057 0.0011,0.319504 -0.02424,0.156447 -0.10136,0.301876 -0.07712,0.145429 -0.192804,0.254501 -0.115682,0.109072 -0.263315,0.179583 -0.147633,0.07051 -0.306283,0.08594 -0.15865,0.01542 -0.318401,-0.01653 -0.159753,-0.03195 -0.29747,-0.117886 -0.137717,-0.08594 -0.242382,-0.206025 -0.104665,-0.12009 -0.16526,-0.272129 -0.0606,-0.15204 -0.06941,-0.311791 -0.0088,-0.159753 0.03416,-0.317301 0.04297,-0.157548 0.13331,-0.288655 0.09034,-0.131107 0.218143,-0.232467 0.127802,-0.101359 0.282045,-0.149836 0.154243,-0.04847 0.313995,-0.05178 0.159752,-0.0033 0.315097,0.05068 0.155345,0.05398 0.282045,0.148735 0.126699,0.09475 0.219245,0.231365 0.09255,0.136615 0.134412,0.288655 0.04186,0.152039 0.04407,0.155344 0.0022,0.0033 -0.142124,0.787742 -0.144327,0.784437 -0.712823,1.136993 Q 9.958369,9.1698522 9.44496,9.0607802 8.931551,8.9517082 8.648405,8.5771182 8.365258,8.2025272 8.400513,7.7420012 q 0.03526,-0.460526 0.444001,-0.854948 0.408744,-0.394422 0.994868,-0.0661 0.586124,0.328318 0.390015,0.92546 -0.196109,0.597141 -0.674263,0.594937 -0.478154,-0.0022 -0.72935,-0.477051 -0.251196,-0.474849 -0.04737,-0.936477 0.203821,-0.461627 0.377895,-0.613668 0.174075,-0.152039 0.239078,-0.207126 0.065,-0.05509 0.147632,-0.08924 0.08263,-0.03415 0.166363,-0.05178 0.08373,-0.01763 0.17187,-0.01102 0.08814,0.0066 0.17077,0.03195 0.08263,0.02534 0.157548,0.07051 0.07492,0.04517 0.136616,0.106868 0.0617,0.0617 0.106868,0.136616 0.04517,0.07492 0.07051,0.157548 0.02534,0.08263 0.03195,0.17077 0.0066,0.08814 -0.01102,0.172972 -0.01763,0.08483 -0.05178,0.16526 -0.03416,0.08043 -0.08924,0.147634 z"
         fill="var(--ifm-text-color)"
         stroke="none"
         id="path3"
         style="overflow:visible;stroke-width:0.110174" />
      <path
         d="m 16.100545,5.9814282 q -0.461627,0.07161 -0.892406,0.209329 -0.43078,0.137717 0.01873,0.05509 0.449509,-0.08263 0.08483,-0.174074 -0.364674,-0.09144 -0.316198,-0.256704 0.04847,-0.165261 0.150938,-0.307385 0.102461,-0.142124 0.24128,-0.242382 0.138819,-0.100258 0.305182,-0.153142 0.166362,-0.05288 0.339334,-0.04847 0.172973,0.0044 0.33603,0.0639 0.163057,0.05949 0.298571,0.166362 0.135513,0.106869 0.230263,0.254501 0.09475,0.147634 0.136616,0.313996 0.04186,0.166362 0.02865,0.340436 -0.01322,0.174075 -0.08153,0.332725 -0.06831,0.15865 -0.182889,0.288655 -0.114581,0.130005 -0.265519,0.215941 -0.150937,0.08594 -0.320605,0.118987 -0.169668,0.03305 -0.34264,0.01102 -0.172973,-0.02203 -0.327216,-0.09916 -0.154244,-0.07712 -0.27874,-0.199414 -0.124496,-0.122293 -0.200516,-0.276536 -0.07602,-0.154243 -0.102461,-0.327216 -0.02644,-0.172973 0.0088,-0.341538 0.03526,-0.168566 0.116784,-0.321708 0.08153,-0.153141 0.212635,-0.267722 0.131107,-0.11458 0.287554,-0.185091 0.156446,-0.07051 0.331622,-0.08373 0.175176,-0.01322 0.341539,0.02644 0.166362,0.03966 0.315097,0.13331 0.148734,0.09365 0.255602,0.228059 0.10687,0.134412 0.169668,0.29747 0.0628,0.163057 0.065,0.334927 0.0022,0.171871 0.0055,0.172973 0.0033,0.0011 -0.148734,0.455018 -0.152041,0.453915 -0.535445,0.780029 -0.383404,0.326115 -1.045548,0.330522 -0.662144,0.0044 -1.038938,-0.251197 -0.376794,-0.255602 -0.537648,-0.851642 -0.160853,-0.59604 0.08263,-1.135891 0.243484,-0.539851 0.680874,-0.755792 0.43739,-0.21594 0.884695,-0.10797 0.447305,0.10797 0.759096,0.458323 0.311792,0.350352 0.417559,0.827404 0.105766,0.477053 -0.124496,0.967325 -0.230263,0.490273 -0.93207,0.517817 -0.701807,0.02754 -1.027921,-0.544259 -0.326113,-0.571801 -0.195007,-1.11055 0.131107,-0.53875 0.591633,-0.913341 0.460526,-0.37459 0.738164,-0.401031 0.277637,-0.02644 0.366878,-0.02754 0.08924,-0.0011 0.177379,0.02093 0.08814,0.02204 0.167465,0.0628 0.07932,0.04077 0.146531,0.10136 0.06721,0.0606 0.118987,0.13331 0.05178,0.07272 0.08373,0.157549 0.03195,0.08483 0.04407,0.174074 0.01212,0.08924 0,0.178482 -0.01212,0.08924 -0.04186,0.172972 -0.02975,0.08373 -0.08263,0.158651 -0.05288,0.07492 -0.117886,0.134412 -0.065,0.05949 -0.146531,0.102461 -0.08153,0.04297 -0.167464,0.0639 z"
         fill="var(--ifm-text-color)"
         stroke="none"
         id="path4"
         style="overflow:visible;stroke-width:0.110174" />
      <path
         d="m 20.367573,9.7912342 q -0.100258,0.6345998 -0.55197,0.5795138 -0.451713,-0.05509 -0.10136,0.264417 0.350352,0.319503 -0.08594,0.191702 -0.436287,-0.127802 -0.500188,-0.08043 -0.0639,0.04737 -0.02754,-0.11458 0.03635,-0.161956 0.124496,-0.302978 0.08814,-0.141023 0.213736,-0.246789 0.125598,-0.1057668 0.282046,-0.1652608 0.156446,-0.05949 0.319503,-0.0661 0.163057,-0.0066 0.325013,0.03856 0.161955,0.04517 0.294163,0.1399198 0.132208,0.09475 0.23467,0.226958 0.102461,0.132208 0.149837,0.290859 0.04737,0.15865 0.04958,0.322809 0.0022,0.164158 -0.05619,0.321707 -0.0584,0.157548 -0.156447,0.286451 -0.09806,0.128904 -0.239077,0.222551 -0.141022,0.09365 -0.297469,0.13331 -0.156447,0.03966 -0.325012,0.03195 -0.168566,-0.0077 -0.318402,-0.07382 -0.149837,-0.0661 -0.27874,-0.170769 -0.128903,-0.104665 -0.208228,-0.251196 -0.07933,-0.146531 -0.117886,-0.305181 -0.03856,-0.15865 -0.01432,-0.326114 0.02424,-0.167464 0.09144,-0.313995 0.06721,-0.146531 0.186194,-0.267722 0.118987,-0.121191 0.262213,-0.1950068 0.143226,-0.07382 0.31069,-0.10136 0.167464,-0.02754 0.326114,0.0044 0.158651,0.03195 0.308487,0.106868 0.149836,0.07492 0.257806,0.2005158 0.10797,0.125598 0.180685,0.272129 0.07272,0.146532 0.08373,0.316199 0.01102,0.169667 0.01542,0.164159 0.0044,-0.0055 -0.332725,0.647821 -0.337131,0.65333 -0.927662,0.702908 -0.590531,0.04958 -1.066482,-0.277637 -0.47595,-0.327217 -0.523325,-1.027921 -0.04737,-0.700705 0.311792,-1.2559808 0.359166,-0.555274 0.955206,-0.59053 0.596039,-0.03526 0.94529,0.329419 0.349251,0.364675 0.413151,0.9254588 0.0639,0.560784 -0.289756,0.899018 -0.353658,0.338233 -1.031226,0.07602 -0.677569,-0.262214 -0.737062,-0.735961 -0.05949,-0.473747 0.02203,-0.7987588 0.08153,-0.325013 0.103564,-0.401032 0.02203,-0.07602 0.07602,-0.159752 0.05398,-0.08373 0.110174,-0.137717 0.05619,-0.05398 0.141022,-0.106869 0.08483,-0.05288 0.161955,-0.06941 0.07712,-0.01653 0.175176,-0.02865 0.09805,-0.01212 0.175177,0.01322 0.07712,0.02534 0.168565,0.05509 0.09144,0.02975 0.149836,0.09365 0.05839,0.0639 0.122293,0.1267 0.0639,0.0628 0.08924,0.153141 0.02534,0.09034 0.04958,0.169668 0.02424,0.07932 0.0077,0.176277 z"
         fill="var(--ifm-text-color)"
         stroke="none"
         id="path5"
         style="overflow:visible;stroke-width:0.110174" />
    </g>
  </g>
</svg>
