<?xml version="1.0" encoding="UTF-8" standalone="no"?>
<svg
   viewBox="774 216 393.5 397.5"
   style="height: 397.5px; width: 393.5px; position: absolute; overflow: visible;"
   version="1.1"
   id="svg1"
   sodipodi:docname="sun.svg"
   inkscape:version="1.4 (86a8ad7, 2024-10-11)"
   xmlns:inkscape="http://www.inkscape.org/namespaces/inkscape"
   xmlns:sodipodi="http://sodipodi.sourceforge.net/DTD/sodipodi-0.dtd"
   xmlns="http://www.w3.org/2000/svg"
   xmlns:svg="http://www.w3.org/2000/svg">
  <defs
     id="defs1" />
  <sodipodi:namedview
     id="namedview1"
     pagecolor="#ffffff"
     bordercolor="#000000"
     borderopacity="0.25"
     inkscape:showpageshadow="2"
     inkscape:pageopacity="0.0"
     inkscape:pagecheckerboard="0"
     inkscape:deskcolor="#d1d1d1"
     inkscape:zoom="1.0150943"
     inkscape:cx="348.24349"
     inkscape:cy="351.19888"
     inkscape:window-width="1920"
     inkscape:window-height="1009"
     inkscape:window-x="1912"
     inkscape:window-y="-8"
     inkscape:window-maximized="1"
     inkscape:current-layer="svg1" />
  <g
     id="g1"
     transform="matrix(1.722174,0,0,1.722174,-1352.2971,-583.57326)">
    <path
       d="m 1343.37,543.91447 q -5.15,0.25 -9.47,2.32 -4.32,2.07 -6.95,6.01 -2.63,3.94 -4.33,9.01 -1.7,5.07 -1.25,9.14 0.45,4.07 0.56,8.19 0.11,4.12 0.24,8.48 0.13,4.36 1.51,8.72 1.38,4.36 4.88,7.37 3.5,3.01 8.95,5.1 5.45,2.09 9.53,2.23 4.08,0.14 8.34,0.13 4.26,-0.01 8.82,-0.73 4.56,-0.72 7.4,-3.56 2.84,-2.84 5.04,-8.31 2.2,-5.47 2.51,-9.72 0.31,-4.25 -0.52,-8.2 -0.83,-3.95 -4.21,-8.71 -3.38,-4.76 -6.79,-7.69 -3.41,-2.93 -6.18,-6.18 -2.77,-3.25 -6.19,-5.72 -3.42,-2.47 -6.99,-3.46 -3.57,-0.99 -5.27,-1.55 -1.7,-0.56 -3.17,-1.63 -1.47,-1.07 -2.49,-2.55 -1.02,-1.48 -1.54,-3.22 -0.52,-1.74 -0.44,-3.53 0.08,-1.79 0.72,-3.49 0.64,-1.7 1.8,-3.08 1.16,-1.38 2.68,-2.35 1.52,-0.97 3.29,-1.36 1.77,-0.39 3.56,-0.24 1.79,0.15 3.45,0.9 1.66,0.75 2.97,1.96 1.31,1.21 2.2,2.81 0.89,1.6 1.18,3.36 0.29,1.76 0.05,3.56 -0.24,1.8 -1.09,3.39 -0.85,1.59 -2.12,2.87 -1.27,1.28 -2.92,2.04 -1.65,0.76 -3.42,1 -1.77,0.24 -3.56,-0.14 -1.79,-0.38 -3.33,-1.28 -1.54,-0.9 -2.75,-2.26 -1.21,-1.36 -1.87,-3.03 -0.66,-1.67 -0.82,-3.47 -0.16,-1.8 0.34,-3.55 0.5,-1.75 1.45,-3.25 0.95,-1.5 2.41,-2.63 1.46,-1.13 3.13,-1.71 1.67,-0.58 3.51,-0.62 1.84,-0.04 1.8,-0.03 -0.04,0.01 4.56,1.62 4.6,1.61 8.5,3.46 3.9,1.85 7.38,4.55 3.48,2.7 7.05,6.17 3.57,3.47 6.69,6.52 3.12,3.05 7.44,7.73 4.32,4.68 6.62,8.7 2.3,4.02 3.54,8.21 1.24,4.19 1.35,8.61 0.11,4.42 -0.15,8.66 -0.26,4.24 -1.5,8.81 -1.24,4.57 -2.95,8.39 -1.71,3.82 -4.8,8.68 -3.09,4.86 -6.41,7.53 -3.32,2.67 -7.3,4.77 -3.98,2.1 -8.33,3.21 -4.35,1.11 -8.97,1.1 -4.62,-0.01 -9,-0.05 -4.38,-0.04 -8.96,-0.77 -4.58,-0.73 -9.29,-2.23 -4.71,-1.5 -9.56,-4.33 -4.85,-2.83 -8.67,-6.74 -3.82,-3.91 -6.43,-8.09 -2.61,-4.18 -4.05,-8.64 -1.44,-4.46 -1.78,-10.1 -0.34,-5.64 -0.27,-9.77 0.07,-4.13 0.27,-8.72 0.2,-4.59 1.03,-9 0.83,-4.41 2.81,-8.84 1.98,-4.43 5.23,-9.17 3.25,-4.74 6.66,-7.16 3.41,-2.42 7.34,-4.41 3.93,-1.99 8.02,-2.76 4.09,-0.77 6.68,-0.64 2.59,0.13 3.39,0.22 0.8,0.09 1.54,0.37 0.74,0.28 1.4,0.74 0.66,0.46 1.19,1.05 0.53,0.59 0.9,1.31 0.37,0.72 0.56,1.48 0.19,0.76 0.19,1.57 0,0.81 -0.19,1.57 -0.19,0.76 -0.56,1.48 -0.37,0.72 -0.9,1.31 -0.53,0.59 -1.19,1.05 -0.66,0.46 -1.4,0.74 -0.74,0.28 -1.54,0.37 z"
       fill="var(--ifm-text-color)"
       stroke="none"
       id="path1"
       style="overflow:visible" />
    <path
       d="m 1339.77,506.29447 q -0.24,-4.6 -0.55,-8.92 -0.31,-4.32 -0.59,-8.79 -0.28,-4.47 -0.47,-8.88 -0.19,-4.41 0.03,-5.75 0.22,-1.34 0.86,-2.54 0.64,-1.2 1.62,-2.14 0.98,-0.94 2.22,-1.5 1.24,-0.56 2.58,-0.72 1.34,-0.16 2.68,0.15 1.34,0.31 2.49,0.99 1.15,0.68 2.05,1.74 0.9,1.06 1.38,2.29 0.48,1.23 0.57,2.62 0.09,1.39 -0.29,2.67 -0.38,1.28 -1.12,2.43 -0.74,1.15 -1.85,1.95 -1.11,0.8 -2.37,1.25 -1.26,0.45 -2.64,0.44 -1.38,-0.01 -2.65,-0.44 -1.27,-0.43 -2.37,-1.25 -1.1,-0.82 -1.84,-1.95 -0.74,-1.13 -1.13,-2.43 -0.39,-1.3 -0.28,-2.67 0.11,-1.37 0.57,-2.62 0.46,-1.25 1.39,-2.3 0.93,-1.05 2.04,-1.73 1.11,-0.68 2.49,-0.99 1.38,-0.31 2.68,-0.15 1.3,0.16 2.58,0.72 1.28,0.56 2.22,1.51 0.94,0.95 1.62,2.13 0.68,1.18 0.86,2.54 0.18,1.36 0.22,1.34 0.04,-0.02 -0.19,4.41 -0.23,4.43 -0.47,8.88 -0.24,4.45 -0.59,8.79 -0.35,4.34 -0.43,6.62 -0.08,2.28 -0.22,3.09 -0.14,0.81 -0.38,1.53 -0.24,0.72 -0.73,1.4 -0.49,0.68 -1.05,1.18 -0.56,0.5 -1.3,0.9 -0.74,0.4 -1.47,0.56 -0.73,0.16 -1.57,0.19 -0.84,0.03 -1.57,-0.19 -0.73,-0.22 -1.47,-0.56 -0.74,-0.34 -1.3,-0.9 -0.56,-0.56 -1.05,-1.18 -0.49,-0.62 -0.73,-1.4 -0.24,-0.78 -0.38,-1.53 z"
       fill="var(--ifm-text-color)"
       stroke="none"
       id="path2"
       style="overflow:visible" />
    <path
       d="m 1392.48,527.34447 q 1.51,-3.54 4.8,-7.36 3.29,-3.82 6.14,-7.34 2.85,-3.52 6.37,-6.1 3.52,-2.58 6.58,-4.46 3.06,-1.88 4.43,-2.15 1.37,-0.27 2.75,-0.06 1.38,0.21 2.63,0.82 1.25,0.61 2.23,1.61 0.98,1 1.59,2.24 0.61,1.24 0.8,2.63 0.19,1.39 -0.08,2.75 -0.27,1.36 -0.96,2.58 -0.69,1.22 -1.73,2.14 -1.04,0.92 -2.33,1.48 -1.29,0.56 -2.67,0.65 -1.38,0.09 -2.74,-0.23 -1.36,-0.32 -2.53,-1.1 -1.17,-0.78 -2.04,-1.85 -0.87,-1.07 -1.34,-2.4 -0.47,-1.33 -0.51,-2.7 -0.04,-1.37 0.38,-2.73 0.42,-1.36 1.23,-2.46 0.81,-1.1 1.96,-1.94 1.15,-0.84 2.47,-1.21 1.32,-0.37 2.72,-0.36 1.4,0.01 2.7,0.53 1.3,0.52 2.39,1.36 1.09,0.84 1.83,2.06 0.74,1.22 1.08,2.53 0.34,1.31 0.21,2.74 -0.13,1.43 -0.67,2.67 -0.54,1.24 -1.49,2.31 -0.95,1.07 -2.15,1.72 -1.2,0.65 -1.22,0.68 -0.02,0.03 -1.56,0.38 -1.54,0.35 -5.65,2.95 -4.11,2.6 -8,6.37 -3.89,3.77 -4.87,5.47 -0.98,1.7 -1.41,2.34 -0.43,0.64 -1.02,1.2 -0.59,0.56 -1.28,0.92 -0.69,0.36 -1.46,0.59 -0.77,0.23 -1.56,0.22 -0.79,-0.01 -1.57,-0.16 -0.78,-0.15 -1.49,-0.53 -0.71,-0.38 -1.31,-0.87 -0.6,-0.49 -1.07,-1.16 -0.47,-0.67 -0.76,-1.38 -0.29,-0.71 -0.41,-1.52 -0.12,-0.81 -0.03,-1.58 0.09,-0.77 0.35,-1.54 z"
       fill="var(--ifm-text-color)"
       stroke="none"
       id="path3"
       style="overflow:visible" />
    <path
       d="m 1419.93,573.79447 q 5.11,-1.39 9.51,-3.02 4.4,-1.63 8.79,-2.04 4.39,-0.41 10.39,0.06 6,0.47 6.54,0.77 0.54,0.3 1.85,0.72 1.31,0.42 2.42,1.27 1.11,0.85 1.89,1.96 0.78,1.11 1.16,2.47 0.38,1.36 0.31,2.71 -0.07,1.35 -0.57,2.67 -0.5,1.32 -1.39,2.35 -0.89,1.03 -2.07,1.78 -1.18,0.75 -2.53,1.02 -1.35,0.27 -2.72,0.17 -1.37,-0.1 -2.63,-0.72 -1.26,-0.62 -2.27,-1.51 -1.01,-0.89 -1.66,-2.16 -0.65,-1.27 -0.89,-2.58 -0.24,-1.31 -0.02,-2.73 0.22,-1.42 0.86,-2.59 0.64,-1.17 1.63,-2.18 0.99,-1.01 2.25,-1.55 1.26,-0.54 2.63,-0.75 1.37,-0.21 2.72,0.13 1.35,0.34 2.54,1 1.19,0.66 2.09,1.75 0.9,1.09 1.42,2.33 0.52,1.24 0.61,2.66 0.09,1.42 -0.28,2.72 -0.37,1.3 -1.13,2.48 -0.76,1.18 -1.87,1.99 -1.11,0.81 -2.4,1.29 -1.29,0.48 -2.69,0.46 -1.4,-0.02 -1.38,0.01 0.02,0.03 -3.7,-1.14 -3.72,-1.17 -8.15,-1.51 -4.43,-0.34 -8.79,0.72 -4.36,1.06 -6.97,1.54 -2.61,0.48 -3.41,0.53 -0.8,0.05 -1.6,-0.04 -0.8,-0.09 -1.54,-0.41 -0.74,-0.32 -1.39,-0.78 -0.65,-0.46 -1.17,-1.08 -0.52,-0.62 -0.87,-1.33 -0.35,-0.71 -0.54,-1.51 -0.19,-0.8 -0.15,-1.58 0.04,-0.78 0.23,-1.58 0.19,-0.8 0.6,-1.48 0.41,-0.68 0.93,-1.29 0.52,-0.61 1.22,-1.03 0.7,-0.42 1.43,-0.71 z"
       fill="var(--ifm-text-color)"
       stroke="none"
       id="path4"
       style="overflow:visible" />
    <path
       d="m 1402.34,626.35447 q 4.71,2.08 8.84,4.33 4.13,2.25 7.59,5.52 3.46,3.27 7.42,7.6 3.96,4.33 4.27,5.65 0.31,1.32 0.16,2.68 -0.15,1.36 -0.7,2.59 -0.55,1.23 -1.49,2.23 -0.94,1 -2.13,1.64 -1.19,0.64 -2.53,0.88 -1.34,0.24 -2.69,0.02 -1.35,-0.22 -2.55,-0.85 -1.2,-0.63 -2.14,-1.61 -0.94,-0.98 -1.53,-2.21 -0.59,-1.23 -0.73,-2.58 -0.14,-1.35 0.13,-2.68 0.27,-1.33 0.97,-2.5 0.7,-1.17 1.73,-2.06 1.03,-0.89 2.29,-1.4 1.26,-0.51 2.62,-0.59 1.36,-0.08 2.67,0.27 1.31,0.35 2.44,1.11 1.13,0.76 1.96,1.84 0.83,1.08 1.27,2.36 0.44,1.28 0.46,2.65 0.02,1.37 -0.42,2.65 -0.44,1.28 -1.24,2.38 -0.8,1.1 -1.94,1.86 -1.14,0.76 -2.43,1.14 -1.29,0.38 -2.67,0.31 -1.38,-0.07 -2.62,-0.56 -1.24,-0.49 -2.31,-1.37 -1.07,-0.88 -1.75,-2.04 -0.68,-1.16 -0.71,-1.16 -0.03,0 0.01,-0.11 0.04,-0.11 -2.8,-4.07 -2.84,-3.96 -6.85,-6.73 -4.01,-2.77 -6.3,-4.05 -2.29,-1.28 -2.91,-1.7 -0.62,-0.42 -1.21,-1.03 -0.59,-0.61 -0.93,-1.29 -0.34,-0.68 -0.59,-1.48 -0.25,-0.8 -0.22,-1.57 0.03,-0.77 0.16,-1.58 0.13,-0.81 0.53,-1.5 0.4,-0.69 0.88,-1.32 0.48,-0.63 1.17,-1.08 0.69,-0.45 1.39,-0.77 0.7,-0.32 1.54,-0.41 0.84,-0.09 1.59,-0.03 0.75,0.06 1.55,0.35 z"
       fill="var(--ifm-text-color)"
       stroke="none"
       id="path5"
       style="overflow:visible" />
    <path
       d="m 1355.98,655.89447 q -0.34,6.36 -0.73,10.58 -0.39,4.22 -0.12,8.43 0.27,4.21 0.34,6.81 0.07,2.6 -0.13,3.89 -0.2,1.29 -0.83,2.47 -0.63,1.18 -1.58,2.09 -0.95,0.91 -2.17,1.46 -1.22,0.55 -2.52,0.7 -1.3,0.15 -2.61,-0.14 -1.31,-0.29 -2.43,-0.97 -1.12,-0.68 -1.99,-1.69 -0.87,-1.01 -1.34,-2.24 -0.47,-1.23 -0.57,-2.55 -0.1,-1.32 0.29,-2.6 0.39,-1.28 1.09,-2.37 0.7,-1.09 1.8,-1.9 1.1,-0.81 2.31,-1.23 1.21,-0.42 2.58,-0.42 1.37,0 2.58,0.42 1.21,0.42 2.31,1.23 1.1,0.81 1.8,1.9 0.7,1.09 1.09,2.37 0.39,1.28 0.29,2.6 -0.1,1.32 -0.57,2.55 -0.47,1.23 -1.34,2.24 -0.87,1.01 -2,1.69 -1.13,0.68 -2.43,0.97 -1.3,0.29 -2.61,0.14 -1.31,-0.15 -2.51,-0.7 -1.2,-0.55 -2.17,-1.47 -0.97,-0.92 -1.58,-2.08 -0.61,-1.16 -0.83,-2.48 -0.22,-1.32 -0.22,-1.3 0,0.02 0.13,-3.37 0.13,-3.39 0.42,-7.63 0.29,-4.24 1.26,-8.29 0.97,-4.05 1.36,-7.17 0.39,-3.12 0.57,-3.92 0.18,-0.8 0.52,-1.51 0.34,-0.71 0.87,-1.33 0.53,-0.62 1.15,-1.09 0.62,-0.47 1.39,-0.78 0.77,-0.31 1.53,-0.43 0.76,-0.12 1.59,-0.05 0.83,0.07 1.55,0.34 0.72,0.27 1.43,0.69 0.71,0.42 1.22,1.02 0.51,0.6 0.94,1.28 0.43,0.68 0.61,1.47 0.18,0.79 0.24,1.57 z"
       fill="var(--ifm-text-color)"
       stroke="none"
       id="path6"
       style="overflow:visible" />
    <path
       d="m 1299.02,635.94447 q -2.73,3.06 -5.75,6.39 -3.02,3.33 -5.54,6.69 -2.52,3.36 -4.67,5.89 -2.15,2.53 -3.27,3.26 -1.12,0.73 -2.43,1.05 -1.31,0.32 -2.64,0.22 -1.33,-0.1 -2.57,-0.63 -1.24,-0.53 -2.23,-1.43 -0.99,-0.9 -1.66,-2.05 -0.67,-1.15 -0.92,-2.49 -0.25,-1.34 -0.07,-2.64 0.18,-1.3 0.77,-2.53 0.59,-1.23 1.54,-2.15 0.95,-0.92 2.15,-1.55 1.2,-0.63 2.52,-0.78 1.32,-0.15 2.65,0.07 1.33,0.22 2.48,0.91 1.15,0.69 2.07,1.65 0.92,0.96 1.42,2.23 0.5,1.27 0.65,2.56 0.15,1.29 -0.21,2.64 -0.36,1.35 -1.05,2.43 -0.69,1.08 -1.76,1.97 -1.07,0.89 -2.3,1.31 -1.23,0.42 -2.6,0.5 -1.37,0.08 -2.62,-0.35 -1.25,-0.43 -2.37,-1.17 -1.12,-0.74 -1.87,-1.87 -0.75,-1.13 -1.18,-2.37 -0.43,-1.24 -0.36,-2.62 0.07,-1.38 0.49,-2.6 0.42,-1.22 1.3,-2.3 0.88,-1.08 0.84,-1.05 -0.04,0.03 1.86,-1 1.9,-1.03 5.35,-4.56 3.45,-3.53 6.58,-6.89 3.13,-3.36 4.59,-4.69 1.46,-1.33 2.14,-1.84 0.68,-0.51 1.34,-0.81 0.66,-0.3 1.5,-0.47 0.84,-0.17 1.57,-0.09 0.73,0.08 1.55,0.28 0.82,0.2 1.44,0.64 0.62,0.44 1.24,0.98 0.62,0.54 0.97,1.23 0.35,0.69 0.64,1.44 0.29,0.75 0.28,1.55 -0.01,0.8 -0.09,1.57 -0.08,0.77 -0.47,1.5 -0.39,0.73 -0.81,1.35 z"
       fill="var(--ifm-text-color)"
       stroke="none"
       id="path7"
       style="overflow:visible" />
    <path
       d="m 1276.37,586.90447 q -5.17,0.25 -9.2,0.53 -4.03,0.28 -8.04,0.54 -4.01,0.26 -8.02,0.49 -4.01,0.23 -5.87,0.27 -1.86,0.04 -3.22,-0.18 -1.36,-0.22 -2.57,-0.87 -1.21,-0.65 -2.15,-1.64 -0.94,-0.99 -1.52,-2.24 -0.58,-1.25 -0.73,-2.61 -0.15,-1.36 0.15,-2.7 0.3,-1.34 1,-2.51 0.7,-1.17 1.75,-2.07 1.05,-0.9 2.32,-1.39 1.27,-0.49 2.65,-0.58 1.38,-0.09 2.69,0.29 1.31,0.38 2.46,1.14 1.15,0.76 1.96,1.86 0.81,1.1 1.27,2.39 0.46,1.29 0.44,2.67 -0.02,1.38 -0.44,2.67 -0.42,1.29 -1.27,2.39 -0.85,1.1 -1.97,1.87 -1.12,0.77 -2.45,1.13 -1.33,0.36 -2.69,0.29 -1.36,-0.07 -2.65,-0.58 -1.29,-0.51 -2.32,-1.39 -1.03,-0.88 -1.75,-2.07 -0.72,-1.19 -1,-2.51 -0.28,-1.32 -0.15,-2.71 0.13,-1.39 0.73,-2.6 0.6,-1.21 1.52,-2.25 0.92,-1.04 2.15,-1.63 1.23,-0.59 2.57,-0.87 1.34,-0.28 1.35,-0.22 0.01,0.06 1.87,0.04 1.86,-0.02 5.87,0.27 4.01,0.29 8.02,0.49 4.01,0.2 8.04,0.54 4.03,0.34 6.61,0.4 2.58,0.06 3.38,0.22 0.8,0.16 1.54,0.38 0.74,0.22 1.4,0.74 0.66,0.52 1.18,1.05 0.52,0.53 0.9,1.3 0.38,0.77 0.56,1.48 0.18,0.71 0.19,1.57 0.01,0.86 -0.19,1.57 -0.2,0.71 -0.56,1.48 -0.36,0.77 -0.9,1.3 -0.54,0.53 -1.18,1.05 -0.64,0.52 -1.4,0.74 -0.76,0.22 -1.54,0.38 z"
       fill="var(--ifm-text-color)"
       stroke="none"
       id="path8"
       style="overflow:visible" />
    <path
       d="m 1287.39,530.82447 q -5.85,-6.23 -9.88,-9.94 -4.03,-3.71 -5.65,-5.54 -1.62,-1.83 -2.71,-2.53 -1.09,-0.7 -1.86,-1.69 -0.77,-0.99 -1.22,-2.19 -0.45,-1.2 -0.46,-2.47 -0.01,-1.27 0.35,-2.49 0.36,-1.22 1.13,-2.24 0.77,-1.02 1.78,-1.77 1.01,-0.75 2.26,-1.11 1.25,-0.36 2.49,-0.32 1.24,0.04 2.47,0.49 1.23,0.45 2.18,1.24 0.95,0.79 1.67,1.88 0.72,1.09 0.98,2.32 0.26,1.23 0.19,2.5 -0.07,1.27 -0.62,2.44 -0.55,1.17 -1.37,2.11 -0.82,0.94 -1.96,1.56 -1.14,0.62 -2.37,0.85 -1.23,0.23 -2.51,0.06 -1.28,-0.17 -2.4,-0.75 -1.12,-0.58 -2.03,-1.48 -0.91,-0.9 -1.46,-2.05 -0.55,-1.15 -0.72,-2.4 -0.17,-1.25 0.08,-2.51 0.25,-1.26 0.88,-2.36 0.63,-1.1 1.59,-1.95 0.96,-0.85 2.12,-1.34 1.16,-0.49 2.44,-0.59 1.28,-0.1 2.51,0.21 1.23,0.31 1.23,0.32 0,0.01 2,1.78 2,1.77 4.69,5.18 2.69,3.41 5.59,6.35 2.9,2.94 5.73,6.16 2.83,3.22 3.29,3.88 0.46,0.66 0.76,1.41 0.3,0.75 0.41,1.56 0.11,0.81 0.02,1.61 -0.09,0.8 -0.36,1.57 -0.27,0.77 -0.73,1.43 -0.46,0.66 -1.06,1.22 -0.6,0.56 -1.31,0.93 -0.71,0.37 -1.5,0.59 -0.79,0.22 -1.59,0.22 -0.8,0 -1.61,-0.17 -0.81,-0.17 -1.51,-0.56 -0.7,-0.39 -1.34,-0.89 z"
       fill="var(--ifm-text-color)"
       stroke="none"
       id="path9"
       style="overflow:visible" />
  </g>
</svg>
